<?xml version="1.0" standalone="no"?>
<!DOCTYPE svg PUBLIC "-//W3C//DTD SVG 1.1//EN" "http://www.w3.org/Graphics/SVG/1.1/DTD/svg11.dtd" >
<svg xmlns="http://www.w3.org/2000/svg" xmlns:xlink="http://www.w3.org/1999/xlink" version="1.1">
<metadata>
Created by FontForge 20170910 at Mon Feb  6 04:03:32 2017
 By Jimmy Wärting
Mencken, designed by Jean Francois Porchez 2005-2016, is a Neo-Didot typeface featuring optical sizes, available in 66 styles, several widths and italics. Many glyphs including full latin support, small caps, 4 set of figures, various set of additional figures, superiors, ligatures, alternates, dingbats. OpenType features and extended kerning are included. Specific OpenType features are: Stylistic set 1 and Ornaments: ornmaments and arrows. More details at typofonderie.com
</metadata>
<defs>
<font id="MenckenProHeadNarrow-Heavy" horiz-adv-x="1000" >
  <font-face 
    font-family="Mencken Pro Head Narrow Heavy"
    font-weight="850"
    font-style="italic"
    font-stretch="condensed"
    units-per-em="1000"
    panose-1="2 6 8 6 8 4 2 2 2 4"
    ascent="790"
    descent="-210"
    x-height="527"
    cap-height="675"
    bbox="-122.25 -200 1125 1131"
    underline-thickness="67"
    underline-position="-167"
    slope="-360"
    stemh="22"
    stemv="169"
    unicode-range="U+000D-FB06"
  />
<missing-glyph horiz-adv-x="500" 
d="M109 636v-419l123 -121v61l-82 108v74l202 -201v-61l39 -41v250l-39 39v-76l-202 201v65l82 -54v54zM420 0h-338v675h338v-675z" />
    <glyph glyph-name="f_b" unicode="fb" horiz-adv-x="821" 
d="M805 273c0 -180 -70 -286 -190 -286c-51 0 -89 26 -115 63h-2l-115 -52c-8 -3 -12 -5 -18 -5h-1c-6 0 -7 2 -7 8v624c0 25 -1 54 -4 75c-14 12 -35 21 -58 21c-47 0 -73 -36 -73 -109v-85h77c6 0 9 -1 9 -7v-7c0 -5 -3 -6 -9 -6h-77v-415c0 -73 1 -76 19 -76h23
c6 0 9 -1 9 -7v-3c0 -5 -3 -6 -9 -6h-241c-6 0 -9 1 -9 6v3c0 6 3 7 9 7h24c18 0 19 3 19 76v415h-43c-6 0 -9 1 -9 6v5c0 6 3 7 9 7l43 2v34c0 132 101 179 253 179c71 0 135 -4 186 -10c6 0 9 -4 9 -12v-258h2c21 52 59 80 124 80c99 0 165 -104 165 -267zM636 263
c0 164 -15 226 -59 226c-34 0 -50 -35 -63 -80v-347c10 -20 29 -37 55 -37c46 0 67 67 67 238z" />
    <glyph glyph-name="f_f_b" unicode="ffb" horiz-adv-x="1113" 
d="M1096 273c0 -180 -69 -286 -190 -286c-50 0 -88 26 -114 63h-2l-115 -52c-8 -3 -12 -5 -18 -5h-1c-6 0 -7 2 -7 8v624c0 25 -1 54 -4 75c-14 12 -36 21 -58 21c-47 0 -73 -36 -73 -109v-85h78c6 0 9 -1 9 -7v-7c0 -5 -3 -6 -9 -6h-78v-415c0 -73 1 -76 19 -76h24
c6 0 9 -1 9 -7v-3c0 -5 -3 -6 -9 -6h-242c-6 0 -9 1 -9 6v3c0 6 3 7 9 7h24c17 0 18 3 18 76v415h-135v-415c0 -73 1 -76 19 -76h23c6 0 9 -1 9 -7v-3c0 -5 -3 -6 -9 -6h-241c-6 0 -9 1 -9 6v3c0 6 3 7 9 7h24c18 0 19 3 19 76v415h-43c-6 0 -9 1 -9 6v5c0 6 3 7 9 7l43 2
v24c0 114 66 183 162 183c70 0 126 -42 126 -101c0 -35 -24 -54 -53 -54c-34 0 -52 22 -52 50c0 27 8 50 22 78c-6 4 -12 6 -18 6c-28 0 -34 -38 -34 -136v-50h141v34c0 132 99 179 251 179c71 0 135 -4 186 -10c6 0 9 -4 9 -12v-258h2c21 52 59 80 124 80
c99 0 164 -104 164 -267zM928 263c0 164 -15 226 -59 226c-34 0 -50 -35 -63 -80v-347c10 -20 29 -37 55 -37c46 0 67 67 67 238z" />
    <glyph glyph-name="f_f" unicode="ff" horiz-adv-x="604" 
d="M578 0h-263c-6 0 -9 1 -9 6v3c0 6 3 7 9 7h24c17 0 18 3 18 76v415h-135v-415c0 -73 1 -76 19 -76h23c6 0 9 -1 9 -7v-3c0 -5 -3 -6 -9 -6h-241c-6 0 -9 1 -9 6v3c0 6 3 7 9 7h24c18 0 19 3 19 76v415h-43c-6 0 -9 1 -9 6v5c0 6 3 7 9 7l43 2v24c0 114 66 183 162 183
c70 0 126 -42 126 -101c0 -35 -24 -54 -53 -54c-34 0 -52 22 -52 50c0 27 8 50 22 78c-6 4 -12 6 -18 6c-28 0 -34 -38 -34 -136v-50h141v41c0 109 77 172 200 172c66 0 132 -40 132 -102c0 -42 -26 -62 -68 -62c-46 0 -64 24 -64 59c0 28 11 52 30 83c-5 2 -15 3 -21 3
c-38 0 -55 -29 -55 -87v-107h78c6 0 9 -1 9 -7v-7c0 -5 -3 -6 -9 -6h-78v-415c0 -73 1 -76 19 -76h45c6 0 9 -1 9 -7v-3c0 -5 -3 -6 -9 -6z" />
    <glyph glyph-name="f_h" unicode="fh" horiz-adv-x="842" 
d="M824 0h-234c-6 0 -9 1 -9 6v3c0 6 3 7 9 7h17c17 0 18 3 18 76v320c0 56 -9 86 -45 86c-35 0 -52 -38 -66 -89v-317c0 -73 1 -76 19 -76h16c6 0 9 -1 9 -7v-3c0 -5 -3 -6 -9 -6h-234c-6 0 -9 1 -9 6v3c0 6 3 7 9 7h24c17 0 18 3 18 76v533c0 25 -1 54 -4 75
c-14 12 -35 21 -58 21c-47 0 -73 -36 -73 -109v-85h77c6 0 9 -1 9 -7v-7c0 -5 -3 -6 -9 -6h-77v-415c0 -73 1 -76 19 -76h23c6 0 9 -1 9 -7v-3c0 -5 -3 -6 -9 -6h-241c-6 0 -9 1 -9 6v3c0 6 3 7 9 7h24c18 0 19 3 19 76v415h-43c-6 0 -9 1 -9 6v5c0 6 3 7 9 7l43 2v34
c0 132 101 179 253 179c71 0 135 -4 186 -10c6 0 9 -4 9 -12v-257h1c19 47 58 79 127 79c67 0 140 -38 140 -162v-286c0 -73 1 -76 19 -76h23c6 0 9 -1 9 -7v-3c0 -5 -3 -6 -9 -6z" />
    <glyph glyph-name="f_f_h" unicode="ffh" horiz-adv-x="1134" 
d="M1116 0h-234c-6 0 -9 1 -9 6v3c0 6 3 7 9 7h16c18 0 19 3 19 76v320c0 56 -10 86 -45 86s-52 -38 -66 -89v-317c0 -73 1 -76 18 -76h17c6 0 9 -1 9 -7v-3c0 -5 -3 -6 -9 -6h-234c-6 0 -9 1 -9 6v3c0 6 3 7 9 7h23c18 0 19 3 19 76v533c0 25 -1 54 -4 75
c-14 12 -36 21 -58 21c-47 0 -73 -36 -73 -109v-85h78c6 0 9 -1 9 -7v-7c0 -5 -3 -6 -9 -6h-78v-415c0 -73 1 -76 19 -76h24c6 0 9 -1 9 -7v-3c0 -5 -3 -6 -9 -6h-242c-6 0 -9 1 -9 6v3c0 6 3 7 9 7h24c17 0 18 3 18 76v415h-135v-415c0 -73 1 -76 19 -76h23c6 0 9 -1 9 -7
v-3c0 -5 -3 -6 -9 -6h-241c-6 0 -9 1 -9 6v3c0 6 3 7 9 7h24c18 0 19 3 19 76v415h-43c-6 0 -9 1 -9 6v5c0 6 3 7 9 7l43 2v24c0 114 66 183 162 183c70 0 126 -42 126 -101c0 -35 -24 -54 -53 -54c-34 0 -52 22 -52 50c0 27 8 50 22 78c-6 4 -12 6 -18 6
c-28 0 -34 -38 -34 -136v-50h141v34c0 132 99 179 251 179c71 0 135 -4 187 -10c5 0 8 -4 8 -12v-257h1c19 47 58 79 127 79c67 0 140 -38 140 -162v-286c0 -73 1 -76 19 -76h23c6 0 9 -1 9 -7v-3c0 -5 -3 -6 -9 -6z" />
    <glyph glyph-name="fi" unicode="fi" horiz-adv-x="580" 
d="M558 0h-245c-5 0 -7 1 -7 6v3c0 6 2 7 7 7h25c18 0 19 3 19 76v339c0 73 -1 76 -19 76h-116v-415c0 -73 1 -76 19 -76h25c5 0 7 -1 7 -7v-3c0 -5 -2 -6 -7 -6h-245c-5 0 -7 1 -7 6v3c0 6 2 7 7 7h26c18 0 19 3 19 76v415h-45c-5 0 -7 1 -7 6v5c0 6 2 7 7 7l45 2v34
c0 128 106 179 244 179c113 0 199 -42 199 -110c0 -42 -31 -63 -82 -63c-53 0 -77 24 -77 60c0 29 16 56 37 81c-18 8 -39 12 -58 12c-81 0 -107 -71 -107 -143v-50h285c5 0 7 -5 7 -14v-421c0 -73 1 -76 19 -76h25c5 0 8 -1 8 -7v-3c0 -5 -3 -6 -8 -6z" />
    <glyph glyph-name="f_f_i" unicode="ffi" horiz-adv-x="872" 
d="M850 0h-245c-5 0 -8 1 -8 6v3c0 6 3 7 8 7h25c18 0 19 3 19 76v339c0 73 -1 76 -19 76h-116v-415c0 -73 1 -76 19 -76h25c5 0 8 -1 8 -7v-3c0 -5 -3 -6 -8 -6h-245c-5 0 -7 1 -7 6v3c0 6 2 7 7 7h26c17 0 18 3 18 76v415h-135v-415c0 -73 1 -76 19 -76h23c6 0 9 -1 9 -7
v-3c0 -5 -3 -6 -9 -6h-241c-6 0 -9 1 -9 6v3c0 6 3 7 9 7h24c18 0 19 3 19 76v415h-43c-6 0 -9 1 -9 6v5c0 6 3 7 9 7l43 2v24c0 114 66 183 162 183c70 0 126 -42 126 -101c0 -35 -24 -54 -53 -54c-34 0 -52 22 -52 50c0 27 8 50 22 78c-6 4 -12 6 -18 6
c-28 0 -34 -38 -34 -136v-50h141v34c0 128 104 179 242 179c113 0 199 -42 199 -110c0 -42 -31 -63 -82 -63c-53 0 -77 24 -77 60c0 29 16 56 37 81c-18 8 -39 12 -58 12c-81 0 -107 -71 -107 -143v-50h285c4 0 7 -5 7 -14v-421c0 -73 1 -76 19 -76h25c5 0 7 -1 7 -7v-3
c0 -5 -2 -6 -7 -6z" />
    <glyph glyph-name="f_j" unicode="fj" horiz-adv-x="569" 
d="M513 -27c0 -108 -81 -173 -201 -173c-65 0 -129 39 -129 97c0 41 25 60 67 60c43 0 60 -23 60 -56c0 -27 -10 -50 -28 -79c5 -2 15 -3 22 -3c36 0 53 30 53 88v524c0 73 -1 76 -19 76h-116v-415c0 -73 1 -76 19 -76h25c5 0 7 -1 7 -7v-3c0 -5 -2 -6 -7 -6h-245
c-5 0 -7 1 -7 6v3c0 6 2 7 7 7h26c18 0 19 3 19 76v415h-45c-5 0 -7 1 -7 6v5c0 6 2 7 7 7l45 2v34c0 128 106 179 244 179c113 0 199 -42 199 -110c0 -42 -31 -63 -82 -63c-53 0 -77 24 -77 60c0 29 16 56 37 81c-18 8 -39 12 -58 12c-81 0 -107 -71 -107 -143v-50h285
c4 0 7 -5 7 -14z" />
    <glyph glyph-name="f_f_j" unicode="ffj" horiz-adv-x="860" 
d="M805 -27c0 -108 -81 -173 -202 -173c-64 0 -128 39 -128 97c0 41 25 60 67 60c43 0 60 -23 60 -56c0 -27 -10 -50 -28 -79c5 -2 15 -3 22 -3c36 0 53 30 53 88v524c0 73 -1 76 -19 76h-116v-415c0 -73 1 -76 19 -76h25c5 0 8 -1 8 -7v-3c0 -5 -3 -6 -8 -6h-245
c-5 0 -7 1 -7 6v3c0 6 2 7 7 7h26c17 0 18 3 18 76v415h-135v-415c0 -73 1 -76 19 -76h23c6 0 9 -1 9 -7v-3c0 -5 -3 -6 -9 -6h-241c-6 0 -9 1 -9 6v3c0 6 3 7 9 7h24c18 0 19 3 19 76v415h-43c-6 0 -9 1 -9 6v5c0 6 3 7 9 7l43 2v24c0 114 66 183 162 183
c70 0 126 -42 126 -101c0 -35 -24 -54 -53 -54c-34 0 -52 22 -52 50c0 27 8 50 22 78c-6 4 -12 6 -18 6c-28 0 -34 -38 -34 -136v-50h141v34c0 128 104 179 242 179c113 0 199 -42 199 -110c0 -42 -31 -63 -82 -63c-53 0 -77 24 -77 60c0 29 16 56 37 81
c-18 8 -39 12 -58 12c-81 0 -107 -71 -107 -143v-50h285c4 0 7 -5 7 -14z" />
    <glyph glyph-name="f_k" unicode="fk" horiz-adv-x="821" 
d="M809 0h-190c-6 0 -8 1 -11 8l-76 231c-11 -17 -17 -36 -17 -99v-48c0 -73 0 -76 18 -76h25c5 0 8 -1 8 -7v-3c0 -5 -3 -6 -8 -6h-245c-5 0 -7 1 -7 6v3c0 6 2 7 7 7h26c17 0 18 3 18 76v533c0 25 -1 54 -4 75c-14 12 -35 21 -58 21c-47 0 -73 -36 -73 -109v-85h77
c6 0 9 -1 9 -7v-7c0 -5 -3 -6 -9 -6h-77v-415c0 -73 1 -76 19 -76h23c6 0 9 -1 9 -7v-3c0 -5 -3 -6 -9 -6h-241c-6 0 -9 1 -9 6v3c0 6 3 7 9 7h24c18 0 19 3 19 76v415h-43c-6 0 -9 1 -9 6v5c0 6 3 7 9 7l43 2v34c0 132 101 179 253 179c71 0 135 -4 187 -10c6 0 9 -4 9 -12
v-473h1c10 24 46 69 110 151c19 24 37 52 37 78s-10 38 -33 38h-30c-5 0 -7 1 -7 7v2c0 5 2 6 7 6h196c5 0 8 -1 8 -6v-2c0 -6 -3 -7 -8 -7h-10c-35 0 -61 -22 -110 -82l-31 -40l106 -298c27 -75 37 -76 49 -76h9c5 0 7 -1 7 -7v-3c0 -5 -2 -6 -7 -6z" />
    <glyph glyph-name="f_f_k" unicode="ffk" horiz-adv-x="1113" 
d="M1101 0h-190c-6 0 -8 1 -10 8l-77 231c-12 -17 -18 -36 -18 -99v-48c0 -73 1 -76 19 -76h25c5 0 7 -1 7 -7v-3c0 -5 -2 -6 -7 -6h-245c-5 0 -7 1 -7 6v3c0 6 2 7 7 7h25c18 0 19 3 19 76v533c0 25 -1 54 -4 75c-14 12 -36 21 -58 21c-47 0 -73 -36 -73 -109v-85h78
c6 0 9 -1 9 -7v-7c0 -5 -3 -6 -9 -6h-78v-415c0 -73 1 -76 19 -76h24c6 0 9 -1 9 -7v-3c0 -5 -3 -6 -9 -6h-242c-6 0 -9 1 -9 6v3c0 6 3 7 9 7h24c17 0 18 3 18 76v415h-135v-415c0 -73 1 -76 19 -76h23c6 0 9 -1 9 -7v-3c0 -5 -3 -6 -9 -6h-241c-6 0 -9 1 -9 6v3
c0 6 3 7 9 7h24c18 0 19 3 19 76v415h-43c-6 0 -9 1 -9 6v5c0 6 3 7 9 7l43 2v24c0 114 66 183 162 183c70 0 126 -42 126 -101c0 -35 -24 -54 -53 -54c-34 0 -52 22 -52 50c0 27 8 50 22 78c-6 4 -12 6 -18 6c-28 0 -34 -38 -34 -136v-50h141v34c0 132 99 179 251 179
c71 0 135 -4 187 -10c6 0 8 -4 8 -12v-473h2c10 25 47 70 112 152c17 24 35 51 35 77s-10 38 -33 38h-30c-5 0 -7 1 -7 7v2c0 5 2 6 7 6h196c5 0 8 -1 8 -6v-2c0 -6 -3 -7 -8 -7h-10c-35 0 -61 -22 -109 -82l-32 -40l106 -298c27 -75 37 -76 49 -76h9c5 0 7 -1 7 -7v-3
c0 -5 -2 -6 -7 -6z" />
    <glyph glyph-name="fl" unicode="fl" horiz-adv-x="580" 
d="M557 0h-242c-6 0 -9 1 -9 6v3c0 6 3 7 9 7h24c17 0 18 3 18 76v533c0 25 -1 54 -4 75c-14 12 -35 21 -58 21c-47 0 -73 -36 -73 -109v-85h77c6 0 9 -1 9 -7v-7c0 -5 -3 -6 -9 -6h-77v-415c0 -73 1 -76 19 -76h23c6 0 9 -1 9 -7v-3c0 -5 -3 -6 -9 -6h-241c-6 0 -9 1 -9 6
v3c0 6 3 7 9 7h24c18 0 19 3 19 76v415h-43c-6 0 -9 1 -9 6v5c0 6 3 7 9 7l43 2v34c0 132 101 179 253 179c71 0 135 -4 186 -10c6 0 9 -4 9 -12v-626c0 -73 1 -76 19 -76h24c6 0 9 -1 9 -7v-3c0 -5 -3 -6 -9 -6z" />
    <glyph glyph-name="f_f_l" unicode="ffl" horiz-adv-x="872" 
d="M848 0h-241c-6 0 -9 1 -9 6v3c0 6 3 7 9 7h23c18 0 19 3 19 76v533c0 25 -1 54 -4 75c-14 12 -36 21 -58 21c-47 0 -73 -36 -73 -109v-85h78c6 0 9 -1 9 -7v-7c0 -5 -3 -6 -9 -6h-78v-415c0 -73 1 -76 19 -76h24c6 0 9 -1 9 -7v-3c0 -5 -3 -6 -9 -6h-242c-6 0 -9 1 -9 6
v3c0 6 3 7 9 7h24c17 0 18 3 18 76v415h-135v-415c0 -73 1 -76 19 -76h23c6 0 9 -1 9 -7v-3c0 -5 -3 -6 -9 -6h-241c-6 0 -9 1 -9 6v3c0 6 3 7 9 7h24c18 0 19 3 19 76v415h-43c-6 0 -9 1 -9 6v5c0 6 3 7 9 7l43 2v24c0 114 66 183 162 183c70 0 126 -42 126 -101
c0 -35 -24 -54 -53 -54c-34 0 -52 22 -52 50c0 27 8 50 22 78c-6 4 -12 6 -18 6c-28 0 -34 -38 -34 -136v-50h141v34c0 132 99 179 251 179c71 0 135 -4 186 -10c6 0 9 -4 9 -12v-626c0 -73 1 -76 19 -76h23c6 0 9 -1 9 -7v-3c0 -5 -3 -6 -9 -6z" />
    <glyph glyph-name="f_t" unicode="ft" horiz-adv-x="618" 
d="M512 -13c-80 0 -150 46 -150 166v354h-140v-415c0 -73 1 -76 19 -76h38c6 0 9 -1 9 -7v-3c0 -5 -3 -6 -9 -6h-256c-6 0 -9 1 -9 6v3c0 6 3 7 9 7h24c18 0 19 3 19 76v415h-43c-6 0 -9 1 -9 6v5c0 6 3 7 9 7l43 2v29c0 111 67 179 162 179c78 0 129 -44 129 -100
c0 -36 -23 -55 -55 -55c-34 0 -53 22 -53 50c0 27 8 50 22 78c-5 4 -12 6 -18 6c-27 0 -36 -31 -36 -126v-61h145l11 105c1 6 2 10 7 12c40 13 88 33 119 56c5 5 7 6 12 6h1c6 0 7 -1 7 -7v-172h77c6 0 9 -1 9 -7v-7c0 -5 -3 -6 -9 -6h-77v-411c0 -53 5 -80 34 -80
c24 0 38 25 41 71c0 6 2 10 7 9h6c6 -1 7 -4 6 -10c-4 -72 -35 -99 -101 -99z" />
    <glyph glyph-name="f_f_t" unicode="fft" horiz-adv-x="910" 
d="M804 -13c-80 0 -150 46 -150 166v354h-140v-415c0 -73 1 -76 19 -76h38c6 0 9 -1 9 -7v-3c0 -5 -3 -6 -9 -6h-256c-6 0 -9 1 -9 6v3c0 6 3 7 9 7h24c17 0 18 3 18 76v415h-135v-415c0 -73 1 -76 19 -76h23c6 0 9 -1 9 -7v-3c0 -5 -3 -6 -9 -6h-241c-6 0 -9 1 -9 6v3
c0 6 3 7 9 7h24c18 0 19 3 19 76v415h-43c-6 0 -9 1 -9 6v5c0 6 3 7 9 7l43 2v24c0 114 66 183 162 183c70 0 126 -42 126 -101c0 -35 -24 -54 -53 -54c-34 0 -52 22 -52 50c0 27 8 50 22 78c-6 4 -12 6 -18 6c-28 0 -34 -38 -34 -136v-50h138v29c0 111 67 179 163 179
c77 0 129 -44 129 -100c0 -36 -24 -55 -55 -55c-34 0 -53 22 -53 50c0 27 8 50 22 78c-6 4 -12 6 -18 6c-27 0 -36 -31 -36 -126v-61h145l11 105c1 6 2 10 7 12c39 13 87 33 119 56c5 5 7 6 12 6h1c6 0 6 -1 6 -7v-172h78c6 0 9 -1 9 -7v-7c0 -5 -3 -6 -9 -6h-78v-411
c0 -53 5 -80 34 -80c25 0 39 25 41 71c1 6 3 10 8 9h6c5 -1 6 -4 6 -10c-4 -72 -36 -99 -101 -99z" />
    <glyph glyph-name=".notdef" horiz-adv-x="500" 
d="M109 636v-419l123 -121v61l-82 108v74l202 -201v-61l39 -41v250l-39 39v-76l-202 201v65l82 -54v54zM420 0h-338v675h338v-675z" />
    <glyph glyph-name=".null" horiz-adv-x="537" 
 />
    <glyph glyph-name=".null" horiz-adv-x="537" 
 />
    <glyph glyph-name="CR" unicode="&#xd;" horiz-adv-x="0" 
 />
    <glyph glyph-name="space" unicode=" " horiz-adv-x="220" 
 />
    <glyph glyph-name="nbspace" unicode="&#xed8c;" horiz-adv-x="440" 
 />
    <glyph glyph-name="A" unicode="A" horiz-adv-x="568" 
d="M554 0h-263c-6 0 -9 1 -9 6v4c0 6 3 7 9 7h15c13 0 20 2 20 18s-7 44 -20 95l-29 114h-139l-2 -7c-11 -41 -23 -99 -23 -143c0 -51 19 -77 50 -77h19c6 0 9 -1 9 -7v-4c0 -5 -3 -6 -9 -6h-168c-6 0 -9 1 -9 6v4c0 6 3 7 9 7h5c22 0 29 18 51 87c11 34 26 82 39 127
l124 448c2 7 4 9 11 9h82c7 0 9 -1 11 -9l150 -549c28 -103 33 -113 58 -113h9c6 0 9 -1 9 -7v-4c0 -5 -3 -6 -9 -6zM271 267l-61 232h-1l-65 -232h127z" />
    <glyph glyph-name="B" unicode="B" horiz-adv-x="563" 
d="M544 193c0 -154 -118 -193 -224 -193h-294c-6 0 -9 1 -9 6v4c0 6 3 7 9 7h24c18 0 19 3 19 76v489c0 73 -1 76 -19 76h-25c-6 0 -9 1 -9 7v4c0 5 3 6 9 6h306c99 0 184 -42 184 -158c0 -85 -64 -146 -170 -157v-4c113 -3 199 -43 199 -163zM346 510
c0 118 -24 143 -75 143h-33v-288h35c49 0 73 38 73 145zM365 184c0 129 -36 160 -93 160h-34v-322h47c54 0 80 40 80 162z" />
    <glyph glyph-name="C" unicode="C" horiz-adv-x="491" 
d="M455 -5h-3c-6 1 -7 4 -8 10l-1 17c-36 -18 -99 -35 -153 -35c-178 0 -272 149 -272 347c0 217 102 354 272 354c54 0 105 -18 133 -34l2 17c1 6 2 9 8 9h3c5 0 6 -3 6 -9v-222c0 -6 -1 -9 -7 -9h-6c-5 0 -6 3 -6 9v7c0 89 -56 212 -130 212c-60 0 -93 -54 -93 -332
c0 -233 24 -328 101 -328c78 0 145 101 150 217l1 23c0 6 1 8 6 8h5c6 0 7 -3 7 -9l-9 -243c0 -6 -1 -9 -6 -9z" />
    <glyph glyph-name="D" unicode="D" horiz-adv-x="607" 
d="M589 345c0 -223 -112 -345 -263 -345h-300c-6 0 -9 1 -9 6v4c0 6 3 7 9 7h24c19 0 20 3 20 76v489c0 73 -1 76 -20 76h-25c-6 0 -9 1 -9 7v4c0 5 3 6 9 6h287c172 0 277 -108 277 -330zM407 338c0 238 -37 315 -126 315h-42v-631h52c83 0 116 92 116 316z" />
    <glyph glyph-name="E" unicode="E" horiz-adv-x="498" 
d="M453 0h-427c-6 0 -9 1 -9 6v4c0 6 3 7 9 7h24c18 0 19 3 19 76v489c0 73 -1 76 -19 76h-25c-6 0 -9 1 -9 7v4c0 5 3 6 9 6h399c5 0 6 -3 6 -9v-218c0 -6 -1 -9 -8 -9h-4c-5 0 -6 3 -6 9v13c0 98 -44 192 -119 192h-55v-287h34c39 0 64 43 64 100v8c0 6 1 9 6 9h5
c6 0 7 -3 7 -9v-245c0 -6 -1 -9 -7 -9h-5c-5 0 -6 3 -6 9v14c0 57 -25 100 -64 100h-34v-321h82c81 0 125 107 129 191l1 15c0 6 2 9 6 9h5c6 0 7 -3 7 -9l-9 -219c0 -6 -1 -9 -6 -9z" />
    <glyph glyph-name="F" unicode="F" horiz-adv-x="457" 
d="M304 0h-278c-6 0 -9 1 -9 6v4c0 6 3 7 9 7h24c18 0 19 3 19 76v489c0 73 -1 76 -19 76h-25c-6 0 -9 1 -9 7v4c0 5 3 6 9 6h399c5 0 6 -3 6 -9v-230c0 -6 -1 -9 -8 -9h-4c-5 0 -6 3 -6 9v24c0 99 -44 193 -119 193h-55v-307h34c39 0 64 43 64 100v8c0 6 1 9 6 9h5
c6 0 7 -3 7 -9v-254c0 -7 -1 -10 -7 -10h-5c-5 0 -6 3 -6 10v23c0 57 -25 100 -64 100h-34v-230c0 -73 1 -76 19 -76h47c6 0 9 -1 9 -7v-4c0 -5 -3 -6 -9 -6z" />
    <glyph glyph-name="G" unicode="G" horiz-adv-x="554" 
d="M495 -6h-2c-6 0 -7 3 -8 9l-2 19h-2c-36 -15 -113 -35 -185 -35c-183 0 -278 128 -278 347c0 222 102 354 289 354c59 0 113 -16 145 -35l2 18c1 7 3 9 8 9h3c5 0 6 -3 6 -9v-219c0 -6 -2 -9 -7 -9h-6c-4 0 -6 3 -6 9v4c0 85 -57 212 -138 212s-114 -79 -114 -332
c0 -259 15 -329 89 -329c19 0 36 4 54 11v159c0 73 -1 76 -19 76h-40c-6 0 -9 1 -9 7v3c0 5 3 6 9 6h253c6 0 9 -1 9 -6v-3c0 -6 -3 -7 -9 -7h-17c-18 0 -19 -3 -19 -76v-174c0 -6 -1 -9 -6 -9z" />
    <glyph glyph-name="H" unicode="H" horiz-adv-x="623" 
d="M598 0h-257c-6 0 -9 1 -9 6v4c0 6 3 7 9 7h25c18 0 19 3 19 76v256h-147v-256c0 -73 1 -76 19 -76h26c6 0 9 -1 9 -7v-4c0 -5 -3 -6 -9 -6h-257c-6 0 -9 1 -9 6v4c0 6 3 7 9 7h24c18 0 19 3 19 76v489c0 73 -1 76 -19 76h-25c-6 0 -9 1 -9 7v4c0 5 3 6 9 6h258
c6 0 9 -1 9 -6v-4c0 -6 -3 -7 -9 -7h-26c-18 0 -19 -3 -19 -76v-210h147v210c0 73 -1 76 -19 76h-26c-6 0 -9 1 -9 7v4c0 5 3 6 9 6h257c6 0 9 -1 9 -6v-4c0 -6 -3 -7 -9 -7h-25c-17 0 -18 -3 -18 -76v-489c0 -73 1 -76 18 -76h26c6 0 9 -1 9 -7v-4c0 -5 -3 -6 -9 -6z" />
    <glyph glyph-name="I" unicode="I" horiz-adv-x="307" 
d="M282 0h-257c-6 0 -9 1 -9 6v4c0 6 3 7 9 7h25c18 0 19 3 19 76v489c0 73 -1 76 -19 76h-25c-6 0 -9 1 -9 7v4c0 5 3 6 9 6h257c6 0 9 -1 9 -6v-4c0 -6 -3 -7 -9 -7h-25c-18 0 -19 -3 -19 -76v-489c0 -73 1 -76 19 -76h25c6 0 9 -1 9 -7v-4c0 -5 -3 -6 -9 -6z" />
    <glyph glyph-name="J" unicode="J" horiz-adv-x="422" 
d="M143 -13c-75 0 -135 45 -135 105c0 42 26 63 67 63c45 0 62 -27 62 -62c0 -27 -12 -53 -30 -81c5 -3 15 -4 24 -4c39 0 56 31 56 89v485c0 73 -1 76 -19 76h-40c-6 0 -9 1 -9 7v4c0 5 3 6 9 6h272c6 0 9 -1 9 -6v-4c0 -6 -3 -7 -9 -7h-25c-18 0 -19 -3 -19 -76v-412
c0 -119 -81 -183 -213 -183z" />
    <glyph glyph-name="K" unicode="K" horiz-adv-x="594" 
d="M579 0h-194c-8 0 -11 1 -14 11l-112 295c-14 -19 -21 -48 -21 -87v-126c0 -73 1 -76 19 -76h26c6 0 9 -1 9 -7v-4c0 -5 -3 -6 -9 -6h-257c-6 0 -9 1 -9 6v4c0 6 3 7 9 7h24c18 0 19 3 19 76v489c0 73 -1 76 -19 76h-25c-6 0 -9 1 -9 7v4c0 5 3 6 9 6h258c6 0 9 -1 9 -6
v-4c0 -6 -3 -7 -9 -7h-26c-18 0 -19 -3 -19 -76v-270h2c10 30 39 66 130 196c32 45 49 79 49 110c0 28 -15 40 -37 40h-21c-6 0 -9 1 -9 7v4c0 5 3 6 9 6h207c6 0 9 -1 9 -6v-4c0 -6 -3 -7 -9 -7h-8c-41 0 -72 -24 -131 -107l-51 -72l137 -358c38 -96 46 -104 58 -104h6
c6 0 9 -1 9 -7v-4c0 -5 -3 -6 -9 -6z" />
    <glyph glyph-name="L" unicode="L" horiz-adv-x="474" 
d="M447 0h-422c-6 0 -9 1 -9 6v4c0 6 3 7 9 7h25c18 0 19 3 19 76v489c0 73 -1 76 -19 76h-25c-6 0 -9 1 -9 7v4c0 5 3 6 9 6h278c6 0 9 -1 9 -6v-4c0 -6 -3 -7 -9 -7h-46c-18 0 -19 -3 -19 -76v-560h71c76 0 132 90 136 235c0 7 2 9 7 9h5c6 0 7 -3 7 -9l-10 -248
c0 -6 -1 -9 -7 -9z" />
    <glyph glyph-name="M" unicode="M" horiz-adv-x="698" 
d="M673 0h-257c-6 0 -9 1 -9 6v4c0 6 3 7 9 7h25c18 0 19 3 19 76v418h-2l-137 -517c-1 -5 -4 -7 -9 -7h-69c-6 0 -9 1 -10 7l-136 517h-2v-279c0 -171 16 -215 61 -215h16c6 0 9 -1 9 -7v-4c0 -5 -3 -6 -9 -6h-156c-6 0 -9 1 -9 6v4c0 6 3 7 9 7h8c31 0 46 45 46 215v339
c0 79 -6 87 -26 87h-25c-6 0 -9 1 -9 7v4c0 5 3 6 9 6h199c5 0 9 -1 11 -8l119 -471h2l124 471c1 7 5 8 11 8h195c6 0 9 -1 9 -6v-4c0 -6 -3 -7 -9 -7h-25c-20 0 -26 -8 -26 -87v-478c0 -73 1 -76 19 -76h25c6 0 9 -1 9 -7v-4c0 -5 -3 -6 -9 -6z" />
    <glyph glyph-name="N" unicode="N" horiz-adv-x="537" 
d="M458 -13h-78c-5 0 -7 2 -10 7l-273 518h-1v-280c0 -171 26 -215 72 -215h25c6 0 9 -1 9 -7v-4c0 -5 -3 -6 -9 -6h-178c-6 0 -9 1 -9 6v4c0 6 3 7 9 7h7c32 0 49 45 49 215v339c0 79 -6 87 -26 87h-25c-6 0 -9 1 -9 7v4c0 5 3 6 9 6h185c6 0 9 -2 11 -8l225 -431h1v207
c0 171 -26 215 -72 215h-25c-6 0 -9 1 -9 7v4c0 5 3 6 9 6h178c6 0 9 -1 9 -6v-4c0 -6 -3 -7 -9 -7h-8c-32 0 -49 -45 -49 -215v-449c0 -5 -2 -7 -8 -7z" />
    <glyph glyph-name="O" unicode="O" horiz-adv-x="582" 
d="M564 350c0 -213 -108 -363 -276 -363c-167 0 -270 129 -270 338c0 213 108 363 276 363c167 0 270 -129 270 -338zM382 349c0 207 -13 316 -91 316c-75 0 -91 -113 -91 -339c0 -207 14 -315 90 -315c79 0 92 112 92 338z" />
    <glyph glyph-name="P" unicode="P" horiz-adv-x="541" 
d="M304 0h-278c-6 0 -9 1 -9 6v4c0 6 3 7 9 7h24c19 0 20 3 20 76v489c0 73 -1 76 -20 76h-25c-6 0 -9 1 -9 7v4c0 5 3 6 9 6h309c87 0 187 -41 187 -197c0 -142 -87 -202 -202 -202h-80v-183c0 -73 1 -76 18 -76h47c6 0 9 -1 9 -7v-4c0 -5 -3 -6 -9 -6zM273 299
c50 0 74 45 74 178c0 147 -29 176 -75 176h-33v-354h34z" />
    <glyph glyph-name="Q" unicode="Q" horiz-adv-x="582" 
d="M564 350c0 -200 -95 -347 -249 -361v-2c76 -17 97 -43 112 -97c11 -40 17 -55 35 -55c15 0 25 16 29 43c1 6 3 8 7 7l5 -1c5 -1 6 -3 5 -10c-8 -52 -42 -74 -97 -74c-74 0 -108 40 -122 98c-15 66 -19 82 -28 91c-151 13 -243 138 -243 336c0 213 108 363 277 363
c166 0 269 -129 269 -338zM382 349c0 207 -13 316 -90 316c-76 0 -92 -113 -92 -339c0 -207 14 -315 91 -315c78 0 91 112 91 338z" />
    <glyph glyph-name="R" unicode="R" horiz-adv-x="584" 
d="M522 512c0 -86 -61 -149 -185 -156v-4c117 -18 170 -73 170 -204c0 -108 8 -126 27 -126c14 0 23 18 26 43c1 6 3 8 7 7l5 -1c6 -1 6 -3 5 -9c-8 -53 -38 -75 -98 -75c-97 0 -143 61 -143 159c0 150 -9 198 -67 198h-31v-251c0 -73 1 -76 19 -76h26c6 0 9 -1 9 -7v-4
c0 -5 -3 -6 -9 -6h-257c-6 0 -9 1 -9 6v4c0 6 3 7 9 7h24c18 0 19 3 19 76v489c0 73 -1 76 -19 76h-25c-6 0 -9 1 -9 7v4c0 5 3 6 9 6h310c93 0 187 -38 187 -163zM347 510c0 118 -28 143 -74 143h-35v-288h35c51 0 74 39 74 145z" />
    <glyph glyph-name="S" unicode="S" horiz-adv-x="440" 
d="M414 194c0 -123 -88 -207 -215 -207c-54 0 -110 13 -148 35l-1 -17c0 -7 -2 -10 -7 -10h-3c-5 0 -7 3 -7 9l-8 222c0 6 1 9 7 9h5c5 0 6 -2 6 -8l1 -23c2 -84 64 -197 150 -197c51 0 87 33 87 94c0 86 -51 129 -124 183c-64 47 -119 101 -119 205c0 106 64 199 193 199
c45 0 91 -14 125 -34l2 17c1 6 2 9 8 9h3c5 0 6 -3 6 -9v-211c0 -6 -1 -9 -7 -9h-6c-5 0 -6 3 -6 9v15c0 88 -57 193 -124 193c-44 0 -69 -34 -69 -85c0 -74 50 -121 120 -172c68 -50 131 -106 131 -217z" />
    <glyph glyph-name="T" unicode="T" horiz-adv-x="512" 
d="M385 0h-257c-6 0 -9 1 -9 6v4c0 6 3 7 9 7h24c18 0 19 3 19 76v560h-16c-75 0 -119 -94 -119 -193v-24c0 -6 -1 -9 -6 -9h-5c-6 0 -7 3 -7 9v230c0 6 1 9 7 9h462c6 0 7 -3 7 -9v-230c0 -6 -1 -9 -8 -9h-4c-5 0 -6 3 -6 9v24c0 99 -44 193 -119 193h-17v-560
c0 -73 1 -76 19 -76h26c6 0 9 -1 9 -7v-4c0 -5 -3 -6 -9 -6z" />
    <glyph glyph-name="U" unicode="U" horiz-adv-x="532" 
d="M522 658h-7c-31 0 -48 -45 -48 -215v-203c0 -177 -55 -253 -194 -253c-142 0 -208 89 -208 222v373c0 73 -1 76 -19 76h-25c-6 0 -9 1 -9 7v4c0 5 3 6 9 6h257c6 0 9 -1 9 -6v-4c0 -6 -3 -7 -9 -7h-25c-18 0 -19 -3 -19 -76v-344c0 -136 25 -200 102 -200
c71 0 106 56 106 211v194c0 171 -21 215 -68 215h-23c-6 0 -9 1 -9 7v4c0 5 3 6 9 6h171c6 0 9 -1 9 -6v-4c0 -6 -3 -7 -9 -7z" />
    <glyph glyph-name="V" unicode="V" horiz-adv-x="555" 
d="M541 658h-7c-22 0 -28 -15 -51 -87c-10 -33 -23 -81 -35 -127l-121 -448c-1 -6 -3 -9 -10 -9h-83c-7 0 -8 1 -11 9l-142 549c-28 111 -31 113 -57 113h-10c-6 0 -9 1 -9 7v4c0 5 3 6 9 6h265c6 0 9 -1 9 -6v-4c0 -6 -3 -7 -9 -7h-15c-14 0 -20 -2 -20 -20
c0 -15 5 -43 17 -93l90 -375h1l66 263c12 45 22 104 22 148c0 51 -18 77 -49 77h-23c-6 0 -9 1 -9 7v4c0 5 3 6 9 6h173c6 0 9 -1 9 -6v-4c0 -6 -3 -7 -9 -7z" />
    <glyph glyph-name="W" unicode="W" horiz-adv-x="845" 
d="M775 571c-9 -33 -20 -79 -31 -127l-103 -448c-2 -6 -3 -9 -11 -9h-83c-7 0 -8 1 -11 9l-109 472h-2l-122 -472c-1 -6 -3 -9 -10 -9h-84c-6 0 -8 1 -10 9l-124 549c-25 112 -28 113 -53 113h-8c-6 0 -9 1 -9 7v4c0 5 3 6 9 6h264c6 0 9 -1 9 -6v-4c0 -6 -3 -7 -9 -7h-16
c-15 0 -22 -2 -22 -21c0 -17 5 -44 14 -92l71 -369h1l64 257c10 44 20 99 20 144c0 56 -17 81 -48 81h-14c-6 0 -9 1 -9 7v4c0 5 3 6 9 6h245c6 0 9 -1 9 -6v-4c0 -6 -3 -7 -9 -7h-10c-13 0 -21 -2 -21 -20c0 -15 6 -43 16 -93l79 -370h1l57 258c10 45 17 102 17 148
c0 52 -18 77 -49 77h-17c-6 0 -9 1 -9 7v4c0 5 3 6 9 6h165c6 0 9 -1 9 -6v-4c0 -6 -3 -7 -9 -7h-6c-21 0 -30 -14 -50 -87z" />
    <glyph glyph-name="X" unicode="X" horiz-adv-x="562" 
d="M550 0h-275c-5 0 -7 1 -7 6v4c0 6 2 7 7 7h13c13 0 21 3 21 16c0 15 -11 44 -34 97l-65 151h-1l-42 -98c-19 -43 -33 -85 -33 -115c0 -32 11 -51 38 -51h17c5 0 7 -1 7 -7v-4c0 -5 -2 -6 -7 -6h-175c-5 0 -7 1 -7 6v3c0 6 2 7 7 7h5c18 0 31 4 58 47c14 22 30 53 52 98
l70 147l-102 237c-48 110 -51 113 -74 113h-9c-6 0 -9 1 -9 7v4c0 5 3 6 9 6h272c6 0 9 -1 9 -6v-4c0 -6 -3 -7 -9 -7h-11c-13 0 -20 -2 -20 -15c0 -15 10 -44 33 -98l58 -138h1l37 85c18 43 32 85 32 115c0 32 -10 51 -37 51h-15c-6 0 -9 1 -9 7v4c0 5 3 6 9 6h170
c6 0 9 -1 9 -6v-3c0 -6 -3 -7 -9 -7h-3c-18 0 -32 -4 -61 -49c-12 -22 -28 -52 -49 -96l-64 -133l109 -251c47 -111 51 -113 74 -113h10c5 0 8 -1 8 -7v-4c0 -5 -3 -6 -8 -6z" />
    <glyph glyph-name="Y" unicode="Y" horiz-adv-x="548" 
d="M402 0h-257c-6 0 -9 1 -9 6v4c0 6 3 7 9 7h25c18 0 19 3 19 76v219l-97 233c-45 109 -49 113 -73 113h-5c-6 0 -9 1 -9 7v4c0 5 3 6 9 6h268c6 0 9 -1 9 -6v-4c0 -6 -3 -7 -9 -7h-10c-14 0 -21 -3 -21 -16c0 -16 9 -45 31 -97l69 -165h1l43 111c16 44 27 85 27 115
c0 33 -11 52 -39 52h-15c-6 0 -9 1 -9 7v4c0 5 3 6 9 6h166c6 0 9 -1 9 -6v-3c0 -6 -3 -7 -9 -7h-3c-18 0 -30 -5 -54 -50c-11 -21 -26 -53 -45 -96l-74 -176v-244c0 -73 1 -76 18 -76h26c6 0 9 -1 9 -7v-4c0 -5 -3 -6 -9 -6z" />
    <glyph glyph-name="Z" unicode="Z" horiz-adv-x="514" 
d="M471 0h-429c-4 0 -6 3 -6 10v21c0 5 0 9 3 15l241 607h-92c-75 0 -118 -94 -118 -193v-24c0 -6 -1 -9 -6 -9h-5c-7 0 -8 3 -8 9v230c0 6 1 9 7 9h399c5 0 7 -3 7 -10v-23c0 -4 -1 -8 -3 -14l-243 -606h118c78 0 127 110 132 209l1 27c0 6 2 9 7 9h4c6 0 7 -3 7 -10
l-10 -248c0 -6 -1 -9 -6 -9z" />
    <glyph glyph-name="Agrave" unicode="&#xc0;" horiz-adv-x="568" 
d="M554 0h-263c-6 0 -9 1 -9 6v4c0 6 3 7 9 7h15c13 0 20 2 20 18s-7 44 -20 95l-29 114h-139l-2 -7c-11 -41 -23 -99 -23 -143c0 -51 19 -77 50 -77h19c6 0 9 -1 9 -7v-4c0 -5 -3 -6 -9 -6h-168c-6 0 -9 1 -9 6v4c0 6 3 7 9 7h5c22 0 29 18 51 87c11 34 26 82 39 127
l124 448c2 7 4 9 11 9h82c7 0 9 -1 11 -9l150 -549c28 -103 33 -113 58 -113h9c6 0 9 -1 9 -7v-4c0 -5 -3 -6 -9 -6zM271 267l-61 232h-1l-65 -232h127zM254 850l43 -140c2 -6 2 -7 -1 -9l-3 -2c-2 -2 -4 -1 -9 2l-116 87c-24 18 -38 34 -38 58c0 30 31 61 69 61
c26 0 44 -19 55 -57z" />
    <glyph glyph-name="Aacute" unicode="&#xc1;" horiz-adv-x="568" 
d="M554 0h-263c-6 0 -9 1 -9 6v4c0 6 3 7 9 7h15c13 0 20 2 20 18s-7 44 -20 95l-29 114h-139l-2 -7c-11 -41 -23 -99 -23 -143c0 -51 19 -77 50 -77h19c6 0 9 -1 9 -7v-4c0 -5 -3 -6 -9 -6h-168c-6 0 -9 1 -9 6v4c0 6 3 7 9 7h5c22 0 29 18 51 87c11 34 26 82 39 127
l124 448c2 7 4 9 11 9h82c7 0 9 -1 11 -9l150 -549c28 -103 33 -113 58 -113h9c6 0 9 -1 9 -7v-4c0 -5 -3 -6 -9 -6zM271 267l-61 232h-1l-65 -232h127zM400 788l-116 -87c-5 -3 -6 -4 -9 -2l-3 2c-3 1 -3 2 -2 8l44 141c11 38 29 57 55 57c38 0 69 -31 69 -61
c0 -24 -14 -40 -38 -58z" />
    <glyph glyph-name="Acircumflex" unicode="&#xc2;" horiz-adv-x="568" 
d="M554 0h-263c-6 0 -9 1 -9 6v4c0 6 3 7 9 7h15c13 0 20 2 20 18s-7 44 -20 95l-29 114h-139l-2 -7c-11 -41 -23 -99 -23 -143c0 -51 19 -77 50 -77h19c6 0 9 -1 9 -7v-4c0 -5 -3 -6 -9 -6h-168c-6 0 -9 1 -9 6v4c0 6 3 7 9 7h5c22 0 29 18 51 87c11 34 26 82 39 127
l124 448c2 7 4 9 11 9h82c7 0 9 -1 11 -9l150 -549c28 -103 33 -113 58 -113h9c6 0 9 -1 9 -7v-4c0 -5 -3 -6 -9 -6zM271 267l-61 232h-1l-65 -232h127zM342 860l59 -151c2 -4 2 -7 -1 -8l-3 -2c-2 -2 -5 -1 -9 2l-104 94h-1l-104 -94c-5 -3 -8 -4 -10 -2l-2 2
c-3 2 -3 4 -2 8l60 151c13 30 28 47 59 47c30 0 45 -16 58 -47z" />
    <glyph glyph-name="Atilde" unicode="&#xc3;" horiz-adv-x="568" 
d="M554 0h-263c-6 0 -9 1 -9 6v4c0 6 3 7 9 7h15c13 0 20 2 20 18s-7 44 -20 95l-29 114h-139l-2 -7c-11 -41 -23 -99 -23 -143c0 -51 19 -77 50 -77h19c6 0 9 -1 9 -7v-4c0 -5 -3 -6 -9 -6h-168c-6 0 -9 1 -9 6v4c0 6 3 7 9 7h5c22 0 29 18 51 87c11 34 26 82 39 127
l124 448c2 7 4 9 11 9h82c7 0 9 -1 11 -9l150 -549c28 -103 33 -113 58 -113h9c6 0 9 -1 9 -7v-4c0 -5 -3 -6 -9 -6zM271 267l-61 232h-1l-65 -232h127zM402 904c0 -98 -13 -162 -69 -162c-37 0 -79 23 -113 23c-27 0 -40 -22 -40 -51c0 -7 -1 -10 -6 -10h-2
c-6 0 -7 3 -7 10c0 98 12 162 69 162c37 0 79 -24 113 -24c26 0 39 22 39 52c0 7 1 10 7 10h2c6 0 7 -3 7 -10z" />
    <glyph glyph-name="Adieresis" unicode="&#xc4;" horiz-adv-x="568" 
d="M554 0h-263c-6 0 -9 1 -9 6v4c0 6 3 7 9 7h15c13 0 20 2 20 18s-7 44 -20 95l-29 114h-139l-2 -7c-11 -41 -23 -99 -23 -143c0 -51 19 -77 50 -77h19c6 0 9 -1 9 -7v-4c0 -5 -3 -6 -9 -6h-168c-6 0 -9 1 -9 6v4c0 6 3 7 9 7h5c22 0 29 18 51 87c11 34 26 82 39 127
l124 448c2 7 4 9 11 9h82c7 0 9 -1 11 -9l150 -549c28 -103 33 -113 58 -113h9c6 0 9 -1 9 -7v-4c0 -5 -3 -6 -9 -6zM271 267l-61 232h-1l-65 -232h127zM442 811c0 -48 -29 -82 -71 -82h-1c-43 0 -74 33 -74 82c0 48 29 81 73 81c43 0 73 -33 73 -81zM271 811
c0 -48 -29 -82 -71 -82c-44 0 -75 33 -75 82c0 48 29 81 74 81c42 0 72 -33 72 -81z" />
    <glyph glyph-name="Amacron" unicode="&#x100;" horiz-adv-x="568" 
d="M554 0h-263c-6 0 -9 1 -9 6v4c0 6 3 7 9 7h15c13 0 20 2 20 18s-7 44 -20 95l-29 114h-139l-2 -7c-11 -41 -23 -99 -23 -143c0 -51 19 -77 50 -77h19c6 0 9 -1 9 -7v-4c0 -5 -3 -6 -9 -6h-168c-6 0 -9 1 -9 6v4c0 6 3 7 9 7h5c22 0 29 18 51 87c11 34 26 82 39 127
l124 448c2 7 4 9 11 9h82c7 0 9 -1 11 -9l150 -549c28 -103 33 -113 58 -113h9c6 0 9 -1 9 -7v-4c0 -5 -3 -6 -9 -6zM271 267l-61 232h-1l-65 -232h127zM390 763h-213c-7 0 -8 2 -8 9v77c0 7 1 9 8 9h213c7 0 8 -2 8 -9v-77c0 -7 -1 -9 -8 -9z" />
    <glyph glyph-name="Abreve" unicode="&#x102;" horiz-adv-x="568" 
d="M554 0h-263c-6 0 -9 1 -9 6v4c0 6 3 7 9 7h15c13 0 20 2 20 18s-7 44 -20 95l-29 114h-139l-2 -7c-11 -41 -23 -99 -23 -143c0 -51 19 -77 50 -77h19c6 0 9 -1 9 -7v-4c0 -5 -3 -6 -9 -6h-168c-6 0 -9 1 -9 6v4c0 6 3 7 9 7h5c22 0 29 18 51 87c11 34 26 82 39 127
l124 448c2 7 4 9 11 9h82c7 0 9 -1 11 -9l150 -549c28 -103 33 -113 58 -113h9c6 0 9 -1 9 -7v-4c0 -5 -3 -6 -9 -6zM271 267l-61 232h-1l-65 -232h127zM396 895c0 -92 -28 -173 -112 -173s-111 78 -111 173c0 9 1 12 7 12h1c6 0 7 -3 7 -12c0 -41 29 -74 96 -74
s97 33 97 74c0 9 1 12 7 12h1c6 0 7 -3 7 -12z" />
    <glyph glyph-name="Aring" unicode="&#xc5;" horiz-adv-x="568" 
d="M554 0h-263c-6 0 -9 1 -9 6v4c0 6 3 7 9 7h15c13 0 20 2 20 18s-7 44 -20 95l-29 114h-139l-2 -7c-11 -41 -23 -99 -23 -143c0 -51 19 -77 50 -77h19c6 0 9 -1 9 -7v-4c0 -5 -3 -6 -9 -6h-168c-6 0 -9 1 -9 6v4c0 6 3 7 9 7h5c22 0 29 18 51 87c11 34 26 82 39 127
l124 448c2 7 4 9 11 9h82c7 0 9 -1 11 -9l150 -549c28 -103 33 -113 58 -113h9c6 0 9 -1 9 -7v-4c0 -5 -3 -6 -9 -6zM271 267l-61 232h-1l-65 -232h127zM392 817c0 -55 -36 -101 -110 -101c-71 0 -107 39 -107 93s36 98 109 98c71 0 108 -37 108 -90zM313 814
c0 52 -7 79 -30 79c-22 0 -29 -29 -29 -82c0 -52 7 -81 29 -81c23 0 30 30 30 84z" />
    <glyph glyph-name="Aringacute" unicode="&#x1fa;" horiz-adv-x="568" 
d="M554 0h-263c-6 0 -9 1 -9 6v4c0 6 3 7 9 7h15c13 0 20 2 20 18s-7 44 -20 95l-29 114h-139l-2 -7c-11 -41 -23 -99 -23 -143c0 -51 19 -77 50 -77h19c6 0 9 -1 9 -7v-4c0 -5 -3 -6 -9 -6h-168c-6 0 -9 1 -9 6v4c0 6 3 7 9 7h5c22 0 29 18 51 87c11 34 26 82 39 127
l124 448c2 7 4 9 11 9h82c7 0 9 -1 11 -9l150 -549c28 -103 33 -113 58 -113h9c6 0 9 -1 9 -7v-4c0 -5 -3 -6 -9 -6zM271 267l-61 232h-1l-65 -232h127zM392 817c0 -55 -36 -101 -110 -101c-71 0 -107 39 -107 93s36 98 109 98c71 0 108 -37 108 -90zM313 814
c0 52 -7 79 -30 79c-22 0 -29 -29 -29 -82c0 -52 7 -81 29 -81c23 0 30 30 30 84zM403 1012l-116 -87c-5 -3 -6 -4 -9 -2l-3 2c-3 1 -3 2 -2 8l44 141c11 38 29 57 55 57c38 0 69 -31 69 -61c0 -24 -14 -40 -38 -58z" />
    <glyph glyph-name="Aogonek" unicode="&#x104;" horiz-adv-x="568" 
d="M412 -132c-20 -40 -48 -68 -99 -68c-44 0 -78 26 -78 73c0 53 40 92 96 127h-40c-6 0 -9 1 -9 6v4c0 6 3 7 9 7h15c13 0 20 2 20 18s-7 44 -20 95l-29 114h-139l-2 -7c-11 -41 -23 -99 -23 -143c0 -51 19 -77 50 -77h19c6 0 9 -1 9 -7v-4c0 -5 -3 -6 -9 -6h-168
c-6 0 -9 1 -9 6v4c0 6 3 7 9 7h5c22 0 29 18 51 87c11 34 26 82 39 127l124 448c2 7 4 9 11 9h82c7 0 9 -1 11 -9l150 -549c28 -103 33 -113 58 -113h9c6 0 9 -1 9 -7v-4c0 -5 -3 -6 -9 -6h-200c-21 -28 -34 -65 -34 -105c0 -33 11 -51 35 -51c19 0 34 12 44 31c3 5 4 6 7 4
l5 -2c3 -2 3 -4 1 -9zM271 267l-61 232h-1l-65 -232h127z" />
    <glyph glyph-name="AE" unicode="&#xc6;" horiz-adv-x="759" 
d="M714 0h-428c-6 0 -8 1 -8 6v4c0 6 2 7 8 7h26c17 0 18 3 18 76v215h-142l-26 -68c-21 -51 -41 -107 -41 -150c0 -50 12 -73 46 -73h12c6 0 9 -1 9 -7v-4c0 -5 -3 -6 -9 -6h-165c-6 0 -9 2 -9 7v3c0 6 3 7 9 7h3c20 0 30 20 62 88c15 34 36 84 54 129l102 254
c23 56 45 108 44 140c0 19 -8 30 -31 30h-12c-5 0 -8 1 -8 7v4c0 5 3 6 8 6h448c6 0 7 -3 7 -9v-218c0 -6 -1 -9 -8 -9h-4c-5 0 -6 3 -6 9v13c0 98 -44 192 -120 192h-54v-323h34c39 0 64 43 64 100v8c0 7 1 10 6 10h5c6 0 7 -3 7 -10v-244c0 -6 -1 -9 -7 -9h-5
c-5 0 -6 3 -6 9v14c0 56 -25 100 -64 100h-34v-286h83c79 0 124 112 128 191l1 15c0 6 1 9 6 9h5c6 0 7 -3 7 -9l-9 -219c0 -6 -1 -9 -6 -9zM330 330v323h-3l-129 -323h132z" />
    <glyph glyph-name="AEacute" unicode="&#x1fc;" horiz-adv-x="759" 
d="M714 0h-428c-6 0 -8 1 -8 6v4c0 6 2 7 8 7h26c17 0 18 3 18 76v215h-142l-26 -68c-21 -51 -41 -107 -41 -150c0 -50 12 -73 46 -73h12c6 0 9 -1 9 -7v-4c0 -5 -3 -6 -9 -6h-165c-6 0 -9 2 -9 7v3c0 6 3 7 9 7h3c20 0 30 20 62 88c15 34 36 84 54 129l102 254
c23 56 45 108 44 140c0 19 -8 30 -31 30h-12c-5 0 -8 1 -8 7v4c0 5 3 6 8 6h448c6 0 7 -3 7 -9v-218c0 -6 -1 -9 -8 -9h-4c-5 0 -6 3 -6 9v13c0 98 -44 192 -120 192h-54v-323h34c39 0 64 43 64 100v8c0 7 1 10 6 10h5c6 0 7 -3 7 -10v-244c0 -6 -1 -9 -7 -9h-5
c-5 0 -6 3 -6 9v14c0 56 -25 100 -64 100h-34v-286h83c79 0 124 112 128 191l1 15c0 6 1 9 6 9h5c6 0 7 -3 7 -9l-9 -219c0 -6 -1 -9 -6 -9zM330 330v323h-3l-129 -323h132zM540 788l-116 -87c-5 -3 -6 -4 -9 -2l-3 2c-3 1 -3 2 -2 8l44 141c11 38 29 57 55 57
c38 0 69 -31 69 -61c0 -24 -14 -40 -38 -58z" />
    <glyph glyph-name="Cacute" unicode="&#x106;" horiz-adv-x="491" 
d="M455 -5h-3c-6 1 -7 4 -8 10l-1 17c-36 -18 -99 -35 -153 -35c-178 0 -272 149 -272 347c0 217 102 354 272 354c54 0 105 -18 133 -34l2 17c1 6 2 9 8 9h3c5 0 6 -3 6 -9v-222c0 -6 -1 -9 -7 -9h-6c-5 0 -6 3 -6 9v7c0 89 -56 212 -130 212c-60 0 -93 -54 -93 -332
c0 -233 24 -328 101 -328c78 0 145 101 150 217l1 23c0 6 1 8 6 8h5c6 0 7 -3 7 -9l-9 -243c0 -6 -1 -9 -6 -9zM396 788l-116 -87c-5 -3 -6 -4 -9 -2l-3 2c-3 1 -3 2 -2 8l44 141c11 38 29 57 55 57c38 0 69 -31 69 -61c0 -24 -14 -40 -38 -58z" />
    <glyph glyph-name="Ccircumflex" unicode="&#x108;" horiz-adv-x="491" 
d="M455 -5h-3c-6 1 -7 4 -8 10l-1 17c-36 -18 -99 -35 -153 -35c-178 0 -272 149 -272 347c0 217 102 354 272 354c54 0 105 -18 133 -34l2 17c1 6 2 9 8 9h3c5 0 6 -3 6 -9v-222c0 -6 -1 -9 -7 -9h-6c-5 0 -6 3 -6 9v7c0 89 -56 212 -130 212c-60 0 -93 -54 -93 -332
c0 -233 24 -328 101 -328c78 0 145 101 150 217l1 23c0 6 1 8 6 8h5c6 0 7 -3 7 -9l-9 -243c0 -6 -1 -9 -6 -9zM342 860l59 -151c2 -4 2 -7 -1 -8l-3 -2c-2 -2 -5 -1 -9 2l-104 94h-1l-104 -94c-5 -3 -8 -4 -10 -2l-2 2c-3 2 -3 4 -2 8l60 151c13 30 28 47 59 47
c30 0 45 -16 58 -47z" />
    <glyph glyph-name="Ccaron" unicode="&#x10c;" horiz-adv-x="491" 
d="M455 -5h-3c-6 1 -7 4 -8 10l-1 17c-36 -18 -99 -35 -153 -35c-178 0 -272 149 -272 347c0 217 102 354 272 354c54 0 105 -18 133 -34l2 17c1 6 2 9 8 9h3c5 0 6 -3 6 -9v-222c0 -6 -1 -9 -7 -9h-6c-5 0 -6 3 -6 9v7c0 89 -56 212 -130 212c-60 0 -93 -54 -93 -332
c0 -233 24 -328 101 -328c78 0 145 101 150 217l1 23c0 6 1 8 6 8h5c6 0 7 -3 7 -9l-9 -243c0 -6 -1 -9 -6 -9zM342 745c-13 -31 -28 -47 -58 -47c-31 0 -46 17 -59 47l-60 151c-1 4 -1 7 2 8l2 2c3 2 5 1 10 -2l104 -94h1l104 94c4 3 7 4 9 2l3 -2c3 -1 3 -4 1 -8z" />
    <glyph glyph-name="Cdotaccent" unicode="&#x10a;" horiz-adv-x="491" 
d="M455 -5h-3c-6 1 -7 4 -8 10l-1 17c-36 -18 -99 -35 -153 -35c-178 0 -272 149 -272 347c0 217 102 354 272 354c54 0 105 -18 133 -34l2 17c1 6 2 9 8 9h3c5 0 6 -3 6 -9v-222c0 -6 -1 -9 -7 -9h-6c-5 0 -6 3 -6 9v7c0 89 -56 212 -130 212c-60 0 -93 -54 -93 -332
c0 -233 24 -328 101 -328c78 0 145 101 150 217l1 23c0 6 1 8 6 8h5c6 0 7 -3 7 -9l-9 -243c0 -6 -1 -9 -6 -9zM370 805c0 -50 -35 -86 -87 -86c-51 0 -87 34 -87 86c0 49 35 84 87 84s87 -35 87 -84z" />
    <glyph glyph-name="Ccedilla" unicode="&#xc7;" horiz-adv-x="491" 
d="M388 -120c0 -48 -36 -80 -98 -80c-45 0 -68 19 -68 47c0 13 7 23 21 23c13 0 21 -8 21 -20c0 -10 -3 -17 -7 -24c3 -4 9 -6 16 -6c18 0 31 11 31 30c0 25 -21 39 -48 47l-2 4l23 87c-170 7 -259 153 -259 346c0 217 102 354 272 354c54 0 105 -18 133 -34l2 17
c1 6 2 9 8 9h3c5 0 6 -3 6 -9v-222c0 -6 -1 -9 -7 -9h-6c-5 0 -6 3 -6 9v7c0 89 -56 212 -130 212c-60 0 -93 -54 -93 -332c0 -233 24 -328 101 -328c78 0 145 101 150 217l1 23c0 6 1 8 6 8h5c6 0 7 -3 7 -9l-9 -243c0 -6 -1 -9 -6 -9h-3c-6 1 -7 4 -8 10l-1 17
c-34 -17 -93 -33 -145 -35l-5 -17c61 -12 95 -41 95 -90z" />
    <glyph glyph-name="Dcaron" unicode="&#x10e;" horiz-adv-x="607" 
d="M589 345c0 -223 -112 -345 -263 -345h-300c-6 0 -9 1 -9 6v4c0 6 3 7 9 7h24c19 0 20 3 20 76v489c0 73 -1 76 -20 76h-25c-6 0 -9 1 -9 7v4c0 5 3 6 9 6h287c172 0 277 -108 277 -330zM407 338c0 238 -37 315 -126 315h-42v-631h52c83 0 116 92 116 316zM349 745
c-13 -31 -28 -47 -58 -47c-31 0 -46 17 -59 47l-60 151c-1 4 -1 7 2 8l2 2c3 2 5 1 10 -2l104 -94h1l104 94c4 3 7 4 9 2l3 -2c3 -1 3 -4 1 -8z" />
    <glyph glyph-name="Dcroat" unicode="&#x110;" horiz-adv-x="607" 
d="M589 345c0 -223 -112 -345 -263 -345h-300c-6 0 -9 1 -9 6v4c0 6 3 7 9 7h24c19 0 20 3 20 76v256h-44c-7 0 -9 2 -9 8v6c0 6 2 9 9 9h44v210c0 73 -1 76 -20 76h-25c-6 0 -9 1 -9 7v4c0 5 3 6 9 6h287c172 0 277 -108 277 -330zM407 338c0 238 -37 315 -126 315h-42
v-281h76c7 0 10 -3 10 -9v-6c0 -6 -3 -8 -10 -8h-76v-327h52c83 0 116 92 116 316z" />
    <glyph glyph-name="Egrave" unicode="&#xc8;" horiz-adv-x="498" 
d="M453 0h-427c-6 0 -9 1 -9 6v4c0 6 3 7 9 7h24c18 0 19 3 19 76v489c0 73 -1 76 -19 76h-25c-6 0 -9 1 -9 7v4c0 5 3 6 9 6h399c5 0 6 -3 6 -9v-218c0 -6 -1 -9 -8 -9h-4c-5 0 -6 3 -6 9v13c0 98 -44 192 -119 192h-55v-287h34c39 0 64 43 64 100v8c0 6 1 9 6 9h5
c6 0 7 -3 7 -9v-245c0 -6 -1 -9 -7 -9h-5c-5 0 -6 3 -6 9v14c0 57 -25 100 -64 100h-34v-321h82c81 0 125 107 129 191l1 15c0 6 2 9 6 9h5c6 0 7 -3 7 -9l-9 -219c0 -6 -1 -9 -6 -9zM217 850l43 -140c2 -6 2 -7 -1 -9l-3 -2c-2 -2 -4 -1 -9 2l-116 87c-24 18 -38 34 -38 58
c0 30 31 61 69 61c26 0 44 -19 55 -57z" />
    <glyph glyph-name="Eacute" unicode="&#xc9;" horiz-adv-x="498" 
d="M453 0h-427c-6 0 -9 1 -9 6v4c0 6 3 7 9 7h24c18 0 19 3 19 76v489c0 73 -1 76 -19 76h-25c-6 0 -9 1 -9 7v4c0 5 3 6 9 6h399c5 0 6 -3 6 -9v-218c0 -6 -1 -9 -8 -9h-4c-5 0 -6 3 -6 9v13c0 98 -44 192 -119 192h-55v-287h34c39 0 64 43 64 100v8c0 6 1 9 6 9h5
c6 0 7 -3 7 -9v-245c0 -6 -1 -9 -7 -9h-5c-5 0 -6 3 -6 9v14c0 57 -25 100 -64 100h-34v-321h82c81 0 125 107 129 191l1 15c0 6 2 9 6 9h5c6 0 7 -3 7 -9l-9 -219c0 -6 -1 -9 -6 -9zM354 788l-116 -87c-5 -3 -6 -4 -9 -2l-3 2c-3 1 -3 2 -2 8l44 141c11 38 29 57 55 57
c38 0 69 -31 69 -61c0 -24 -14 -40 -38 -58z" />
    <glyph glyph-name="Ecircumflex" unicode="&#xca;" horiz-adv-x="498" 
d="M453 0h-427c-6 0 -9 1 -9 6v4c0 6 3 7 9 7h24c18 0 19 3 19 76v489c0 73 -1 76 -19 76h-25c-6 0 -9 1 -9 7v4c0 5 3 6 9 6h399c5 0 6 -3 6 -9v-218c0 -6 -1 -9 -8 -9h-4c-5 0 -6 3 -6 9v13c0 98 -44 192 -119 192h-55v-287h34c39 0 64 43 64 100v8c0 6 1 9 6 9h5
c6 0 7 -3 7 -9v-245c0 -6 -1 -9 -7 -9h-5c-5 0 -6 3 -6 9v14c0 57 -25 100 -64 100h-34v-321h82c81 0 125 107 129 191l1 15c0 6 2 9 6 9h5c6 0 7 -3 7 -9l-9 -219c0 -6 -1 -9 -6 -9zM300 860l59 -151c2 -4 2 -7 -1 -8l-3 -2c-2 -2 -5 -1 -9 2l-104 94h-1l-104 -94
c-5 -3 -8 -4 -10 -2l-2 2c-3 2 -3 4 -2 8l60 151c13 30 28 47 59 47c30 0 45 -16 58 -47z" />
    <glyph glyph-name="Ecaron" unicode="&#x11a;" horiz-adv-x="498" 
d="M453 0h-427c-6 0 -9 1 -9 6v4c0 6 3 7 9 7h24c18 0 19 3 19 76v489c0 73 -1 76 -19 76h-25c-6 0 -9 1 -9 7v4c0 5 3 6 9 6h399c5 0 6 -3 6 -9v-218c0 -6 -1 -9 -8 -9h-4c-5 0 -6 3 -6 9v13c0 98 -44 192 -119 192h-55v-287h34c39 0 64 43 64 100v8c0 6 1 9 6 9h5
c6 0 7 -3 7 -9v-245c0 -6 -1 -9 -7 -9h-5c-5 0 -6 3 -6 9v14c0 57 -25 100 -64 100h-34v-321h82c81 0 125 107 129 191l1 15c0 6 2 9 6 9h5c6 0 7 -3 7 -9l-9 -219c0 -6 -1 -9 -6 -9zM300 745c-13 -31 -28 -47 -58 -47c-31 0 -46 17 -59 47l-60 151c-1 4 -1 7 2 8l2 2
c3 2 5 1 10 -2l104 -94h1l104 94c4 3 7 4 9 2l3 -2c3 -1 3 -4 1 -8z" />
    <glyph glyph-name="Edieresis" unicode="&#xcb;" horiz-adv-x="498" 
d="M453 0h-427c-6 0 -9 1 -9 6v4c0 6 3 7 9 7h24c18 0 19 3 19 76v489c0 73 -1 76 -19 76h-25c-6 0 -9 1 -9 7v4c0 5 3 6 9 6h399c5 0 6 -3 6 -9v-218c0 -6 -1 -9 -8 -9h-4c-5 0 -6 3 -6 9v13c0 98 -44 192 -119 192h-55v-287h34c39 0 64 43 64 100v8c0 6 1 9 6 9h5
c6 0 7 -3 7 -9v-245c0 -6 -1 -9 -7 -9h-5c-5 0 -6 3 -6 9v14c0 57 -25 100 -64 100h-34v-321h82c81 0 125 107 129 191l1 15c0 6 2 9 6 9h5c6 0 7 -3 7 -9l-9 -219c0 -6 -1 -9 -6 -9zM400 811c0 -48 -29 -82 -71 -82h-1c-43 0 -74 33 -74 82c0 48 29 81 73 81
c43 0 73 -33 73 -81zM229 811c0 -48 -29 -82 -71 -82c-44 0 -75 33 -75 82c0 48 29 81 74 81c42 0 72 -33 72 -81z" />
    <glyph glyph-name="Emacron" unicode="&#x112;" horiz-adv-x="498" 
d="M453 0h-427c-6 0 -9 1 -9 6v4c0 6 3 7 9 7h24c18 0 19 3 19 76v489c0 73 -1 76 -19 76h-25c-6 0 -9 1 -9 7v4c0 5 3 6 9 6h399c5 0 6 -3 6 -9v-218c0 -6 -1 -9 -8 -9h-4c-5 0 -6 3 -6 9v13c0 98 -44 192 -119 192h-55v-287h34c39 0 64 43 64 100v8c0 6 1 9 6 9h5
c6 0 7 -3 7 -9v-245c0 -6 -1 -9 -7 -9h-5c-5 0 -6 3 -6 9v14c0 57 -25 100 -64 100h-34v-321h82c81 0 125 107 129 191l1 15c0 6 2 9 6 9h5c6 0 7 -3 7 -9l-9 -219c0 -6 -1 -9 -6 -9zM348 763h-213c-7 0 -8 2 -8 9v77c0 7 1 9 8 9h213c7 0 8 -2 8 -9v-77c0 -7 -1 -9 -8 -9z
" />
    <glyph glyph-name="Ebreve" unicode="&#x114;" horiz-adv-x="498" 
d="M453 0h-427c-6 0 -9 1 -9 6v4c0 6 3 7 9 7h24c18 0 19 3 19 76v489c0 73 -1 76 -19 76h-25c-6 0 -9 1 -9 7v4c0 5 3 6 9 6h399c5 0 6 -3 6 -9v-218c0 -6 -1 -9 -8 -9h-4c-5 0 -6 3 -6 9v13c0 98 -44 192 -119 192h-55v-287h34c39 0 64 43 64 100v8c0 6 1 9 6 9h5
c6 0 7 -3 7 -9v-245c0 -6 -1 -9 -7 -9h-5c-5 0 -6 3 -6 9v14c0 57 -25 100 -64 100h-34v-321h82c81 0 125 107 129 191l1 15c0 6 2 9 6 9h5c6 0 7 -3 7 -9l-9 -219c0 -6 -1 -9 -6 -9zM354 895c0 -92 -28 -173 -112 -173s-111 78 -111 173c0 9 1 12 7 12h1c6 0 7 -3 7 -12
c0 -41 29 -74 96 -74s97 33 97 74c0 9 1 12 7 12h1c6 0 7 -3 7 -12z" />
    <glyph glyph-name="Edotaccent" unicode="&#x116;" horiz-adv-x="498" 
d="M453 0h-427c-6 0 -9 1 -9 6v4c0 6 3 7 9 7h24c18 0 19 3 19 76v489c0 73 -1 76 -19 76h-25c-6 0 -9 1 -9 7v4c0 5 3 6 9 6h399c5 0 6 -3 6 -9v-218c0 -6 -1 -9 -8 -9h-4c-5 0 -6 3 -6 9v13c0 98 -44 192 -119 192h-55v-287h34c39 0 64 43 64 100v8c0 6 1 9 6 9h5
c6 0 7 -3 7 -9v-245c0 -6 -1 -9 -7 -9h-5c-5 0 -6 3 -6 9v14c0 57 -25 100 -64 100h-34v-321h82c81 0 125 107 129 191l1 15c0 6 2 9 6 9h5c6 0 7 -3 7 -9l-9 -219c0 -6 -1 -9 -6 -9zM328 805c0 -50 -35 -86 -87 -86c-51 0 -87 34 -87 86c0 49 35 84 87 84s87 -35 87 -84z
" />
    <glyph glyph-name="Eogonek" unicode="&#x118;" horiz-adv-x="498" 
d="M456 -132c-20 -40 -48 -68 -99 -68c-44 0 -78 26 -78 73c0 53 40 92 96 127h-349c-6 0 -9 1 -9 6v4c0 6 3 7 9 7h24c18 0 19 3 19 76v489c0 73 -1 76 -19 76h-25c-6 0 -9 1 -9 7v4c0 5 3 6 9 6h399c5 0 6 -3 6 -9v-218c0 -6 -1 -9 -8 -9h-4c-5 0 -6 3 -6 9v13
c0 98 -44 192 -119 192h-55v-287h34c39 0 64 43 64 100v8c0 6 1 9 6 9h5c6 0 7 -3 7 -9v-245c0 -6 -1 -9 -7 -9h-5c-5 0 -6 3 -6 9v14c0 57 -25 100 -64 100h-34v-321h82c81 0 125 107 129 191l1 15c0 6 2 9 6 9h5c6 0 7 -3 7 -9l-9 -219c0 -6 -1 -9 -6 -9h-55
c-21 -28 -34 -65 -34 -105c0 -33 11 -51 35 -51c19 0 34 12 44 31c3 5 4 6 7 4l5 -2c3 -2 3 -4 1 -9z" />
    <glyph glyph-name="fi.cap" unicode="&#xe09f;" horiz-adv-x="770" 
d="M304 0h-278c-6 0 -9 1 -9 6v4c0 6 3 7 9 7h24c18 0 19 3 19 76v489c0 73 -1 76 -19 76h-25c-6 0 -9 1 -9 7v4c0 5 3 6 9 6h399c5 0 6 -3 6 -9v-230c0 -6 -1 -9 -8 -9h-4c-5 0 -6 3 -6 9v24c0 99 -44 193 -119 193h-55v-307h34c39 0 64 43 64 100v8c0 6 1 9 6 9h5
c6 0 7 -3 7 -9v-254c0 -7 -1 -10 -7 -10h-5c-5 0 -6 3 -6 10v23c0 57 -25 100 -64 100h-34v-230c0 -73 1 -76 19 -76h47c6 0 9 -1 9 -7v-4c0 -5 -3 -6 -9 -6zM741 0h-257c-6 0 -9 1 -9 6v4c0 6 3 7 9 7h25c18 0 19 3 19 76v489c0 73 -1 76 -19 76h-25c-6 0 -9 1 -9 7v4
c0 5 3 6 9 6h257c6 0 9 -1 9 -6v-4c0 -6 -3 -7 -9 -7h-25c-18 0 -19 -3 -19 -76v-489c0 -73 1 -76 19 -76h25c6 0 9 -1 9 -7v-4c0 -5 -3 -6 -9 -6z" />
    <glyph glyph-name="fl.cap" unicode="&#xe0a0;" horiz-adv-x="932" 
d="M304 0h-278c-6 0 -9 1 -9 6v4c0 6 3 7 9 7h24c18 0 19 3 19 76v489c0 73 -1 76 -19 76h-25c-6 0 -9 1 -9 7v4c0 5 3 6 9 6h399c5 0 6 -3 6 -9v-230c0 -6 -1 -9 -8 -9h-4c-5 0 -6 3 -6 9v24c0 99 -44 193 -119 193h-55v-307h34c39 0 64 43 64 100v8c0 6 1 9 6 9h5
c6 0 7 -3 7 -9v-254c0 -7 -1 -10 -7 -10h-5c-5 0 -6 3 -6 10v23c0 57 -25 100 -64 100h-34v-230c0 -73 1 -76 19 -76h47c6 0 9 -1 9 -7v-4c0 -5 -3 -6 -9 -6zM905 0h-422c-6 0 -9 1 -9 6v4c0 6 3 7 9 7h25c18 0 19 3 19 76v489c0 73 -1 76 -19 76h-25c-6 0 -9 1 -9 7v4
c0 5 3 6 9 6h278c6 0 9 -1 9 -6v-4c0 -6 -3 -7 -9 -7h-46c-18 0 -19 -3 -19 -76v-560h71c76 0 132 90 136 235c0 7 2 9 7 9h5c6 0 7 -3 7 -9l-10 -248c0 -6 -1 -9 -7 -9z" />
    <glyph glyph-name="Gcircumflex" unicode="&#x11c;" horiz-adv-x="554" 
d="M495 -6h-2c-6 0 -7 3 -8 9l-2 19h-2c-36 -15 -113 -35 -185 -35c-183 0 -278 128 -278 347c0 222 102 354 289 354c59 0 113 -16 145 -35l2 18c1 7 3 9 8 9h3c5 0 6 -3 6 -9v-219c0 -6 -2 -9 -7 -9h-6c-4 0 -6 3 -6 9v4c0 85 -57 212 -138 212s-114 -79 -114 -332
c0 -259 15 -329 89 -329c19 0 36 4 54 11v159c0 73 -1 76 -19 76h-40c-6 0 -9 1 -9 7v3c0 5 3 6 9 6h253c6 0 9 -1 9 -6v-3c0 -6 -3 -7 -9 -7h-17c-18 0 -19 -3 -19 -76v-174c0 -6 -1 -9 -6 -9zM356 860l59 -151c2 -4 2 -7 -1 -8l-3 -2c-2 -2 -5 -1 -9 2l-104 94h-1
l-104 -94c-5 -3 -8 -4 -10 -2l-2 2c-3 2 -3 4 -2 8l60 151c13 30 28 47 59 47c30 0 45 -16 58 -47z" />
    <glyph glyph-name="Gbreve" unicode="&#x11e;" horiz-adv-x="554" 
d="M495 -6h-2c-6 0 -7 3 -8 9l-2 19h-2c-36 -15 -113 -35 -185 -35c-183 0 -278 128 -278 347c0 222 102 354 289 354c59 0 113 -16 145 -35l2 18c1 7 3 9 8 9h3c5 0 6 -3 6 -9v-219c0 -6 -2 -9 -7 -9h-6c-4 0 -6 3 -6 9v4c0 85 -57 212 -138 212s-114 -79 -114 -332
c0 -259 15 -329 89 -329c19 0 36 4 54 11v159c0 73 -1 76 -19 76h-40c-6 0 -9 1 -9 7v3c0 5 3 6 9 6h253c6 0 9 -1 9 -6v-3c0 -6 -3 -7 -9 -7h-17c-18 0 -19 -3 -19 -76v-174c0 -6 -1 -9 -6 -9zM408 895c0 -92 -28 -173 -112 -173s-111 78 -111 173c0 9 1 12 7 12h1
c6 0 7 -3 7 -12c0 -41 29 -74 96 -74s97 33 97 74c0 9 1 12 7 12h1c6 0 7 -3 7 -12z" />
    <glyph glyph-name="Gdotaccent" unicode="&#x120;" horiz-adv-x="554" 
d="M495 -6h-2c-6 0 -7 3 -8 9l-2 19h-2c-36 -15 -113 -35 -185 -35c-183 0 -278 128 -278 347c0 222 102 354 289 354c59 0 113 -16 145 -35l2 18c1 7 3 9 8 9h3c5 0 6 -3 6 -9v-219c0 -6 -2 -9 -7 -9h-6c-4 0 -6 3 -6 9v4c0 85 -57 212 -138 212s-114 -79 -114 -332
c0 -259 15 -329 89 -329c19 0 36 4 54 11v159c0 73 -1 76 -19 76h-40c-6 0 -9 1 -9 7v3c0 5 3 6 9 6h253c6 0 9 -1 9 -6v-3c0 -6 -3 -7 -9 -7h-17c-18 0 -19 -3 -19 -76v-174c0 -6 -1 -9 -6 -9zM384 805c0 -50 -35 -86 -87 -86c-51 0 -87 34 -87 86c0 49 35 84 87 84
s87 -35 87 -84z" />
    <glyph glyph-name="Gcommaaccent" unicode="&#x122;" horiz-adv-x="554" 
d="M495 -6h-2c-6 0 -7 3 -8 9l-2 19h-2c-36 -15 -113 -35 -185 -35c-183 0 -278 128 -278 347c0 222 102 354 289 354c59 0 113 -16 145 -35l2 18c1 7 3 9 8 9h3c5 0 6 -3 6 -9v-219c0 -6 -2 -9 -7 -9h-6c-4 0 -6 3 -6 9v4c0 85 -57 212 -138 212s-114 -79 -114 -332
c0 -259 15 -329 89 -329c19 0 36 4 54 11v159c0 73 -1 76 -19 76h-40c-6 0 -9 1 -9 7v3c0 5 3 6 9 6h253c6 0 9 -1 9 -6v-3c0 -6 -3 -7 -9 -7h-17c-18 0 -19 -3 -19 -76v-174c0 -6 -1 -9 -6 -9zM357 -89c0 -46 -25 -80 -54 -106c-6 -6 -8 -6 -12 -3l-5 6c-4 2 -5 5 0 9
c22 19 41 44 46 70l-1 1c-10 -12 -26 -24 -48 -24c-26 0 -51 20 -51 54c0 37 22 54 60 54c40 0 65 -17 65 -61z" />
    <glyph glyph-name="Hcircumflex" unicode="&#x124;" horiz-adv-x="623" 
d="M598 0h-257c-6 0 -9 1 -9 6v4c0 6 3 7 9 7h25c18 0 19 3 19 76v256h-147v-256c0 -73 1 -76 19 -76h26c6 0 9 -1 9 -7v-4c0 -5 -3 -6 -9 -6h-257c-6 0 -9 1 -9 6v4c0 6 3 7 9 7h24c18 0 19 3 19 76v489c0 73 -1 76 -19 76h-25c-6 0 -9 1 -9 7v4c0 5 3 6 9 6h258
c6 0 9 -1 9 -6v-4c0 -6 -3 -7 -9 -7h-26c-18 0 -19 -3 -19 -76v-210h147v210c0 73 -1 76 -19 76h-26c-6 0 -9 1 -9 7v4c0 5 3 6 9 6h257c6 0 9 -1 9 -6v-4c0 -6 -3 -7 -9 -7h-25c-17 0 -18 -3 -18 -76v-489c0 -73 1 -76 18 -76h26c6 0 9 -1 9 -7v-4c0 -5 -3 -6 -9 -6z
M369 860l59 -151c2 -4 2 -7 -1 -8l-3 -2c-2 -2 -5 -1 -9 2l-104 94h-1l-104 -94c-5 -3 -8 -4 -10 -2l-2 2c-3 2 -3 4 -2 8l60 151c13 30 28 47 59 47c30 0 45 -16 58 -47z" />
    <glyph glyph-name="Hbar" unicode="&#x126;" horiz-adv-x="623" 
d="M598 0h-257c-6 0 -9 1 -9 6v4c0 6 3 7 9 7h25c18 0 19 3 19 76v256h-147v-256c0 -73 1 -76 19 -76h26c6 0 9 -1 9 -7v-4c0 -5 -3 -6 -9 -6h-257c-6 0 -9 1 -9 6v4c0 6 3 7 9 7h24c18 0 19 3 19 76v403h-38c-7 0 -10 2 -10 8v6c0 6 3 8 10 8h38v64c0 73 -1 76 -19 76h-25
c-6 0 -9 1 -9 7v4c0 5 3 6 9 6h258c6 0 9 -1 9 -6v-4c0 -6 -3 -7 -9 -7h-26c-18 0 -19 -3 -19 -76v-64h147v64c0 73 -1 76 -19 76h-26c-6 0 -9 1 -9 7v4c0 5 3 6 9 6h257c6 0 9 -1 9 -6v-4c0 -6 -3 -7 -9 -7h-25c-17 0 -18 -3 -18 -76v-64h38c7 0 10 -2 10 -9v-5
c0 -6 -3 -8 -10 -8h-38v-403c0 -73 1 -76 18 -76h26c6 0 9 -1 9 -7v-4c0 -5 -3 -6 -9 -6zM238 372h147v124h-147v-124z" />
    <glyph glyph-name="Igrave" unicode="&#xcc;" horiz-adv-x="307" 
d="M282 0h-257c-6 0 -9 1 -9 6v4c0 6 3 7 9 7h25c18 0 19 3 19 76v489c0 73 -1 76 -19 76h-25c-6 0 -9 1 -9 7v4c0 5 3 6 9 6h257c6 0 9 -1 9 -6v-4c0 -6 -3 -7 -9 -7h-25c-18 0 -19 -3 -19 -76v-489c0 -73 1 -76 19 -76h25c6 0 9 -1 9 -7v-4c0 -5 -3 -6 -9 -6zM126 850
l43 -140c2 -6 2 -7 -1 -9l-3 -2c-2 -2 -4 -1 -9 2l-116 87c-24 18 -38 34 -38 58c0 30 31 61 69 61c26 0 44 -19 55 -57z" />
    <glyph glyph-name="Iacute" unicode="&#xcd;" horiz-adv-x="307" 
d="M282 0h-257c-6 0 -9 1 -9 6v4c0 6 3 7 9 7h25c18 0 19 3 19 76v489c0 73 -1 76 -19 76h-25c-6 0 -9 1 -9 7v4c0 5 3 6 9 6h257c6 0 9 -1 9 -6v-4c0 -6 -3 -7 -9 -7h-25c-18 0 -19 -3 -19 -76v-489c0 -73 1 -76 19 -76h25c6 0 9 -1 9 -7v-4c0 -5 -3 -6 -9 -6zM267 788
l-116 -87c-5 -3 -6 -4 -9 -2l-3 2c-3 1 -3 2 -2 8l44 141c11 38 29 57 55 57c38 0 69 -31 69 -61c0 -24 -14 -40 -38 -58z" />
    <glyph glyph-name="Icircumflex" unicode="&#xce;" horiz-adv-x="307" 
d="M282 0h-257c-6 0 -9 1 -9 6v4c0 6 3 7 9 7h25c18 0 19 3 19 76v489c0 73 -1 76 -19 76h-25c-6 0 -9 1 -9 7v4c0 5 3 6 9 6h257c6 0 9 -1 9 -6v-4c0 -6 -3 -7 -9 -7h-25c-18 0 -19 -3 -19 -76v-489c0 -73 1 -76 19 -76h25c6 0 9 -1 9 -7v-4c0 -5 -3 -6 -9 -6zM212 860
l59 -151c2 -4 2 -7 -1 -8l-3 -2c-2 -2 -5 -1 -9 2l-104 94h-1l-104 -94c-5 -3 -8 -4 -10 -2l-2 2c-3 2 -3 4 -2 8l60 151c13 30 28 47 59 47c30 0 45 -16 58 -47z" />
    <glyph glyph-name="Itilde" unicode="&#x128;" horiz-adv-x="307" 
d="M282 0h-257c-6 0 -9 1 -9 6v4c0 6 3 7 9 7h25c18 0 19 3 19 76v489c0 73 -1 76 -19 76h-25c-6 0 -9 1 -9 7v4c0 5 3 6 9 6h257c6 0 9 -1 9 -6v-4c0 -6 -3 -7 -9 -7h-25c-18 0 -19 -3 -19 -76v-489c0 -73 1 -76 19 -76h25c6 0 9 -1 9 -7v-4c0 -5 -3 -6 -9 -6zM272 904
c0 -98 -13 -162 -69 -162c-37 0 -79 23 -113 23c-27 0 -40 -22 -40 -51c0 -7 -1 -10 -6 -10h-2c-6 0 -7 3 -7 10c0 98 12 162 69 162c37 0 79 -24 113 -24c26 0 39 22 39 52c0 7 1 10 7 10h2c6 0 7 -3 7 -10z" />
    <glyph glyph-name="Idieresis" unicode="&#xcf;" horiz-adv-x="307" 
d="M282 0h-257c-6 0 -9 1 -9 6v4c0 6 3 7 9 7h25c18 0 19 3 19 76v489c0 73 -1 76 -19 76h-25c-6 0 -9 1 -9 7v4c0 5 3 6 9 6h257c6 0 9 -1 9 -6v-4c0 -6 -3 -7 -9 -7h-25c-18 0 -19 -3 -19 -76v-489c0 -73 1 -76 19 -76h25c6 0 9 -1 9 -7v-4c0 -5 -3 -6 -9 -6zM312 811
c0 -48 -29 -82 -71 -82h-1c-43 0 -74 33 -74 82c0 48 29 81 73 81c43 0 73 -33 73 -81zM141 811c0 -48 -29 -82 -71 -82c-44 0 -75 33 -75 82c0 48 29 81 74 81c42 0 72 -33 72 -81z" />
    <glyph glyph-name="Imacron" unicode="&#x12a;" horiz-adv-x="307" 
d="M282 0h-257c-6 0 -9 1 -9 6v4c0 6 3 7 9 7h25c18 0 19 3 19 76v489c0 73 -1 76 -19 76h-25c-6 0 -9 1 -9 7v4c0 5 3 6 9 6h257c6 0 9 -1 9 -6v-4c0 -6 -3 -7 -9 -7h-25c-18 0 -19 -3 -19 -76v-489c0 -73 1 -76 19 -76h25c6 0 9 -1 9 -7v-4c0 -5 -3 -6 -9 -6zM260 763
h-213c-7 0 -8 2 -8 9v77c0 7 1 9 8 9h213c7 0 8 -2 8 -9v-77c0 -7 -1 -9 -8 -9z" />
    <glyph glyph-name="Ibreve" unicode="&#x12c;" horiz-adv-x="307" 
d="M282 0h-257c-6 0 -9 1 -9 6v4c0 6 3 7 9 7h25c18 0 19 3 19 76v489c0 73 -1 76 -19 76h-25c-6 0 -9 1 -9 7v4c0 5 3 6 9 6h257c6 0 9 -1 9 -6v-4c0 -6 -3 -7 -9 -7h-25c-18 0 -19 -3 -19 -76v-489c0 -73 1 -76 19 -76h25c6 0 9 -1 9 -7v-4c0 -5 -3 -6 -9 -6zM266 895
c0 -92 -28 -173 -112 -173s-111 78 -111 173c0 9 1 12 7 12h1c6 0 7 -3 7 -12c0 -41 29 -74 96 -74s97 33 97 74c0 9 1 12 7 12h1c6 0 7 -3 7 -12z" />
    <glyph glyph-name="Idotaccent" unicode="&#x130;" horiz-adv-x="307" 
d="M282 0h-257c-6 0 -9 1 -9 6v4c0 6 3 7 9 7h25c18 0 19 3 19 76v489c0 73 -1 76 -19 76h-25c-6 0 -9 1 -9 7v4c0 5 3 6 9 6h257c6 0 9 -1 9 -6v-4c0 -6 -3 -7 -9 -7h-25c-18 0 -19 -3 -19 -76v-489c0 -73 1 -76 19 -76h25c6 0 9 -1 9 -7v-4c0 -5 -3 -6 -9 -6zM240 805
c0 -50 -35 -86 -87 -86c-51 0 -87 34 -87 86c0 49 35 84 87 84s87 -35 87 -84z" />
    <glyph glyph-name="Iogonek" unicode="&#x12e;" horiz-adv-x="307" 
d="M223 -132c-20 -40 -48 -68 -99 -68c-44 0 -78 26 -78 73c0 53 40 92 96 127h-117c-6 0 -9 1 -9 6v4c0 6 3 7 9 7h25c18 0 19 3 19 76v489c0 73 -1 76 -19 76h-25c-6 0 -9 1 -9 7v4c0 5 3 6 9 6h257c6 0 9 -1 9 -6v-4c0 -6 -3 -7 -9 -7h-25c-18 0 -19 -3 -19 -76v-489
c0 -73 1 -76 19 -76h25c6 0 9 -1 9 -7v-4c0 -5 -3 -6 -9 -6h-117c-21 -28 -34 -65 -34 -105c0 -33 11 -51 35 -51c19 0 34 12 44 31c3 5 4 6 7 4l5 -2c3 -2 3 -4 1 -9z" />
    <glyph glyph-name="IJ" unicode="&#x132;" horiz-adv-x="735" 
d="M283 0h-257c-6 0 -9 1 -9 6v4c0 6 3 7 9 7h25c18 0 19 3 19 76v489c0 73 -1 76 -19 76h-25c-6 0 -9 1 -9 7v4c0 5 3 6 9 6h257c6 0 9 -1 9 -6v-4c0 -6 -3 -7 -9 -7h-25c-18 0 -19 -3 -19 -76v-489c0 -73 1 -76 19 -76h25c6 0 9 -1 9 -7v-4c0 -5 -3 -6 -9 -6zM454 -13
c-75 0 -135 45 -135 105c0 42 26 63 67 63c45 0 62 -27 62 -62c0 -27 -12 -53 -30 -81c5 -3 15 -4 24 -4c39 0 56 31 56 89v485c0 73 -1 76 -19 76h-40c-6 0 -9 1 -9 7v4c0 5 3 6 9 6h272c6 0 9 -1 9 -6v-4c0 -6 -3 -7 -9 -7h-25c-18 0 -19 -3 -19 -76v-412
c0 -119 -81 -183 -213 -183z" />
    <glyph glyph-name="Jcircumflex" unicode="&#x134;" horiz-adv-x="423" 
d="M143 -13c-75 0 -135 45 -135 105c0 42 26 63 67 63c45 0 62 -27 62 -62c0 -27 -12 -53 -30 -81c5 -3 15 -4 24 -4c39 0 56 31 56 89v485c0 73 -1 76 -19 76h-40c-6 0 -9 1 -9 7v4c0 5 3 6 9 6h272c6 0 9 -1 9 -6v-4c0 -6 -3 -7 -9 -7h-25c-18 0 -19 -3 -19 -76v-412
c0 -119 -81 -183 -213 -183zM329 860l59 -151c2 -4 2 -7 -1 -8l-3 -2c-2 -2 -5 -1 -9 2l-104 94h-1l-104 -94c-5 -3 -8 -4 -10 -2l-2 2c-3 2 -3 4 -2 8l60 151c13 30 28 47 59 47c30 0 45 -16 58 -47z" />
    <glyph glyph-name="Kcommaaccent" unicode="&#x136;" horiz-adv-x="594" 
d="M579 0h-194c-8 0 -11 1 -14 11l-112 295c-14 -19 -21 -48 -21 -87v-126c0 -73 1 -76 19 -76h26c6 0 9 -1 9 -7v-4c0 -5 -3 -6 -9 -6h-257c-6 0 -9 1 -9 6v4c0 6 3 7 9 7h24c18 0 19 3 19 76v489c0 73 -1 76 -19 76h-25c-6 0 -9 1 -9 7v4c0 5 3 6 9 6h258c6 0 9 -1 9 -6
v-4c0 -6 -3 -7 -9 -7h-26c-18 0 -19 -3 -19 -76v-270h2c10 30 39 66 130 196c32 45 49 79 49 110c0 28 -15 40 -37 40h-21c-6 0 -9 1 -9 7v4c0 5 3 6 9 6h207c6 0 9 -1 9 -6v-4c0 -6 -3 -7 -9 -7h-8c-41 0 -72 -24 -131 -107l-51 -72l137 -358c38 -96 46 -104 58 -104h6
c6 0 9 -1 9 -7v-4c0 -5 -3 -6 -9 -6zM378 -89c0 -46 -25 -80 -54 -106c-6 -6 -8 -6 -12 -3l-5 6c-4 2 -5 5 0 9c22 19 41 44 46 70l-1 1c-10 -12 -26 -24 -48 -24c-26 0 -51 20 -51 54c0 37 22 54 60 54c40 0 65 -17 65 -61z" />
    <glyph glyph-name="Lacute" unicode="&#x139;" horiz-adv-x="474" 
d="M447 0h-422c-6 0 -9 1 -9 6v4c0 6 3 7 9 7h25c18 0 19 3 19 76v489c0 73 -1 76 -19 76h-25c-6 0 -9 1 -9 7v4c0 5 3 6 9 6h278c6 0 9 -1 9 -6v-4c0 -6 -3 -7 -9 -7h-46c-18 0 -19 -3 -19 -76v-560h71c76 0 132 90 136 235c0 7 2 9 7 9h5c6 0 7 -3 7 -9l-10 -248
c0 -6 -1 -9 -7 -9zM266 788l-116 -87c-5 -3 -6 -4 -9 -2l-3 2c-3 1 -3 2 -2 8l44 141c11 38 29 57 55 57c38 0 69 -31 69 -61c0 -24 -14 -40 -38 -58z" />
    <glyph glyph-name="Lcaron" unicode="&#x13d;" horiz-adv-x="473" 
d="M447 0h-422c-6 0 -9 1 -9 6v4c0 6 3 7 9 7h25c18 0 19 3 19 76v489c0 73 -1 76 -19 76h-25c-6 0 -9 1 -9 7v4c0 5 3 6 9 6h278c6 0 9 -1 9 -6v-4c0 -6 -3 -7 -9 -7h-46c-18 0 -19 -3 -19 -76v-560h71c76 0 132 90 136 235c0 7 2 9 7 9h5c6 0 7 -3 7 -9l-10 -248
c0 -6 -1 -9 -7 -9zM400 753c25 0 57 -18 57 -49c0 -22 -11 -39 -27 -57l-77 -85c-4 -5 -6 -5 -10 -4l-2 1c-3 1 -3 3 -3 10l11 118c4 39 16 66 51 66z" />
    <glyph glyph-name="Lcommaaccent" unicode="&#x13b;" horiz-adv-x="474" 
d="M447 0h-422c-6 0 -9 1 -9 6v4c0 6 3 7 9 7h25c18 0 19 3 19 76v489c0 73 -1 76 -19 76h-25c-6 0 -9 1 -9 7v4c0 5 3 6 9 6h278c6 0 9 -1 9 -6v-4c0 -6 -3 -7 -9 -7h-46c-18 0 -19 -3 -19 -76v-560h71c76 0 132 90 136 235c0 7 2 9 7 9h5c6 0 7 -3 7 -9l-10 -248
c0 -6 -1 -9 -7 -9zM311 -89c0 -46 -25 -80 -54 -106c-6 -6 -8 -6 -12 -3l-5 6c-4 2 -5 5 0 9c22 19 41 44 46 70l-1 1c-10 -12 -26 -24 -48 -24c-26 0 -51 20 -51 54c0 37 22 54 60 54c40 0 65 -17 65 -61z" />
    <glyph glyph-name="Lslash" unicode="&#x141;" horiz-adv-x="474" 
d="M447 0h-422c-6 0 -9 1 -9 6v4c0 6 3 7 9 7h25c18 0 19 3 19 76v181l-34 -20c-8 -5 -10 -4 -15 3l-3 4c-3 6 -3 9 4 13l48 29v279c0 73 -1 76 -19 76h-25c-6 0 -9 1 -9 7v4c0 5 3 6 9 6h278c6 0 9 -1 9 -6v-4c0 -6 -3 -7 -9 -7h-46c-18 0 -19 -3 -19 -76v-177l124 76
c7 3 9 5 13 0l4 -7c4 -6 3 -9 -2 -12l-139 -85v-355h71c76 0 132 90 136 235c0 7 2 9 7 9h5c6 0 7 -3 7 -9l-10 -248c0 -6 -1 -9 -7 -9z" />
    <glyph glyph-name="Ldot" unicode="&#x13f;" horiz-adv-x="474" 
d="M447 0h-422c-6 0 -9 1 -9 6v4c0 6 3 7 9 7h25c18 0 19 3 19 76v489c0 73 -1 76 -19 76h-25c-6 0 -9 1 -9 7v4c0 5 3 6 9 6h278c6 0 9 -1 9 -6v-4c0 -6 -3 -7 -9 -7h-46c-18 0 -19 -3 -19 -76v-560h71c76 0 132 90 136 235c0 7 2 9 7 9h5c6 0 7 -3 7 -9l-10 -248
c0 -6 -1 -9 -7 -9zM474 425c0 -53 -35 -92 -84 -92s-84 39 -84 92s35 91 85 91c48 0 83 -38 83 -91z" />
    <glyph glyph-name="Nacute" unicode="&#x143;" horiz-adv-x="537" 
d="M458 -13h-78c-5 0 -7 2 -10 7l-273 518h-1v-280c0 -171 26 -215 72 -215h25c6 0 9 -1 9 -7v-4c0 -5 -3 -6 -9 -6h-178c-6 0 -9 1 -9 6v4c0 6 3 7 9 7h7c32 0 49 45 49 215v339c0 79 -6 87 -26 87h-25c-6 0 -9 1 -9 7v4c0 5 3 6 9 6h185c6 0 9 -2 11 -8l225 -431h1v207
c0 171 -26 215 -72 215h-25c-6 0 -9 1 -9 7v4c0 5 3 6 9 6h178c6 0 9 -1 9 -6v-4c0 -6 -3 -7 -9 -7h-8c-32 0 -49 -45 -49 -215v-449c0 -5 -2 -7 -8 -7zM386 788l-116 -87c-5 -3 -6 -4 -9 -2l-3 2c-3 1 -3 2 -2 8l44 141c11 38 29 57 55 57c38 0 69 -31 69 -61
c0 -24 -14 -40 -38 -58z" />
    <glyph glyph-name="Ncaron" unicode="&#x147;" horiz-adv-x="537" 
d="M458 -13h-78c-5 0 -7 2 -10 7l-273 518h-1v-280c0 -171 26 -215 72 -215h25c6 0 9 -1 9 -7v-4c0 -5 -3 -6 -9 -6h-178c-6 0 -9 1 -9 6v4c0 6 3 7 9 7h7c32 0 49 45 49 215v339c0 79 -6 87 -26 87h-25c-6 0 -9 1 -9 7v4c0 5 3 6 9 6h185c6 0 9 -2 11 -8l225 -431h1v207
c0 171 -26 215 -72 215h-25c-6 0 -9 1 -9 7v4c0 5 3 6 9 6h178c6 0 9 -1 9 -6v-4c0 -6 -3 -7 -9 -7h-8c-32 0 -49 -45 -49 -215v-449c0 -5 -2 -7 -8 -7zM335 745c-13 -31 -28 -47 -58 -47c-31 0 -46 17 -59 47l-60 151c-1 4 -1 7 2 8l2 2c3 2 5 1 10 -2l104 -94h1l104 94
c4 3 7 4 9 2l3 -2c3 -1 3 -4 1 -8z" />
    <glyph glyph-name="Ntilde" unicode="&#xd1;" horiz-adv-x="537" 
d="M458 -13h-78c-5 0 -7 2 -10 7l-273 518h-1v-280c0 -171 26 -215 72 -215h25c6 0 9 -1 9 -7v-4c0 -5 -3 -6 -9 -6h-178c-6 0 -9 1 -9 6v4c0 6 3 7 9 7h7c32 0 49 45 49 215v339c0 79 -6 87 -26 87h-25c-6 0 -9 1 -9 7v4c0 5 3 6 9 6h185c6 0 9 -2 11 -8l225 -431h1v207
c0 171 -26 215 -72 215h-25c-6 0 -9 1 -9 7v4c0 5 3 6 9 6h178c6 0 9 -1 9 -6v-4c0 -6 -3 -7 -9 -7h-8c-32 0 -49 -45 -49 -215v-449c0 -5 -2 -7 -8 -7zM395 904c0 -98 -13 -162 -69 -162c-37 0 -79 23 -113 23c-27 0 -40 -22 -40 -51c0 -7 -1 -10 -6 -10h-2
c-6 0 -7 3 -7 10c0 98 12 162 69 162c37 0 79 -24 113 -24c26 0 39 22 39 52c0 7 1 10 7 10h2c6 0 7 -3 7 -10z" />
    <glyph glyph-name="Ncommaaccent" unicode="&#x145;" horiz-adv-x="537" 
d="M458 -13h-78c-5 0 -7 2 -10 7l-273 518h-1v-280c0 -171 26 -215 72 -215h25c6 0 9 -1 9 -7v-4c0 -5 -3 -6 -9 -6h-178c-6 0 -9 1 -9 6v4c0 6 3 7 9 7h7c32 0 49 45 49 215v339c0 79 -6 87 -26 87h-25c-6 0 -9 1 -9 7v4c0 5 3 6 9 6h185c6 0 9 -2 11 -8l225 -431h1v207
c0 171 -26 215 -72 215h-25c-6 0 -9 1 -9 7v4c0 5 3 6 9 6h178c6 0 9 -1 9 -6v-4c0 -6 -3 -7 -9 -7h-8c-32 0 -49 -45 -49 -215v-449c0 -5 -2 -7 -8 -7zM335 -89c0 -46 -25 -80 -54 -106c-6 -6 -8 -6 -12 -3l-5 6c-4 2 -5 5 0 9c22 19 41 44 46 70l-1 1
c-10 -12 -26 -24 -48 -24c-26 0 -51 20 -51 54c0 37 22 54 60 54c40 0 65 -17 65 -61z" />
    <glyph glyph-name="Ograve" unicode="&#xd2;" horiz-adv-x="582" 
d="M564 350c0 -213 -108 -363 -276 -363c-167 0 -270 129 -270 338c0 213 108 363 276 363c167 0 270 -129 270 -338zM382 349c0 207 -13 316 -91 316c-75 0 -91 -113 -91 -339c0 -207 14 -315 90 -315c79 0 92 112 92 338zM265 850l43 -140c2 -6 2 -7 -1 -9l-3 -2
c-2 -2 -4 -1 -9 2l-116 87c-24 18 -38 34 -38 58c0 30 31 61 69 61c26 0 44 -19 55 -57z" />
    <glyph glyph-name="Oacute" unicode="&#xd3;" horiz-adv-x="582" 
d="M564 350c0 -213 -108 -363 -276 -363c-167 0 -270 129 -270 338c0 213 108 363 276 363c167 0 270 -129 270 -338zM382 349c0 207 -13 316 -91 316c-75 0 -91 -113 -91 -339c0 -207 14 -315 90 -315c79 0 92 112 92 338zM406 788l-116 -87c-5 -3 -6 -4 -9 -2l-3 2
c-3 1 -3 2 -2 8l44 141c11 38 29 57 55 57c38 0 69 -31 69 -61c0 -24 -14 -40 -38 -58z" />
    <glyph glyph-name="Ocircumflex" unicode="&#xd4;" horiz-adv-x="582" 
d="M564 350c0 -213 -108 -363 -276 -363c-167 0 -270 129 -270 338c0 213 108 363 276 363c167 0 270 -129 270 -338zM382 349c0 207 -13 316 -91 316c-75 0 -91 -113 -91 -339c0 -207 14 -315 90 -315c79 0 92 112 92 338zM350 860l59 -151c2 -4 2 -7 -1 -8l-3 -2
c-2 -2 -5 -1 -9 2l-104 94h-1l-104 -94c-5 -3 -8 -4 -10 -2l-2 2c-3 2 -3 4 -2 8l60 151c13 30 28 47 59 47c30 0 45 -16 58 -47z" />
    <glyph glyph-name="Otilde" unicode="&#xd5;" horiz-adv-x="582" 
d="M564 350c0 -213 -108 -363 -276 -363c-167 0 -270 129 -270 338c0 213 108 363 276 363c167 0 270 -129 270 -338zM382 349c0 207 -13 316 -91 316c-75 0 -91 -113 -91 -339c0 -207 14 -315 90 -315c79 0 92 112 92 338zM409 904c0 -98 -13 -162 -69 -162
c-37 0 -79 23 -113 23c-27 0 -40 -22 -40 -51c0 -7 -1 -10 -6 -10h-2c-6 0 -7 3 -7 10c0 98 12 162 69 162c37 0 79 -24 113 -24c26 0 39 22 39 52c0 7 1 10 7 10h2c6 0 7 -3 7 -10z" />
    <glyph glyph-name="Odieresis" unicode="&#xd6;" horiz-adv-x="582" 
d="M564 350c0 -213 -108 -363 -276 -363c-167 0 -270 129 -270 338c0 213 108 363 276 363c167 0 270 -129 270 -338zM382 349c0 207 -13 316 -91 316c-75 0 -91 -113 -91 -339c0 -207 14 -315 90 -315c79 0 92 112 92 338zM451 811c0 -48 -29 -82 -71 -82h-1
c-43 0 -74 33 -74 82c0 48 29 81 73 81c43 0 73 -33 73 -81zM280 811c0 -48 -29 -82 -71 -82c-44 0 -75 33 -75 82c0 48 29 81 74 81c42 0 72 -33 72 -81z" />
    <glyph glyph-name="Omacron" unicode="&#x14c;" horiz-adv-x="582" 
d="M564 350c0 -213 -108 -363 -276 -363c-167 0 -270 129 -270 338c0 213 108 363 276 363c167 0 270 -129 270 -338zM382 349c0 207 -13 316 -91 316c-75 0 -91 -113 -91 -339c0 -207 14 -315 90 -315c79 0 92 112 92 338zM399 763h-213c-7 0 -8 2 -8 9v77c0 7 1 9 8 9h213
c7 0 8 -2 8 -9v-77c0 -7 -1 -9 -8 -9z" />
    <glyph glyph-name="Obreve" unicode="&#x14e;" horiz-adv-x="582" 
d="M564 350c0 -213 -108 -363 -276 -363c-167 0 -270 129 -270 338c0 213 108 363 276 363c167 0 270 -129 270 -338zM382 349c0 207 -13 316 -91 316c-75 0 -91 -113 -91 -339c0 -207 14 -315 90 -315c79 0 92 112 92 338zM404 895c0 -92 -28 -173 -112 -173
s-111 78 -111 173c0 9 1 12 7 12h1c6 0 7 -3 7 -12c0 -41 29 -74 96 -74s97 33 97 74c0 9 1 12 7 12h1c6 0 7 -3 7 -12z" />
    <glyph glyph-name="Ohungarumlaut" unicode="&#x150;" horiz-adv-x="582" 
d="M564 350c0 -213 -108 -363 -276 -363c-167 0 -270 129 -270 338c0 213 108 363 276 363c167 0 270 -129 270 -338zM382 349c0 207 -13 316 -91 316c-75 0 -91 -113 -91 -339c0 -207 14 -315 90 -315c79 0 92 112 92 338zM338 788l-117 -88c-4 -3 -6 -4 -9 -2l-3 2
c-2 2 -2 3 -1 9l44 141c11 38 28 57 55 57c38 0 69 -31 69 -61c0 -24 -14 -40 -38 -58zM498 788l-117 -88c-4 -3 -6 -4 -9 -2l-3 2c-2 2 -3 3 -1 9l44 141c10 38 28 57 55 57c38 0 69 -31 69 -61c0 -24 -14 -40 -38 -58z" />
    <glyph glyph-name="Oslash" unicode="&#xd8;" horiz-adv-x="582" 
d="M564 350c0 -213 -108 -363 -276 -363c-79 0 -144 28 -190 81l-58 -76c-4 -6 -7 -6 -11 -2l-6 4c-5 4 -4 7 0 12l61 79c-43 58 -66 140 -66 240c0 213 108 363 276 363c79 0 144 -29 190 -82l59 77c5 5 8 6 12 2l6 -4c4 -3 4 -7 0 -12l-62 -81c42 -58 65 -139 65 -238z
M200 326c0 -32 0 -61 1 -88l178 232c-6 128 -27 195 -88 195c-75 0 -91 -113 -91 -339zM382 349c0 31 0 59 -1 86l-179 -232c7 -127 29 -192 88 -192c79 0 92 112 92 338z" />
    <glyph glyph-name="Oslashacute" unicode="&#x1fe;" horiz-adv-x="582" 
d="M564 350c0 -213 -108 -363 -276 -363c-79 0 -144 28 -190 81l-58 -76c-4 -6 -7 -6 -11 -2l-6 4c-5 4 -4 7 0 12l61 79c-43 58 -66 140 -66 240c0 213 108 363 276 363c79 0 144 -29 190 -82l59 77c5 5 8 6 12 2l6 -4c4 -3 4 -7 0 -12l-62 -81c42 -58 65 -139 65 -238z
M200 326c0 -32 0 -61 1 -88l178 232c-6 128 -27 195 -88 195c-75 0 -91 -113 -91 -339zM382 349c0 31 0 59 -1 86l-179 -232c7 -127 29 -192 88 -192c79 0 92 112 92 338zM413 788l-116 -87c-5 -3 -6 -4 -9 -2l-3 2c-3 1 -3 2 -2 8l44 141c11 38 29 57 55 57
c38 0 69 -31 69 -61c0 -24 -14 -40 -38 -58z" />
    <glyph glyph-name="OE" unicode="&#x152;" horiz-adv-x="797" 
d="M294 0c-167 0 -276 114 -276 327c0 216 115 348 277 348h428c5 0 6 -3 6 -9v-218c0 -6 -1 -9 -8 -9h-4c-5 0 -6 3 -6 9v13c0 98 -44 192 -119 192h-54v-287h34c38 0 64 43 64 100v8c0 6 1 9 6 9h4c6 0 7 -3 7 -9v-245c0 -6 -1 -9 -7 -9h-4c-5 0 -6 3 -6 9v14
c0 57 -26 100 -64 100h-34v-321h81c81 0 125 107 129 191l1 15c0 6 2 9 7 9h4c6 0 7 -3 7 -9l-9 -219c0 -6 -1 -9 -6 -9h-458zM369 22v631h-59c-78 -1 -110 -107 -110 -322c0 -210 28 -309 110 -309h59z" />
    <glyph glyph-name="Racute" unicode="&#x154;" horiz-adv-x="584" 
d="M522 512c0 -86 -61 -149 -185 -156v-4c117 -18 170 -73 170 -204c0 -108 8 -126 27 -126c14 0 23 18 26 43c1 6 3 8 7 7l5 -1c6 -1 6 -3 5 -9c-8 -53 -38 -75 -98 -75c-97 0 -143 61 -143 159c0 150 -9 198 -67 198h-31v-251c0 -73 1 -76 19 -76h26c6 0 9 -1 9 -7v-4
c0 -5 -3 -6 -9 -6h-257c-6 0 -9 1 -9 6v4c0 6 3 7 9 7h24c18 0 19 3 19 76v489c0 73 -1 76 -19 76h-25c-6 0 -9 1 -9 7v4c0 5 3 6 9 6h310c93 0 187 -38 187 -163zM347 510c0 118 -28 143 -74 143h-35v-288h35c51 0 74 39 74 145zM386 788l-116 -87c-5 -3 -6 -4 -9 -2l-3 2
c-3 1 -3 2 -2 8l44 141c11 38 29 57 55 57c38 0 69 -31 69 -61c0 -24 -14 -40 -38 -58z" />
    <glyph glyph-name="Rcaron" unicode="&#x158;" horiz-adv-x="584" 
d="M522 512c0 -86 -61 -149 -185 -156v-4c117 -18 170 -73 170 -204c0 -108 8 -126 27 -126c14 0 23 18 26 43c1 6 3 8 7 7l5 -1c6 -1 6 -3 5 -9c-8 -53 -38 -75 -98 -75c-97 0 -143 61 -143 159c0 150 -9 198 -67 198h-31v-251c0 -73 1 -76 19 -76h26c6 0 9 -1 9 -7v-4
c0 -5 -3 -6 -9 -6h-257c-6 0 -9 1 -9 6v4c0 6 3 7 9 7h24c18 0 19 3 19 76v489c0 73 -1 76 -19 76h-25c-6 0 -9 1 -9 7v4c0 5 3 6 9 6h310c93 0 187 -38 187 -163zM347 510c0 118 -28 143 -74 143h-35v-288h35c51 0 74 39 74 145zM334 745c-13 -31 -28 -47 -58 -47
c-31 0 -46 17 -59 47l-60 151c-1 4 -1 7 2 8l2 2c3 2 5 1 10 -2l104 -94h1l104 94c4 3 7 4 9 2l3 -2c3 -1 3 -4 1 -8z" />
    <glyph glyph-name="Rcommaaccent" unicode="&#x156;" horiz-adv-x="584" 
d="M522 512c0 -86 -61 -149 -185 -156v-4c117 -18 170 -73 170 -204c0 -108 8 -126 27 -126c14 0 23 18 26 43c1 6 3 8 7 7l5 -1c6 -1 6 -3 5 -9c-8 -53 -38 -75 -98 -75c-97 0 -143 61 -143 159c0 150 -9 198 -67 198h-31v-251c0 -73 1 -76 19 -76h26c6 0 9 -1 9 -7v-4
c0 -5 -3 -6 -9 -6h-257c-6 0 -9 1 -9 6v4c0 6 3 7 9 7h24c18 0 19 3 19 76v489c0 73 -1 76 -19 76h-25c-6 0 -9 1 -9 7v4c0 5 3 6 9 6h310c93 0 187 -38 187 -163zM347 510c0 118 -28 143 -74 143h-35v-288h35c51 0 74 39 74 145zM386 -89c0 -46 -25 -80 -54 -106
c-6 -6 -8 -6 -12 -3l-5 6c-4 2 -5 5 0 9c22 19 41 44 46 70l-1 1c-10 -12 -26 -24 -48 -24c-26 0 -51 20 -51 54c0 37 22 54 60 54c40 0 65 -17 65 -61z" />
    <glyph glyph-name="germandbls.cap" unicode="&#xe0aa;" horiz-adv-x="880" 
d="M414 194c0 -123 -88 -207 -215 -207c-54 0 -110 13 -148 35l-1 -17c0 -7 -2 -10 -7 -10h-3c-5 0 -7 3 -7 9l-8 222c0 6 1 9 7 9h5c5 0 6 -2 6 -8l1 -23c2 -84 64 -197 150 -197c51 0 87 33 87 94c0 86 -51 129 -124 183c-64 47 -119 101 -119 205c0 106 64 199 193 199
c45 0 91 -14 125 -34l2 17c1 6 2 9 8 9h3c5 0 6 -3 6 -9v-211c0 -6 -1 -9 -7 -9h-6c-5 0 -6 3 -6 9v15c0 88 -57 193 -124 193c-44 0 -69 -34 -69 -85c0 -74 50 -121 120 -172c68 -50 131 -106 131 -217zM854 194c0 -123 -88 -207 -215 -207c-54 0 -110 13 -148 35l-1 -17
c0 -7 -2 -10 -7 -10h-3c-5 0 -7 3 -7 9l-8 222c0 6 1 9 7 9h5c5 0 6 -2 6 -8l1 -23c2 -84 64 -197 150 -197c51 0 87 33 87 94c0 86 -51 129 -124 183c-64 47 -119 101 -119 205c0 106 64 199 193 199c45 0 91 -14 125 -34l2 17c1 6 2 9 8 9h3c5 0 6 -3 6 -9v-211
c0 -6 -1 -9 -7 -9h-6c-5 0 -6 3 -6 9v15c0 88 -57 193 -124 193c-44 0 -69 -34 -69 -85c0 -74 50 -121 120 -172c68 -50 131 -106 131 -217z" />
    <glyph glyph-name="Sacute" unicode="&#x15a;" horiz-adv-x="440" 
d="M414 194c0 -123 -88 -207 -215 -207c-54 0 -110 13 -148 35l-1 -17c0 -7 -2 -10 -7 -10h-3c-5 0 -7 3 -7 9l-8 222c0 6 1 9 7 9h5c5 0 6 -2 6 -8l1 -23c2 -84 64 -197 150 -197c51 0 87 33 87 94c0 86 -51 129 -124 183c-64 47 -119 101 -119 205c0 106 64 199 193 199
c45 0 91 -14 125 -34l2 17c1 6 2 9 8 9h3c5 0 6 -3 6 -9v-211c0 -6 -1 -9 -7 -9h-6c-5 0 -6 3 -6 9v15c0 88 -57 193 -124 193c-44 0 -69 -34 -69 -85c0 -74 50 -121 120 -172c68 -50 131 -106 131 -217zM335 788l-116 -87c-5 -3 -6 -4 -9 -2l-3 2c-3 1 -3 2 -2 8l44 141
c11 38 29 57 55 57c38 0 69 -31 69 -61c0 -24 -14 -40 -38 -58z" />
    <glyph glyph-name="Scircumflex" unicode="&#x15c;" horiz-adv-x="440" 
d="M414 194c0 -123 -88 -207 -215 -207c-54 0 -110 13 -148 35l-1 -17c0 -7 -2 -10 -7 -10h-3c-5 0 -7 3 -7 9l-8 222c0 6 1 9 7 9h5c5 0 6 -2 6 -8l1 -23c2 -84 64 -197 150 -197c51 0 87 33 87 94c0 86 -51 129 -124 183c-64 47 -119 101 -119 205c0 106 64 199 193 199
c45 0 91 -14 125 -34l2 17c1 6 2 9 8 9h3c5 0 6 -3 6 -9v-211c0 -6 -1 -9 -7 -9h-6c-5 0 -6 3 -6 9v15c0 88 -57 193 -124 193c-44 0 -69 -34 -69 -85c0 -74 50 -121 120 -172c68 -50 131 -106 131 -217zM283 860l59 -151c2 -4 2 -7 -1 -8l-3 -2c-2 -2 -5 -1 -9 2l-104 94
h-1l-104 -94c-5 -3 -8 -4 -10 -2l-2 2c-3 2 -3 4 -2 8l60 151c13 30 28 47 59 47c30 0 45 -16 58 -47z" />
    <glyph glyph-name="Scaron" unicode="&#x160;" horiz-adv-x="440" 
d="M414 194c0 -123 -88 -207 -215 -207c-54 0 -110 13 -148 35l-1 -17c0 -7 -2 -10 -7 -10h-3c-5 0 -7 3 -7 9l-8 222c0 6 1 9 7 9h5c5 0 6 -2 6 -8l1 -23c2 -84 64 -197 150 -197c51 0 87 33 87 94c0 86 -51 129 -124 183c-64 47 -119 101 -119 205c0 106 64 199 193 199
c45 0 91 -14 125 -34l2 17c1 6 2 9 8 9h3c5 0 6 -3 6 -9v-211c0 -6 -1 -9 -7 -9h-6c-5 0 -6 3 -6 9v15c0 88 -57 193 -124 193c-44 0 -69 -34 -69 -85c0 -74 50 -121 120 -172c68 -50 131 -106 131 -217zM283 745c-13 -31 -28 -47 -58 -47c-31 0 -46 17 -59 47l-60 151
c-1 4 -1 7 2 8l2 2c3 2 5 1 10 -2l104 -94h1l104 94c4 3 7 4 9 2l3 -2c3 -1 3 -4 1 -8z" />
    <glyph glyph-name="Scedilla" unicode="&#x15e;" horiz-adv-x="440" 
d="M292 -120c0 -48 -36 -80 -98 -80c-45 0 -68 19 -68 47c0 13 7 23 21 23c13 0 21 -8 21 -20c0 -10 -3 -17 -7 -24c3 -4 9 -6 16 -6c18 0 31 11 31 30c0 25 -21 39 -48 47l-2 4l23 87c-48 2 -96 14 -130 34l-1 -17c0 -7 -2 -10 -7 -10h-3c-5 0 -7 3 -7 9l-8 222
c0 6 1 9 7 9h5c5 0 6 -2 6 -8l1 -23c2 -84 64 -197 150 -197c51 0 87 33 87 94c0 86 -51 129 -124 183c-64 47 -119 101 -119 205c0 106 64 199 193 199c45 0 91 -14 125 -34l2 17c1 6 2 9 8 9h3c5 0 6 -3 6 -9v-211c0 -6 -1 -9 -7 -9h-6c-5 0 -6 3 -6 9v15
c0 88 -57 193 -124 193c-44 0 -69 -34 -69 -85c0 -74 50 -121 120 -172c68 -50 131 -106 131 -217c0 -122 -87 -205 -212 -207l-5 -17c61 -12 95 -41 95 -90z" />
    <glyph glyph-name="Scommaaccent" unicode="&#x218;" horiz-adv-x="440" 
d="M414 194c0 -123 -88 -207 -215 -207c-54 0 -110 13 -148 35l-1 -17c0 -7 -2 -10 -7 -10h-3c-5 0 -7 3 -7 9l-8 222c0 6 1 9 7 9h5c5 0 6 -2 6 -8l1 -23c2 -84 64 -197 150 -197c51 0 87 33 87 94c0 86 -51 129 -124 183c-64 47 -119 101 -119 205c0 106 64 199 193 199
c45 0 91 -14 125 -34l2 17c1 6 2 9 8 9h3c5 0 6 -3 6 -9v-211c0 -6 -1 -9 -7 -9h-6c-5 0 -6 3 -6 9v15c0 88 -57 193 -124 193c-44 0 -69 -34 -69 -85c0 -74 50 -121 120 -172c68 -50 131 -106 131 -217zM273 -89c0 -46 -25 -80 -54 -106c-6 -6 -8 -6 -12 -3l-5 6
c-4 2 -5 5 0 9c22 19 41 44 46 70l-1 1c-10 -12 -26 -24 -48 -24c-26 0 -51 20 -51 54c0 37 22 54 60 54c40 0 65 -17 65 -61z" />
    <glyph glyph-name="Tcaron" unicode="&#x164;" horiz-adv-x="512" 
d="M385 0h-257c-6 0 -9 1 -9 6v4c0 6 3 7 9 7h24c18 0 19 3 19 76v560h-16c-75 0 -119 -94 -119 -193v-24c0 -6 -1 -9 -6 -9h-5c-6 0 -7 3 -7 9v230c0 6 1 9 7 9h462c6 0 7 -3 7 -9v-230c0 -6 -1 -9 -8 -9h-4c-5 0 -6 3 -6 9v24c0 99 -44 193 -119 193h-17v-560
c0 -73 1 -76 19 -76h26c6 0 9 -1 9 -7v-4c0 -5 -3 -6 -9 -6zM314 745c-13 -31 -28 -47 -58 -47c-31 0 -46 17 -59 47l-60 151c-1 4 -1 7 2 8l2 2c3 2 5 1 10 -2l104 -94h1l104 94c4 3 7 4 9 2l3 -2c3 -1 3 -4 1 -8z" />
    <glyph glyph-name="Tcommaaccent" unicode="&#x162;" horiz-adv-x="512" 
d="M385 0h-257c-6 0 -9 1 -9 6v4c0 6 3 7 9 7h24c18 0 19 3 19 76v560h-16c-75 0 -119 -94 -119 -193v-24c0 -6 -1 -9 -6 -9h-5c-6 0 -7 3 -7 9v230c0 6 1 9 7 9h462c6 0 7 -3 7 -9v-230c0 -6 -1 -9 -8 -9h-4c-5 0 -6 3 -6 9v24c0 99 -44 193 -119 193h-17v-560
c0 -73 1 -76 19 -76h26c6 0 9 -1 9 -7v-4c0 -5 -3 -6 -9 -6zM320 -89c0 -46 -25 -80 -54 -106c-6 -6 -8 -6 -12 -3l-5 6c-4 2 -5 5 0 9c22 19 41 44 46 70l-1 1c-10 -12 -26 -24 -48 -24c-26 0 -51 20 -51 54c0 37 22 54 60 54c40 0 65 -17 65 -61z" />
    <glyph glyph-name="Tcommaaccent" unicode="&#x21a;" horiz-adv-x="512" 
d="M385 0h-257c-6 0 -9 1 -9 6v4c0 6 3 7 9 7h24c18 0 19 3 19 76v560h-16c-75 0 -119 -94 -119 -193v-24c0 -6 -1 -9 -6 -9h-5c-6 0 -7 3 -7 9v230c0 6 1 9 7 9h462c6 0 7 -3 7 -9v-230c0 -6 -1 -9 -8 -9h-4c-5 0 -6 3 -6 9v24c0 99 -44 193 -119 193h-17v-560
c0 -73 1 -76 19 -76h26c6 0 9 -1 9 -7v-4c0 -5 -3 -6 -9 -6zM320 -89c0 -46 -25 -80 -54 -106c-6 -6 -8 -6 -12 -3l-5 6c-4 2 -5 5 0 9c22 19 41 44 46 70l-1 1c-10 -12 -26 -24 -48 -24c-26 0 -51 20 -51 54c0 37 22 54 60 54c40 0 65 -17 65 -61z" />
    <glyph glyph-name="Tbar" unicode="&#x166;" horiz-adv-x="512" 
d="M385 0h-257c-6 0 -9 1 -9 6v4c0 6 3 7 9 7h24c18 0 19 3 19 76v219h-102c-7 0 -9 2 -9 8v6c0 6 2 8 9 8h102v319h-16c-75 0 -119 -94 -119 -193v-24c0 -6 -1 -9 -6 -9h-5c-6 0 -7 3 -7 9v230c0 6 1 9 7 9h462c6 0 7 -3 7 -9v-230c0 -6 -1 -9 -8 -9h-4c-5 0 -6 3 -6 9v24
c0 99 -44 193 -119 193h-17v-319h101c7 0 10 -2 10 -8v-6c0 -6 -3 -8 -10 -8h-101v-219c0 -73 1 -76 19 -76h26c6 0 9 -1 9 -7v-4c0 -5 -3 -6 -9 -6z" />
    <glyph glyph-name="Ugrave" unicode="&#xd9;" horiz-adv-x="532" 
d="M522 658h-7c-31 0 -48 -45 -48 -215v-203c0 -177 -55 -253 -194 -253c-142 0 -208 89 -208 222v373c0 73 -1 76 -19 76h-25c-6 0 -9 1 -9 7v4c0 5 3 6 9 6h257c6 0 9 -1 9 -6v-4c0 -6 -3 -7 -9 -7h-25c-18 0 -19 -3 -19 -76v-344c0 -136 25 -200 102 -200
c71 0 106 56 106 211v194c0 171 -21 215 -68 215h-23c-6 0 -9 1 -9 7v4c0 5 3 6 9 6h171c6 0 9 -1 9 -6v-4c0 -6 -3 -7 -9 -7zM275 850l43 -140c2 -6 2 -7 -1 -9l-3 -2c-2 -2 -4 -1 -9 2l-116 87c-24 18 -38 34 -38 58c0 30 31 61 69 61c26 0 44 -19 55 -57z" />
    <glyph glyph-name="Uacute" unicode="&#xda;" horiz-adv-x="532" 
d="M522 658h-7c-31 0 -48 -45 -48 -215v-203c0 -177 -55 -253 -194 -253c-142 0 -208 89 -208 222v373c0 73 -1 76 -19 76h-25c-6 0 -9 1 -9 7v4c0 5 3 6 9 6h257c6 0 9 -1 9 -6v-4c0 -6 -3 -7 -9 -7h-25c-18 0 -19 -3 -19 -76v-344c0 -136 25 -200 102 -200
c71 0 106 56 106 211v194c0 171 -21 215 -68 215h-23c-6 0 -9 1 -9 7v4c0 5 3 6 9 6h171c6 0 9 -1 9 -6v-4c0 -6 -3 -7 -9 -7zM415 788l-116 -87c-5 -3 -6 -4 -9 -2l-3 2c-3 1 -3 2 -2 8l44 141c11 38 29 57 55 57c38 0 69 -31 69 -61c0 -24 -14 -40 -38 -58z" />
    <glyph glyph-name="Ucircumflex" unicode="&#xdb;" horiz-adv-x="532" 
d="M522 658h-7c-31 0 -48 -45 -48 -215v-203c0 -177 -55 -253 -194 -253c-142 0 -208 89 -208 222v373c0 73 -1 76 -19 76h-25c-6 0 -9 1 -9 7v4c0 5 3 6 9 6h257c6 0 9 -1 9 -6v-4c0 -6 -3 -7 -9 -7h-25c-18 0 -19 -3 -19 -76v-344c0 -136 25 -200 102 -200
c71 0 106 56 106 211v194c0 171 -21 215 -68 215h-23c-6 0 -9 1 -9 7v4c0 5 3 6 9 6h171c6 0 9 -1 9 -6v-4c0 -6 -3 -7 -9 -7zM360 860l59 -151c2 -4 2 -7 -1 -8l-3 -2c-2 -2 -5 -1 -9 2l-104 94h-1l-104 -94c-5 -3 -8 -4 -10 -2l-2 2c-3 2 -3 4 -2 8l60 151
c13 30 28 47 59 47c30 0 45 -16 58 -47z" />
    <glyph glyph-name="Utilde" unicode="&#x168;" horiz-adv-x="532" 
d="M522 658h-7c-31 0 -48 -45 -48 -215v-203c0 -177 -55 -253 -194 -253c-142 0 -208 89 -208 222v373c0 73 -1 76 -19 76h-25c-6 0 -9 1 -9 7v4c0 5 3 6 9 6h257c6 0 9 -1 9 -6v-4c0 -6 -3 -7 -9 -7h-25c-18 0 -19 -3 -19 -76v-344c0 -136 25 -200 102 -200
c71 0 106 56 106 211v194c0 171 -21 215 -68 215h-23c-6 0 -9 1 -9 7v4c0 5 3 6 9 6h171c6 0 9 -1 9 -6v-4c0 -6 -3 -7 -9 -7zM419 904c0 -98 -13 -162 -69 -162c-37 0 -79 23 -113 23c-27 0 -40 -22 -40 -51c0 -7 -1 -10 -6 -10h-2c-6 0 -7 3 -7 10c0 98 12 162 69 162
c37 0 79 -24 113 -24c26 0 39 22 39 52c0 7 1 10 7 10h2c6 0 7 -3 7 -10z" />
    <glyph glyph-name="Udieresis" unicode="&#xdc;" horiz-adv-x="532" 
d="M522 658h-7c-31 0 -48 -45 -48 -215v-203c0 -177 -55 -253 -194 -253c-142 0 -208 89 -208 222v373c0 73 -1 76 -19 76h-25c-6 0 -9 1 -9 7v4c0 5 3 6 9 6h257c6 0 9 -1 9 -6v-4c0 -6 -3 -7 -9 -7h-25c-18 0 -19 -3 -19 -76v-344c0 -136 25 -200 102 -200
c71 0 106 56 106 211v194c0 171 -21 215 -68 215h-23c-6 0 -9 1 -9 7v4c0 5 3 6 9 6h171c6 0 9 -1 9 -6v-4c0 -6 -3 -7 -9 -7zM461 811c0 -48 -29 -82 -71 -82h-1c-43 0 -74 33 -74 82c0 48 29 81 73 81c43 0 73 -33 73 -81zM290 811c0 -48 -29 -82 -71 -82
c-44 0 -75 33 -75 82c0 48 29 81 74 81c42 0 72 -33 72 -81z" />
    <glyph glyph-name="Umacron" unicode="&#x16a;" horiz-adv-x="532" 
d="M522 658h-7c-31 0 -48 -45 -48 -215v-203c0 -177 -55 -253 -194 -253c-142 0 -208 89 -208 222v373c0 73 -1 76 -19 76h-25c-6 0 -9 1 -9 7v4c0 5 3 6 9 6h257c6 0 9 -1 9 -6v-4c0 -6 -3 -7 -9 -7h-25c-18 0 -19 -3 -19 -76v-344c0 -136 25 -200 102 -200
c71 0 106 56 106 211v194c0 171 -21 215 -68 215h-23c-6 0 -9 1 -9 7v4c0 5 3 6 9 6h171c6 0 9 -1 9 -6v-4c0 -6 -3 -7 -9 -7zM408 763h-213c-7 0 -8 2 -8 9v77c0 7 1 9 8 9h213c7 0 8 -2 8 -9v-77c0 -7 -1 -9 -8 -9z" />
    <glyph glyph-name="Ubreve" unicode="&#x16c;" horiz-adv-x="532" 
d="M522 658h-7c-31 0 -48 -45 -48 -215v-203c0 -177 -55 -253 -194 -253c-142 0 -208 89 -208 222v373c0 73 -1 76 -19 76h-25c-6 0 -9 1 -9 7v4c0 5 3 6 9 6h257c6 0 9 -1 9 -6v-4c0 -6 -3 -7 -9 -7h-25c-18 0 -19 -3 -19 -76v-344c0 -136 25 -200 102 -200
c71 0 106 56 106 211v194c0 171 -21 215 -68 215h-23c-6 0 -9 1 -9 7v4c0 5 3 6 9 6h171c6 0 9 -1 9 -6v-4c0 -6 -3 -7 -9 -7zM415 895c0 -92 -28 -173 -112 -173s-111 78 -111 173c0 9 1 12 7 12h1c6 0 7 -3 7 -12c0 -41 29 -74 96 -74s97 33 97 74c0 9 1 12 7 12h1
c6 0 7 -3 7 -12z" />
    <glyph glyph-name="Uring" unicode="&#x16e;" horiz-adv-x="532" 
d="M522 658h-7c-31 0 -48 -45 -48 -215v-203c0 -177 -55 -253 -194 -253c-142 0 -208 89 -208 222v373c0 73 -1 76 -19 76h-25c-6 0 -9 1 -9 7v4c0 5 3 6 9 6h257c6 0 9 -1 9 -6v-4c0 -6 -3 -7 -9 -7h-25c-18 0 -19 -3 -19 -76v-344c0 -136 25 -200 102 -200
c71 0 106 56 106 211v194c0 171 -21 215 -68 215h-23c-6 0 -9 1 -9 7v4c0 5 3 6 9 6h171c6 0 9 -1 9 -6v-4c0 -6 -3 -7 -9 -7zM411 817c0 -55 -36 -101 -110 -101c-71 0 -107 39 -107 93s36 98 109 98c71 0 108 -37 108 -90zM332 814c0 52 -7 79 -30 79
c-22 0 -29 -29 -29 -82c0 -52 7 -81 29 -81c23 0 30 30 30 84z" />
    <glyph glyph-name="Uhungarumlaut" unicode="&#x170;" horiz-adv-x="532" 
d="M522 658h-7c-31 0 -48 -45 -48 -215v-203c0 -177 -55 -253 -194 -253c-142 0 -208 89 -208 222v373c0 73 -1 76 -19 76h-25c-6 0 -9 1 -9 7v4c0 5 3 6 9 6h257c6 0 9 -1 9 -6v-4c0 -6 -3 -7 -9 -7h-25c-18 0 -19 -3 -19 -76v-344c0 -136 25 -200 102 -200
c71 0 106 56 106 211v194c0 171 -21 215 -68 215h-23c-6 0 -9 1 -9 7v4c0 5 3 6 9 6h171c6 0 9 -1 9 -6v-4c0 -6 -3 -7 -9 -7zM322 788l-117 -88c-4 -3 -6 -4 -9 -2l-3 2c-2 2 -2 3 -1 9l44 141c11 38 28 57 55 57c38 0 69 -31 69 -61c0 -24 -14 -40 -38 -58zM482 788
l-117 -88c-4 -3 -6 -4 -9 -2l-3 2c-2 2 -3 3 -1 9l44 141c10 38 28 57 55 57c38 0 69 -31 69 -61c0 -24 -14 -40 -38 -58z" />
    <glyph glyph-name="Uogonek" unicode="&#x172;" horiz-adv-x="532" 
d="M406 -132c-20 -40 -48 -68 -99 -68c-44 0 -78 26 -78 73c0 48 33 84 80 116c-11 -1 -23 -2 -36 -2c-142 0 -208 89 -208 222v373c0 73 -1 76 -19 76h-25c-6 0 -9 1 -9 7v4c0 5 3 6 9 6h257c6 0 9 -1 9 -6v-4c0 -6 -3 -7 -9 -7h-25c-18 0 -19 -3 -19 -76v-344
c0 -136 25 -200 102 -200c71 0 106 56 106 211v194c0 171 -21 215 -68 215h-23c-6 0 -9 1 -9 7v4c0 5 3 6 9 6h171c6 0 9 -1 9 -6v-4c0 -6 -3 -7 -9 -7h-7c-31 0 -48 -45 -48 -215v-203c0 -142 -36 -219 -122 -244c-20 -27 -31 -63 -31 -101c0 -33 11 -51 35 -51
c19 0 34 12 44 31c3 5 4 6 7 4l5 -2c3 -2 3 -4 1 -9z" />
    <glyph glyph-name="Wgrave" unicode="&#x1e80;" horiz-adv-x="845" 
d="M775 571c-9 -33 -20 -79 -31 -127l-103 -448c-2 -6 -3 -9 -11 -9h-83c-7 0 -8 1 -11 9l-109 472h-2l-122 -472c-1 -6 -3 -9 -10 -9h-84c-6 0 -8 1 -10 9l-124 549c-25 112 -28 113 -53 113h-8c-6 0 -9 1 -9 7v4c0 5 3 6 9 6h264c6 0 9 -1 9 -6v-4c0 -6 -3 -7 -9 -7h-16
c-15 0 -22 -2 -22 -21c0 -17 5 -44 14 -92l71 -369h1l64 257c10 44 20 99 20 144c0 56 -17 81 -48 81h-14c-6 0 -9 1 -9 7v4c0 5 3 6 9 6h245c6 0 9 -1 9 -6v-4c0 -6 -3 -7 -9 -7h-10c-13 0 -21 -2 -21 -20c0 -15 6 -43 16 -93l79 -370h1l57 258c10 45 17 102 17 148
c0 52 -18 77 -49 77h-17c-6 0 -9 1 -9 7v4c0 5 3 6 9 6h165c6 0 9 -1 9 -6v-4c0 -6 -3 -7 -9 -7h-6c-21 0 -30 -14 -50 -87zM433 850l43 -140c2 -6 2 -7 -1 -9l-3 -2c-2 -2 -4 -1 -9 2l-116 87c-24 18 -38 34 -38 58c0 30 31 61 69 61c26 0 44 -19 55 -57z" />
    <glyph glyph-name="Wacute" unicode="&#x1e82;" horiz-adv-x="845" 
d="M775 571c-9 -33 -20 -79 -31 -127l-103 -448c-2 -6 -3 -9 -11 -9h-83c-7 0 -8 1 -11 9l-109 472h-2l-122 -472c-1 -6 -3 -9 -10 -9h-84c-6 0 -8 1 -10 9l-124 549c-25 112 -28 113 -53 113h-8c-6 0 -9 1 -9 7v4c0 5 3 6 9 6h264c6 0 9 -1 9 -6v-4c0 -6 -3 -7 -9 -7h-16
c-15 0 -22 -2 -22 -21c0 -17 5 -44 14 -92l71 -369h1l64 257c10 44 20 99 20 144c0 56 -17 81 -48 81h-14c-6 0 -9 1 -9 7v4c0 5 3 6 9 6h245c6 0 9 -1 9 -6v-4c0 -6 -3 -7 -9 -7h-10c-13 0 -21 -2 -21 -20c0 -15 6 -43 16 -93l79 -370h1l57 258c10 45 17 102 17 148
c0 52 -18 77 -49 77h-17c-6 0 -9 1 -9 7v4c0 5 3 6 9 6h165c6 0 9 -1 9 -6v-4c0 -6 -3 -7 -9 -7h-6c-21 0 -30 -14 -50 -87zM589 788l-116 -87c-5 -3 -6 -4 -9 -2l-3 2c-3 1 -3 2 -2 8l44 141c11 38 29 57 55 57c38 0 69 -31 69 -61c0 -24 -14 -40 -38 -58z" />
    <glyph glyph-name="Wcircumflex" unicode="&#x174;" horiz-adv-x="845" 
d="M775 571c-9 -33 -20 -79 -31 -127l-103 -448c-2 -6 -3 -9 -11 -9h-83c-7 0 -8 1 -11 9l-109 472h-2l-122 -472c-1 -6 -3 -9 -10 -9h-84c-6 0 -8 1 -10 9l-124 549c-25 112 -28 113 -53 113h-8c-6 0 -9 1 -9 7v4c0 5 3 6 9 6h264c6 0 9 -1 9 -6v-4c0 -6 -3 -7 -9 -7h-16
c-15 0 -22 -2 -22 -21c0 -17 5 -44 14 -92l71 -369h1l64 257c10 44 20 99 20 144c0 56 -17 81 -48 81h-14c-6 0 -9 1 -9 7v4c0 5 3 6 9 6h245c6 0 9 -1 9 -6v-4c0 -6 -3 -7 -9 -7h-10c-13 0 -21 -2 -21 -20c0 -15 6 -43 16 -93l79 -370h1l57 258c10 45 17 102 17 148
c0 52 -18 77 -49 77h-17c-6 0 -9 1 -9 7v4c0 5 3 6 9 6h165c6 0 9 -1 9 -6v-4c0 -6 -3 -7 -9 -7h-6c-21 0 -30 -14 -50 -87zM531 860l59 -151c2 -4 2 -7 -1 -8l-3 -2c-2 -2 -5 -1 -9 2l-104 94h-1l-104 -94c-5 -3 -8 -4 -10 -2l-2 2c-3 2 -3 4 -2 8l60 151
c13 30 28 47 59 47c30 0 45 -16 58 -47z" />
    <glyph glyph-name="Wdieresis" unicode="&#x1e84;" horiz-adv-x="845" 
d="M775 571c-9 -33 -20 -79 -31 -127l-103 -448c-2 -6 -3 -9 -11 -9h-83c-7 0 -8 1 -11 9l-109 472h-2l-122 -472c-1 -6 -3 -9 -10 -9h-84c-6 0 -8 1 -10 9l-124 549c-25 112 -28 113 -53 113h-8c-6 0 -9 1 -9 7v4c0 5 3 6 9 6h264c6 0 9 -1 9 -6v-4c0 -6 -3 -7 -9 -7h-16
c-15 0 -22 -2 -22 -21c0 -17 5 -44 14 -92l71 -369h1l64 257c10 44 20 99 20 144c0 56 -17 81 -48 81h-14c-6 0 -9 1 -9 7v4c0 5 3 6 9 6h245c6 0 9 -1 9 -6v-4c0 -6 -3 -7 -9 -7h-10c-13 0 -21 -2 -21 -20c0 -15 6 -43 16 -93l79 -370h1l57 258c10 45 17 102 17 148
c0 52 -18 77 -49 77h-17c-6 0 -9 1 -9 7v4c0 5 3 6 9 6h165c6 0 9 -1 9 -6v-4c0 -6 -3 -7 -9 -7h-6c-21 0 -30 -14 -50 -87zM629 811c0 -48 -29 -82 -71 -82h-1c-43 0 -74 33 -74 82c0 48 29 81 73 81c43 0 73 -33 73 -81zM458 811c0 -48 -29 -82 -71 -82
c-44 0 -75 33 -75 82c0 48 29 81 74 81c42 0 72 -33 72 -81z" />
    <glyph glyph-name="Ygrave" unicode="&#x1ef2;" horiz-adv-x="548" 
d="M402 0h-257c-6 0 -9 1 -9 6v4c0 6 3 7 9 7h25c18 0 19 3 19 76v219l-97 233c-45 109 -49 113 -73 113h-5c-6 0 -9 1 -9 7v4c0 5 3 6 9 6h268c6 0 9 -1 9 -6v-4c0 -6 -3 -7 -9 -7h-10c-14 0 -21 -3 -21 -16c0 -16 9 -45 31 -97l69 -165h1l43 111c16 44 27 85 27 115
c0 33 -11 52 -39 52h-15c-6 0 -9 1 -9 7v4c0 5 3 6 9 6h166c6 0 9 -1 9 -6v-3c0 -6 -3 -7 -9 -7h-3c-18 0 -30 -5 -54 -50c-11 -21 -26 -53 -45 -96l-74 -176v-244c0 -73 1 -76 18 -76h26c6 0 9 -1 9 -7v-4c0 -5 -3 -6 -9 -6zM278 850l43 -140c2 -6 2 -7 -1 -9l-3 -2
c-2 -2 -4 -1 -9 2l-116 87c-24 18 -38 34 -38 58c0 30 31 61 69 61c26 0 44 -19 55 -57z" />
    <glyph glyph-name="Yacute" unicode="&#xdd;" horiz-adv-x="548" 
d="M402 0h-257c-6 0 -9 1 -9 6v4c0 6 3 7 9 7h25c18 0 19 3 19 76v219l-97 233c-45 109 -49 113 -73 113h-5c-6 0 -9 1 -9 7v4c0 5 3 6 9 6h268c6 0 9 -1 9 -6v-4c0 -6 -3 -7 -9 -7h-10c-14 0 -21 -3 -21 -16c0 -16 9 -45 31 -97l69 -165h1l43 111c16 44 27 85 27 115
c0 33 -11 52 -39 52h-15c-6 0 -9 1 -9 7v4c0 5 3 6 9 6h166c6 0 9 -1 9 -6v-3c0 -6 -3 -7 -9 -7h-3c-18 0 -30 -5 -54 -50c-11 -21 -26 -53 -45 -96l-74 -176v-244c0 -73 1 -76 18 -76h26c6 0 9 -1 9 -7v-4c0 -5 -3 -6 -9 -6zM430 788l-116 -87c-5 -3 -6 -4 -9 -2l-3 2
c-3 1 -3 2 -2 8l44 141c11 38 29 57 55 57c38 0 69 -31 69 -61c0 -24 -14 -40 -38 -58z" />
    <glyph glyph-name="Ycircumflex" unicode="&#x176;" horiz-adv-x="548" 
d="M402 0h-257c-6 0 -9 1 -9 6v4c0 6 3 7 9 7h25c18 0 19 3 19 76v219l-97 233c-45 109 -49 113 -73 113h-5c-6 0 -9 1 -9 7v4c0 5 3 6 9 6h268c6 0 9 -1 9 -6v-4c0 -6 -3 -7 -9 -7h-10c-14 0 -21 -3 -21 -16c0 -16 9 -45 31 -97l69 -165h1l43 111c16 44 27 85 27 115
c0 33 -11 52 -39 52h-15c-6 0 -9 1 -9 7v4c0 5 3 6 9 6h166c6 0 9 -1 9 -6v-3c0 -6 -3 -7 -9 -7h-3c-18 0 -30 -5 -54 -50c-11 -21 -26 -53 -45 -96l-74 -176v-244c0 -73 1 -76 18 -76h26c6 0 9 -1 9 -7v-4c0 -5 -3 -6 -9 -6zM371 860l59 -151c2 -4 2 -7 -1 -8l-3 -2
c-2 -2 -5 -1 -9 2l-104 94h-1l-104 -94c-5 -3 -8 -4 -10 -2l-2 2c-3 2 -3 4 -2 8l60 151c13 30 28 47 59 47c30 0 45 -16 58 -47z" />
    <glyph glyph-name="Ydieresis" unicode="&#x178;" horiz-adv-x="548" 
d="M402 0h-257c-6 0 -9 1 -9 6v4c0 6 3 7 9 7h25c18 0 19 3 19 76v219l-97 233c-45 109 -49 113 -73 113h-5c-6 0 -9 1 -9 7v4c0 5 3 6 9 6h268c6 0 9 -1 9 -6v-4c0 -6 -3 -7 -9 -7h-10c-14 0 -21 -3 -21 -16c0 -16 9 -45 31 -97l69 -165h1l43 111c16 44 27 85 27 115
c0 33 -11 52 -39 52h-15c-6 0 -9 1 -9 7v4c0 5 3 6 9 6h166c6 0 9 -1 9 -6v-3c0 -6 -3 -7 -9 -7h-3c-18 0 -30 -5 -54 -50c-11 -21 -26 -53 -45 -96l-74 -176v-244c0 -73 1 -76 18 -76h26c6 0 9 -1 9 -7v-4c0 -5 -3 -6 -9 -6zM465 811c0 -48 -29 -82 -71 -82h-1
c-43 0 -74 33 -74 82c0 48 29 81 73 81c43 0 73 -33 73 -81zM294 811c0 -48 -29 -82 -71 -82c-44 0 -75 33 -75 82c0 48 29 81 74 81c42 0 72 -33 72 -81z" />
    <glyph glyph-name="Zacute" unicode="&#x179;" horiz-adv-x="514" 
d="M471 0h-429c-4 0 -6 3 -6 10v21c0 5 0 9 3 15l241 607h-92c-75 0 -118 -94 -118 -193v-24c0 -6 -1 -9 -6 -9h-5c-7 0 -8 3 -8 9v230c0 6 1 9 7 9h399c5 0 7 -3 7 -10v-23c0 -4 -1 -8 -3 -14l-243 -606h118c78 0 127 110 132 209l1 27c0 6 2 9 7 9h4c6 0 7 -3 7 -10
l-10 -248c0 -6 -1 -9 -6 -9zM374 788l-116 -87c-5 -3 -6 -4 -9 -2l-3 2c-3 1 -3 2 -2 8l44 141c11 38 29 57 55 57c38 0 69 -31 69 -61c0 -24 -14 -40 -38 -58z" />
    <glyph glyph-name="Zcaron" unicode="&#x17d;" horiz-adv-x="514" 
d="M471 0h-429c-4 0 -6 3 -6 10v21c0 5 0 9 3 15l241 607h-92c-75 0 -118 -94 -118 -193v-24c0 -6 -1 -9 -6 -9h-5c-7 0 -8 3 -8 9v230c0 6 1 9 7 9h399c5 0 7 -3 7 -10v-23c0 -4 -1 -8 -3 -14l-243 -606h118c78 0 127 110 132 209l1 27c0 6 2 9 7 9h4c6 0 7 -3 7 -10
l-10 -248c0 -6 -1 -9 -6 -9zM322 745c-13 -31 -28 -47 -58 -47c-31 0 -46 17 -59 47l-60 151c-1 4 -1 7 2 8l2 2c3 2 5 1 10 -2l104 -94h1l104 94c4 3 7 4 9 2l3 -2c3 -1 3 -4 1 -8z" />
    <glyph glyph-name="Zdotaccent" unicode="&#x17b;" horiz-adv-x="514" 
d="M471 0h-429c-4 0 -6 3 -6 10v21c0 5 0 9 3 15l241 607h-92c-75 0 -118 -94 -118 -193v-24c0 -6 -1 -9 -6 -9h-5c-7 0 -8 3 -8 9v230c0 6 1 9 7 9h399c5 0 7 -3 7 -10v-23c0 -4 -1 -8 -3 -14l-243 -606h118c78 0 127 110 132 209l1 27c0 6 2 9 7 9h4c6 0 7 -3 7 -10
l-10 -248c0 -6 -1 -9 -6 -9zM354 805c0 -50 -35 -86 -87 -86c-51 0 -87 34 -87 86c0 49 35 84 87 84s87 -35 87 -84z" />
    <glyph glyph-name="Eng" unicode="&#x14a;" horiz-adv-x="538" 
d="M354 -200c-64 0 -107 43 -107 99c0 32 19 49 54 49c37 0 51 -21 51 -49c0 -25 -7 -49 -23 -72c8 -4 17 -6 26 -6c56 0 86 52 86 146v33l-345 524h-2v-292c0 -171 27 -215 73 -215h25c6 0 9 -1 9 -7v-4c0 -5 -3 -6 -9 -6h-178c-6 0 -9 1 -9 6v4c0 6 3 7 9 7h7
c32 0 49 45 49 215v339c0 79 -6 87 -26 87h-25c-6 0 -9 1 -9 7v4c0 5 3 6 9 6h184c6 0 8 -2 12 -7l225 -353h1v128c0 171 -26 215 -72 215h-25c-6 0 -9 1 -9 7v4c0 5 3 6 9 6h178c6 0 9 -1 9 -6v-4c0 -6 -3 -7 -9 -7h-8c-31 0 -49 -45 -49 -215v-475
c0 -105 -37 -168 -111 -168z" />
    <glyph glyph-name="Eth" unicode="&#xd0;" horiz-adv-x="607" 
d="M589 345c0 -223 -112 -345 -263 -345h-300c-6 0 -9 1 -9 6v4c0 6 3 7 9 7h24c19 0 20 3 20 76v256h-44c-7 0 -9 2 -9 8v6c0 6 2 9 9 9h44v210c0 73 -1 76 -20 76h-25c-6 0 -9 1 -9 7v4c0 5 3 6 9 6h287c172 0 277 -108 277 -330zM407 338c0 238 -37 315 -126 315h-42
v-281h76c7 0 10 -3 10 -9v-6c0 -6 -3 -8 -10 -8h-76v-327h52c83 0 116 92 116 316z" />
    <glyph glyph-name="Thorn" unicode="&#xde;" horiz-adv-x="542" 
d="M304 0h-278c-6 0 -9 1 -9 6v4c0 6 3 7 9 7h24c19 0 20 3 20 76v489c0 73 -1 76 -20 76h-26c-5 0 -8 1 -8 7v4c0 5 3 6 8 6h258c6 0 9 -1 9 -6v-4c0 -6 -3 -7 -9 -7h-24c-19 0 -19 -4 -19 -75h95c87 0 188 -41 188 -197c0 -142 -88 -201 -203 -201h-80v-92
c0 -73 1 -76 18 -76h47c6 0 9 -1 9 -7v-4c0 -5 -3 -6 -9 -6zM273 207c50 0 74 45 74 178c0 147 -29 176 -75 176h-33v-354h34z" />
    <glyph glyph-name="a" unicode="a" horiz-adv-x="491" 
d="M427 96c0 -60 7 -73 21 -73c13 0 21 17 24 42c2 6 3 8 8 7l5 -1c5 -1 6 -3 5 -10c-7 -48 -36 -74 -95 -74c-62 0 -109 34 -117 103h-2c-19 -71 -68 -103 -130 -103c-74 0 -125 48 -125 142c0 87 48 120 148 155c101 35 101 45 101 78v34c0 87 -29 119 -78 119
c-28 0 -51 -10 -69 -23c25 -37 34 -69 34 -92c0 -32 -17 -55 -59 -55c-40 0 -64 17 -64 56c0 64 82 139 198 139c95 0 195 -38 195 -171v-273zM270 117v192c-19 -9 -37 -20 -54 -32c-34 -26 -45 -66 -45 -126c0 -87 18 -113 41 -113c28 0 45 34 58 79z" />
    <glyph glyph-name="b" unicode="b" horiz-adv-x="523" 
d="M507 273c0 -180 -70 -286 -190 -286c-51 0 -89 26 -115 63h-2l-115 -52c-7 -3 -11 -5 -17 -5h-2c-5 0 -6 2 -6 8v647c0 73 -1 76 -19 76h-25c-5 0 -8 1 -8 7v2c0 6 3 7 8 7h193c5 0 7 -5 7 -14v-266h2c22 52 60 80 124 80c99 0 165 -104 165 -267zM339 263
c0 164 -15 226 -60 226c-34 0 -49 -35 -63 -80v-347c10 -20 29 -37 55 -37c46 0 68 67 68 238z" />
    <glyph glyph-name="c" unicode="c" horiz-adv-x="427" 
d="M410 167c-4 -100 -49 -180 -159 -180c-142 0 -236 101 -236 269c0 172 85 284 237 284c83 0 151 -55 151 -120c0 -42 -27 -63 -72 -63c-47 0 -66 27 -66 62c0 33 15 63 35 94c-9 5 -21 8 -36 8c-67 0 -81 -83 -81 -256c0 -147 16 -247 102 -247c63 0 100 61 104 152
c1 6 3 10 8 10l7 -1c5 0 7 -4 6 -12z" />
    <glyph glyph-name="d" unicode="d" horiz-adv-x="523" 
d="M505 0h-181c-7 0 -9 5 -9 14v74h-2c-22 -69 -63 -101 -132 -101c-99 0 -165 104 -165 267c0 179 70 286 190 286c42 0 77 -19 100 -46h1v151c0 76 -1 79 -20 79h-28c-5 0 -8 1 -8 7v2c0 6 3 7 8 7h197c5 0 8 -3 8 -11v-637c0 -73 1 -76 18 -76h23c7 0 10 -1 10 -7v-2
c0 -6 -3 -7 -10 -7zM307 118v347c-10 19 -29 37 -55 37c-46 0 -67 -67 -67 -238c0 -165 15 -226 59 -226c34 0 50 35 63 80z" />
    <glyph glyph-name="e" unicode="e" horiz-adv-x="468" 
d="M447 168c-7 -100 -57 -181 -181 -181c-154 0 -250 101 -250 269c0 172 88 284 231 284c108 0 201 -70 201 -223v-4c0 -23 -8 -30 -36 -30h-228v-18c0 -145 17 -247 116 -247c77 0 119 60 126 152c1 6 3 10 8 10l6 -1c6 0 7 -5 7 -11zM303 345c0 134 -14 176 -58 176
c-47 0 -61 -55 -61 -217h81c29 0 38 8 38 41z" />
    <glyph glyph-name="f" unicode="f" horiz-adv-x="310" 
d="M287 0h-264c-6 0 -9 1 -9 6v3c0 6 3 7 9 7h24c18 0 19 3 19 76v415h-43c-6 0 -9 1 -9 6v5c0 6 3 7 9 7l43 2v41c0 110 84 172 201 172c69 0 134 -43 134 -102c0 -43 -27 -62 -69 -62c-45 0 -64 24 -64 59c0 28 12 52 30 82c-5 3 -14 4 -21 4c-37 0 -55 -29 -55 -87v-107
h77c6 0 9 -1 9 -7v-7c0 -5 -3 -6 -9 -6h-77v-415c0 -73 1 -76 19 -76h46c6 0 9 -1 9 -7v-3c0 -5 -3 -6 -9 -6z" />
    <glyph glyph-name="g" unicode="g" horiz-adv-x="469" 
d="M466 -19c0 -93 -84 -181 -241 -181c-130 0 -204 47 -204 114c0 45 30 71 81 87v2c-37 20 -63 59 -63 113c0 55 21 89 54 105c-48 31 -70 77 -70 140c0 106 71 179 201 179c34 0 64 -5 89 -13h122c6 0 9 -1 9 -6v-4c0 -6 -3 -7 -9 -7l-83 -2c42 -28 65 -74 65 -134
c0 -106 -73 -180 -200 -180c-42 0 -78 6 -105 17c-23 -8 -35 -24 -35 -40c0 -24 16 -37 56 -38l177 -5c96 -3 156 -51 156 -147zM353 -82c0 54 -30 72 -83 74l-146 5c-17 -14 -27 -36 -27 -68c0 -68 49 -107 131 -107c75 0 125 33 125 96zM264 374c0 109 -9 147 -44 147
s-44 -43 -44 -159c0 -110 9 -150 44 -150s44 45 44 162z" />
    <glyph glyph-name="h" unicode="h" horiz-adv-x="552" 
d="M533 0h-234c-6 0 -9 1 -9 6v3c0 6 3 7 9 7h16c18 0 19 3 19 76v320c0 56 -10 86 -45 86s-52 -38 -66 -89v-317c0 -73 1 -76 19 -76h16c6 0 9 -1 9 -7v-3c0 -5 -3 -6 -9 -6h-234c-6 0 -9 1 -9 6v3c0 6 3 7 9 7h23c18 0 19 3 19 76v556c0 73 -1 76 -19 76h-23
c-6 0 -9 1 -9 7v3c0 5 3 6 9 6h190c6 0 9 -5 9 -14v-265h1c19 47 58 79 127 79c66 0 140 -38 140 -162v-286c0 -73 1 -76 19 -76h23c6 0 9 -1 9 -7v-3c0 -5 -3 -6 -9 -6z" />
    <glyph glyph-name="i" unicode="i" horiz-adv-x="289" 
d="M265 0h-241c-6 0 -9 1 -9 6v3c0 6 3 7 9 7h23c18 0 19 3 19 76v344c0 73 -1 76 -19 76h-23c-6 0 -9 1 -9 6v3c0 5 3 6 9 6h190c6 0 9 -5 9 -14v-421c0 -73 1 -76 19 -76h23c6 0 9 -1 9 -7v-3c0 -5 -3 -6 -9 -6zM231 676c0 -51 -35 -86 -85 -86c-52 0 -89 34 -89 86
c0 50 35 84 87 84c51 0 87 -34 87 -84z" />
    <glyph glyph-name="j" unicode="j" horiz-adv-x="281" 
d="M222 -27c0 -108 -81 -173 -202 -173c-64 0 -128 39 -128 97c0 41 25 60 67 60c43 0 60 -23 60 -56c0 -27 -10 -50 -28 -79c5 -2 15 -3 21 -3c37 0 54 30 54 88v529c0 73 -1 76 -19 76h-24c-6 0 -9 1 -9 6v3c0 5 3 6 9 6h190c7 0 9 -5 9 -14v-540zM230 676
c0 -50 -34 -86 -84 -86c-52 0 -90 34 -90 86c0 50 35 84 88 84c51 0 86 -34 86 -84z" />
    <glyph glyph-name="k" unicode="k" horiz-adv-x="530" 
d="M518 0h-180c-6 0 -8 1 -10 8l-87 231c-12 -17 -18 -36 -18 -99v-48c0 -73 1 -76 19 -76h21c6 0 8 -1 8 -7v-3c0 -5 -2 -6 -8 -6h-241c-5 0 -7 1 -7 6v3c0 6 2 7 7 7h25c18 0 19 3 19 76v556c0 73 -1 76 -19 76h-25c-5 0 -7 1 -7 7v3c0 5 2 6 7 6h194c5 0 7 -5 7 -14v-481
h2c9 24 46 69 110 151c19 24 37 52 37 78s-11 38 -33 38h-30c-5 0 -7 1 -7 7v2c0 5 2 6 7 6h196c5 0 7 -1 7 -6v-2c0 -6 -2 -7 -7 -7h-10c-35 0 -61 -22 -110 -82l-32 -41l114 -297c29 -74 34 -76 45 -76h6c5 0 7 -1 7 -7v-3c0 -5 -2 -6 -7 -6z" />
    <glyph glyph-name="l" unicode="l" horiz-adv-x="289" 
d="M265 0h-241c-6 0 -9 1 -9 6v3c0 6 3 7 9 7h23c18 0 19 3 19 76v556c0 73 -1 76 -19 76h-23c-6 0 -9 1 -9 7v3c0 5 3 6 9 6h190c6 0 9 -5 9 -14v-634c0 -73 1 -76 19 -76h23c6 0 9 -1 9 -7v-3c0 -5 -3 -6 -9 -6z" />
    <glyph glyph-name="m" unicode="m" horiz-adv-x="811" 
d="M794 0h-234c-6 0 -9 1 -9 6v3c0 6 3 7 9 7h16c17 0 18 3 18 76v320c0 56 -8 86 -43 86s-50 -38 -64 -89v-317c0 -73 1 -76 19 -76h16c6 0 9 -1 9 -7v-3c0 -5 -3 -6 -9 -6h-227c-6 0 -9 1 -9 6v3c0 6 3 7 9 7h16c18 0 19 3 19 76v320c0 56 -8 86 -43 86s-50 -38 -64 -89
v-317c0 -73 1 -76 19 -76h16c6 0 9 -1 9 -7v-3c0 -5 -3 -6 -9 -6h-234c-6 0 -9 1 -9 6v3c0 6 3 7 9 7h23c18 0 19 3 19 76v344c0 73 -1 76 -19 76h-23c-6 0 -9 1 -9 6v3c0 5 3 6 9 6h182c7 0 9 -5 9 -14v-74h2c18 69 63 101 132 101c53 0 111 -25 131 -100h1
c18 69 62 100 132 100c66 0 138 -38 138 -162v-286c0 -73 1 -76 19 -76h24c6 0 9 -1 9 -7v-3c0 -5 -3 -6 -9 -6z" />
    <glyph glyph-name="n" unicode="n" horiz-adv-x="559" 
d="M542 0h-234c-6 0 -9 1 -9 6v3c0 6 3 7 9 7h16c18 0 19 3 19 76v320c0 56 -11 86 -49 86c-39 0 -56 -38 -71 -89v-317c0 -73 1 -76 19 -76h16c6 0 9 -1 9 -7v-3c0 -5 -3 -6 -9 -6h-234c-6 0 -9 1 -9 6v3c0 6 3 7 9 7h23c18 0 19 3 19 76v344c0 73 -1 76 -19 76h-23
c-6 0 -9 1 -9 6v3c0 5 3 6 9 6h182c7 0 9 -5 9 -14v-74h2c19 69 66 101 138 101c69 0 144 -38 144 -162v-286c0 -73 1 -76 19 -76h24c6 0 9 -1 9 -7v-3c0 -5 -3 -6 -9 -6z" />
    <glyph glyph-name="o" unicode="o" horiz-adv-x="503" 
d="M486 275c0 -166 -82 -288 -238 -288c-153 0 -232 103 -232 267c0 167 83 286 240 286c153 0 230 -100 230 -265zM318 274c0 183 -14 244 -66 244c-51 0 -66 -67 -66 -263c0 -184 14 -246 65 -246c52 0 67 70 67 265z" />
    <glyph glyph-name="p" unicode="p" horiz-adv-x="523" 
d="M506 273c0 -180 -69 -286 -189 -286c-42 0 -77 19 -100 46h-2v-138c0 -75 1 -79 21 -79h38c6 0 9 -1 9 -7v-3c0 -5 -3 -6 -9 -6h-257c-6 0 -9 1 -9 6v3c0 6 3 7 9 7h22c19 0 20 4 20 79v540c0 74 -1 77 -19 77h-23c-6 0 -9 1 -9 6v2c0 6 3 7 9 7h182c6 0 9 -5 9 -14v-74
h2c21 68 63 101 132 101c99 0 164 -104 164 -267zM338 263c0 164 -15 226 -59 226c-34 0 -50 -35 -63 -80v-347c10 -20 29 -37 55 -37c46 0 67 67 67 238z" />
    <glyph glyph-name="q" unicode="q" horiz-adv-x="522" 
d="M505 -200h-256c-6 0 -9 1 -9 6v3c0 6 3 7 9 7h38c19 0 20 4 20 79v172h-1c-22 -52 -60 -80 -125 -80c-99 0 -165 104 -165 267c0 179 70 286 190 286c51 0 89 -26 115 -63h2l115 52c6 3 11 5 17 5h2c5 0 6 -2 6 -8v-631c0 -75 1 -79 20 -79h22c7 0 10 -1 10 -7v-3
c0 -5 -3 -6 -10 -6zM307 118v347c-10 19 -29 37 -55 37c-46 0 -67 -67 -67 -238c0 -165 15 -226 59 -226c34 0 50 35 63 80z" />
    <glyph glyph-name="r" unicode="r" horiz-adv-x="416" 
d="M287 0h-263c-6 0 -9 1 -9 6v3c0 6 3 7 9 7h23c18 0 19 3 19 76v341c0 75 -2 79 -20 79h-22c-6 0 -9 1 -9 6v3c0 5 3 6 9 6h181c7 0 9 -5 9 -14v-79h2c24 71 54 106 103 106c50 0 92 -53 92 -114c0 -43 -27 -66 -71 -66c-45 0 -66 28 -66 62c0 33 17 64 40 91
c-3 2 -7 3 -11 3c-36 0 -61 -51 -80 -110v-314c0 -73 1 -76 19 -76h45c6 0 9 -1 9 -7v-3c0 -5 -3 -6 -9 -6z" />
    <glyph glyph-name="s" unicode="s" horiz-adv-x="381" 
d="M362 158c0 -111 -90 -171 -190 -171c-40 0 -86 10 -120 32l-3 -15c-1 -7 -2 -10 -7 -10h-3c-6 0 -7 3 -7 10l-8 172c0 6 1 9 8 9h3c6 0 7 -3 7 -9l1 -17c4 -60 57 -151 127 -151c42 0 68 25 68 70c0 62 -39 94 -95 131c-59 39 -109 83 -109 169c0 90 64 162 173 162
c38 0 75 -12 103 -32l2 17c0 7 2 10 7 10h3c5 0 6 -4 6 -10v-160c0 -7 -1 -10 -7 -10h-3c-6 0 -7 3 -7 10v6c0 75 -46 149 -101 149c-37 0 -55 -26 -55 -63c0 -57 39 -89 94 -125c59 -40 113 -83 113 -174z" />
    <glyph glyph-name="t" unicode="t" horiz-adv-x="316" 
d="M311 86c-4 -72 -36 -99 -102 -99c-80 0 -149 46 -149 166v354h-43c-6 0 -9 1 -9 6v5c0 6 3 7 9 7l43 2v101c0 6 2 9 7 11c39 13 99 38 129 61c6 5 8 6 13 6h1c6 0 7 -1 7 -7v-172h77c6 0 9 -1 9 -7v-7c0 -5 -3 -6 -9 -6h-77v-411c0 -53 4 -80 33 -80c25 0 39 25 41 71
c1 6 2 10 8 9h5c6 -1 7 -4 7 -10z" />
    <glyph glyph-name="u" unicode="u" horiz-adv-x="550" 
d="M527 0h-183c-6 0 -9 5 -9 14v74h-1c-19 -70 -65 -101 -134 -101c-67 0 -140 38 -140 162v287c0 73 -1 76 -19 76h-24c-6 0 -9 1 -9 7v2c0 5 3 6 9 6h190c7 0 9 -5 9 -14v-398c0 -56 10 -85 46 -85c35 0 51 37 66 88v318c0 73 -1 76 -19 76h-18c-6 0 -9 1 -9 7v2
c0 5 3 6 9 6h185c6 0 9 -5 9 -14v-421c0 -73 1 -76 19 -76h23c6 0 9 -1 9 -7v-3c0 -5 -3 -6 -9 -6z" />
    <glyph glyph-name="v" unicode="v" horiz-adv-x="457" 
d="M443 512h-3c-12 0 -18 -12 -36 -67c-5 -19 -18 -60 -30 -100l-101 -351c-2 -5 -3 -7 -9 -7h-66c-5 0 -7 1 -9 7l-124 431c-25 85 -26 87 -47 87h-4c-6 0 -9 1 -9 7v2c0 5 3 6 9 6h234c6 0 9 -1 9 -6v-2c0 -6 -3 -7 -9 -7h-10c-11 0 -17 -2 -17 -16c0 -12 4 -33 14 -71
l66 -250h1l46 162c9 34 21 81 21 116c0 40 -15 59 -39 59h-17c-6 0 -9 1 -9 7v2c0 5 3 6 9 6h130c6 0 9 -1 9 -6v-2c0 -6 -3 -7 -9 -7z" />
    <glyph glyph-name="w" unicode="w" horiz-adv-x="713" 
d="M699 512h-5c-17 0 -21 -11 -39 -67c-5 -18 -16 -59 -26 -100l-87 -351c-2 -5 -3 -7 -8 -7h-68c-5 0 -6 1 -8 7l-94 371h-2l-105 -371c-1 -5 -2 -7 -8 -7h-67c-5 0 -7 1 -8 7l-108 431c-22 86 -23 87 -43 87h-9c-6 0 -9 1 -9 7v2c0 5 3 6 9 6h236c6 0 9 -1 9 -6v-2
c0 -6 -3 -7 -9 -7h-8c-13 0 -19 -1 -19 -18c0 -12 4 -33 11 -69l52 -252h1l46 168c9 30 18 72 18 104c0 46 -13 67 -36 67h-8c-6 0 -9 1 -9 7v2c0 5 3 6 9 6h208c6 0 9 -1 9 -6v-2c0 -6 -3 -7 -9 -7h-8c-11 0 -17 -2 -17 -16c0 -12 4 -33 13 -71l62 -252h1l38 164
c8 35 16 81 16 116c0 40 -14 59 -37 59h-8c-6 0 -9 1 -9 7v2c0 5 3 6 9 6h124c6 0 9 -1 9 -6v-2c0 -6 -3 -7 -9 -7z" />
    <glyph glyph-name="x" unicode="x" horiz-adv-x="474" 
d="M449 512h-3c-21 0 -35 -7 -87 -114l-49 -101l85 -193c36 -84 39 -88 57 -88h9c5 0 7 -1 7 -7v-3c0 -5 -2 -6 -7 -6h-247c-4 0 -7 1 -7 6v3c0 6 3 7 7 7h11c11 0 18 2 18 14s-8 35 -25 74l-48 110h-1l-31 -68c-15 -34 -26 -67 -26 -89c0 -27 7 -41 29 -41h12
c5 0 7 -1 7 -7v-3c0 -5 -2 -6 -7 -6h-139c-5 0 -7 1 -7 6v3c0 6 2 7 7 7h4c22 0 36 5 88 112l53 110l-80 186c-37 83 -40 88 -57 88h-8c-6 0 -9 1 -9 7v2c0 5 3 6 9 6h243c6 0 9 -1 9 -6v-2c0 -6 -3 -7 -9 -7h-8c-11 0 -17 -4 -17 -15c0 -12 7 -34 23 -73l43 -103h2l27 59
c15 34 26 68 26 91c0 27 -8 41 -29 41h-10c-6 0 -9 1 -9 7v2c0 5 3 6 9 6h135c6 0 9 -1 9 -6v-2c0 -6 -3 -7 -9 -7z" />
    <glyph glyph-name="y" unicode="y" horiz-adv-x="461" 
d="M448 512h-4c-18 0 -22 -11 -40 -67c-6 -19 -18 -60 -29 -100l-103 -396c-11 -40 -16 -69 -16 -92c0 -28 9 -41 31 -41h20c5 0 7 -1 7 -7v-3c0 -5 -2 -6 -7 -6h-158c-5 0 -8 1 -8 6v3c0 6 3 7 8 7h22c39 0 54 41 79 134l9 34c2 7 0 10 -5 10h-37c-4 0 -6 1 -9 7l-142 424
c-28 85 -32 87 -49 87h-5c-4 0 -7 1 -7 7v2c0 5 3 6 7 6h237c5 0 7 -1 7 -6v-2c0 -6 -2 -7 -7 -7h-11c-11 0 -17 -2 -17 -16c0 -12 5 -33 17 -71l74 -238h1l37 150c9 34 19 81 19 116c0 40 -14 59 -38 59h-18c-5 0 -8 1 -8 7v2c0 5 3 6 8 6h135c5 0 8 -1 8 -6v-2
c0 -6 -3 -7 -8 -7z" />
    <glyph glyph-name="z" unicode="z" horiz-adv-x="406" 
d="M377 0h-351c-5 0 -7 1 -7 7v1c0 4 2 10 4 17l182 487h-58c-55 0 -89 -59 -89 -144v-23c0 -7 -2 -10 -7 -10h-3c-7 0 -8 3 -8 10v172c0 6 1 10 6 10h327c6 0 7 -1 7 -7v-1c0 -4 -1 -10 -4 -16l-183 -488h67c67 0 106 80 110 148l2 45c0 6 1 9 7 9h3c7 0 8 -2 8 -9l-7 -198
c0 -7 -1 -10 -6 -10z" />
    <glyph glyph-name="agrave" unicode="&#xe0;" horiz-adv-x="491" 
d="M427 96c0 -60 7 -73 21 -73c13 0 21 17 24 42c2 6 3 8 8 7l5 -1c5 -1 6 -3 5 -10c-7 -48 -36 -74 -95 -74c-62 0 -109 34 -117 103h-2c-19 -71 -68 -103 -130 -103c-74 0 -125 48 -125 142c0 87 48 120 148 155c101 35 101 45 101 78v34c0 87 -29 119 -78 119
c-28 0 -51 -10 -69 -23c25 -37 34 -69 34 -92c0 -32 -17 -55 -59 -55c-40 0 -64 17 -64 56c0 64 82 139 198 139c95 0 195 -38 195 -171v-273zM270 117v192c-19 -9 -37 -20 -54 -32c-34 -26 -45 -66 -45 -126c0 -87 18 -113 41 -113c28 0 45 34 58 79zM125 633
c-28 17 -41 36 -41 59c0 31 32 61 66 61c29 0 45 -20 59 -59l50 -125c2 -6 2 -7 -1 -9l-3 -2c-2 -2 -4 -1 -9 2z" />
    <glyph glyph-name="aacute" unicode="&#xe1;" horiz-adv-x="491" 
d="M427 96c0 -60 7 -73 21 -73c13 0 21 17 24 42c2 6 3 8 8 7l5 -1c5 -1 6 -3 5 -10c-7 -48 -36 -74 -95 -74c-62 0 -109 34 -117 103h-2c-19 -71 -68 -103 -130 -103c-74 0 -125 48 -125 142c0 87 48 120 148 155c101 35 101 45 101 78v34c0 87 -29 119 -78 119
c-28 0 -51 -10 -69 -23c25 -37 34 -69 34 -92c0 -32 -17 -55 -59 -55c-40 0 -64 17 -64 56c0 64 82 139 198 139c95 0 195 -38 195 -171v-273zM270 117v192c-19 -9 -37 -20 -54 -32c-34 -26 -45 -66 -45 -126c0 -87 18 -113 41 -113c28 0 45 34 58 79zM358 633l-121 -73
c-5 -3 -6 -4 -9 -2l-3 2c-3 1 -3 3 -1 9l50 125c15 39 30 59 59 59c34 0 66 -30 66 -61c0 -23 -13 -42 -41 -59z" />
    <glyph glyph-name="acircumflex" unicode="&#xe2;" horiz-adv-x="491" 
d="M427 96c0 -60 7 -73 21 -73c13 0 21 17 24 42c2 6 3 8 8 7l5 -1c5 -1 6 -3 5 -10c-7 -48 -36 -74 -95 -74c-62 0 -109 34 -117 103h-2c-19 -71 -68 -103 -130 -103c-74 0 -125 48 -125 142c0 87 48 120 148 155c101 35 101 45 101 78v34c0 87 -29 119 -78 119
c-28 0 -51 -10 -69 -23c25 -37 34 -69 34 -92c0 -32 -17 -55 -59 -55c-40 0 -64 17 -64 56c0 64 82 139 198 139c95 0 195 -38 195 -171v-273zM270 117v192c-19 -9 -37 -20 -54 -32c-34 -26 -45 -66 -45 -126c0 -87 18 -113 41 -113c28 0 45 34 58 79zM348 561l-103 84h-1
l-103 -84c-4 -4 -7 -5 -10 -3l-2 2c-3 2 -3 4 -1 9l58 136c14 31 28 48 58 48c31 0 45 -17 59 -48l58 -136c2 -5 1 -7 -1 -9l-3 -2c-2 -2 -5 -1 -9 3z" />
    <glyph glyph-name="atilde" unicode="&#xe3;" horiz-adv-x="491" 
d="M427 96c0 -60 7 -73 21 -73c13 0 21 17 24 42c2 6 3 8 8 7l5 -1c5 -1 6 -3 5 -10c-7 -48 -36 -74 -95 -74c-62 0 -109 34 -117 103h-2c-19 -71 -68 -103 -130 -103c-74 0 -125 48 -125 142c0 87 48 120 148 155c101 35 101 45 101 78v34c0 87 -29 119 -78 119
c-28 0 -51 -10 -69 -23c25 -37 34 -69 34 -92c0 -32 -17 -55 -59 -55c-40 0 -64 17 -64 56c0 64 82 139 198 139c95 0 195 -38 195 -171v-273zM270 117v192c-19 -9 -37 -20 -54 -32c-34 -26 -45 -66 -45 -126c0 -87 18 -113 41 -113c28 0 45 34 58 79zM363 768
c0 -98 -13 -162 -69 -162c-37 0 -79 24 -113 24c-27 0 -40 -23 -40 -52c0 -7 -1 -10 -6 -10h-2c-6 0 -7 3 -7 10c0 98 12 162 69 162c37 0 79 -24 113 -24c26 0 39 22 39 52c0 7 1 10 7 10h2c6 0 7 -3 7 -10z" />
    <glyph glyph-name="adieresis" unicode="&#xe4;" horiz-adv-x="491" 
d="M427 96c0 -60 7 -73 21 -73c13 0 21 17 24 42c2 6 3 8 8 7l5 -1c5 -1 6 -3 5 -10c-7 -48 -36 -74 -95 -74c-62 0 -109 34 -117 103h-2c-19 -71 -68 -103 -130 -103c-74 0 -125 48 -125 142c0 87 48 120 148 155c101 35 101 45 101 78v34c0 87 -29 119 -78 119
c-28 0 -51 -10 -69 -23c25 -37 34 -69 34 -92c0 -32 -17 -55 -59 -55c-40 0 -64 17 -64 56c0 64 82 139 198 139c95 0 195 -38 195 -171v-273zM270 117v192c-19 -9 -37 -20 -54 -32c-34 -26 -45 -66 -45 -126c0 -87 18 -113 41 -113c28 0 45 34 58 79zM403 673
c0 -49 -29 -82 -71 -82h-1c-43 0 -74 32 -74 82c0 48 29 80 73 80c43 0 73 -32 73 -80zM232 673c0 -49 -29 -82 -71 -82c-44 0 -75 32 -75 82c0 48 29 80 74 80c42 0 72 -32 72 -80z" />
    <glyph glyph-name="amacron" unicode="&#x101;" horiz-adv-x="491" 
d="M427 96c0 -60 7 -73 21 -73c13 0 21 17 24 42c2 6 3 8 8 7l5 -1c5 -1 6 -3 5 -10c-7 -48 -36 -74 -95 -74c-62 0 -109 34 -117 103h-2c-19 -71 -68 -103 -130 -103c-74 0 -125 48 -125 142c0 87 48 120 148 155c101 35 101 45 101 78v34c0 87 -29 119 -78 119
c-28 0 -51 -10 -69 -23c25 -37 34 -69 34 -92c0 -32 -17 -55 -59 -55c-40 0 -64 17 -64 56c0 64 82 139 198 139c95 0 195 -38 195 -171v-273zM270 117v192c-19 -9 -37 -20 -54 -32c-34 -26 -45 -66 -45 -126c0 -87 18 -113 41 -113c28 0 45 34 58 79zM351 636h-213
c-7 0 -8 2 -8 9v77c0 7 1 9 8 9h213c7 0 8 -2 8 -9v-77c0 -7 -1 -9 -8 -9z" />
    <glyph glyph-name="abreve" unicode="&#x103;" horiz-adv-x="491" 
d="M427 96c0 -60 7 -73 21 -73c13 0 21 17 24 42c2 6 3 8 8 7l5 -1c5 -1 6 -3 5 -10c-7 -48 -36 -74 -95 -74c-62 0 -109 34 -117 103h-2c-19 -71 -68 -103 -130 -103c-74 0 -125 48 -125 142c0 87 48 120 148 155c101 35 101 45 101 78v34c0 87 -29 119 -78 119
c-28 0 -51 -10 -69 -23c25 -37 34 -69 34 -92c0 -32 -17 -55 -59 -55c-40 0 -64 17 -64 56c0 64 82 139 198 139c95 0 195 -38 195 -171v-273zM270 117v192c-19 -9 -37 -20 -54 -32c-34 -26 -45 -66 -45 -126c0 -87 18 -113 41 -113c28 0 45 34 58 79zM356 743
c0 -93 -28 -174 -112 -174s-111 78 -111 174c0 7 1 11 7 11h1c6 0 7 -4 7 -11c0 -42 29 -76 96 -76s97 34 97 76c0 7 1 11 7 11h1c6 0 7 -4 7 -11z" />
    <glyph glyph-name="aring" unicode="&#xe5;" horiz-adv-x="491" 
d="M427 96c0 -60 7 -73 21 -73c13 0 21 17 24 42c2 6 3 8 8 7l5 -1c5 -1 6 -3 5 -10c-7 -48 -36 -74 -95 -74c-62 0 -109 34 -117 103h-2c-19 -71 -68 -103 -130 -103c-74 0 -125 48 -125 142c0 87 48 120 148 155c101 35 101 45 101 78v34c0 87 -29 119 -78 119
c-28 0 -51 -10 -69 -23c25 -37 34 -69 34 -92c0 -32 -17 -55 -59 -55c-40 0 -64 17 -64 56c0 64 82 139 198 139c95 0 195 -38 195 -171v-273zM270 117v192c-19 -9 -37 -20 -54 -32c-34 -26 -45 -66 -45 -126c0 -87 18 -113 41 -113c28 0 45 34 58 79zM353 663
c0 -54 -36 -100 -110 -100c-71 0 -107 38 -107 92c0 55 36 98 109 98c71 0 108 -37 108 -90zM274 660c0 52 -7 79 -30 79c-22 0 -29 -28 -29 -82c0 -51 7 -80 29 -80c23 0 30 30 30 83z" />
    <glyph glyph-name="aringacute" unicode="&#x1fb;" horiz-adv-x="491" 
d="M427 96c0 -60 7 -73 21 -73c13 0 21 17 24 42c2 6 3 8 8 7l5 -1c5 -1 6 -3 5 -10c-7 -48 -36 -74 -95 -74c-62 0 -109 34 -117 103h-2c-19 -71 -68 -103 -130 -103c-74 0 -125 48 -125 142c0 87 48 120 148 155c101 35 101 45 101 78v34c0 87 -29 119 -78 119
c-28 0 -51 -10 -69 -23c25 -37 34 -69 34 -92c0 -32 -17 -55 -59 -55c-40 0 -64 17 -64 56c0 64 82 139 198 139c95 0 195 -38 195 -171v-273zM270 117v192c-19 -9 -37 -20 -54 -32c-34 -26 -45 -66 -45 -126c0 -87 18 -113 41 -113c28 0 45 34 58 79zM353 663
c0 -54 -36 -100 -110 -100c-71 0 -107 38 -107 92c0 55 36 98 109 98c71 0 108 -37 108 -90zM274 660c0 52 -7 79 -30 79c-22 0 -29 -28 -29 -82c0 -51 7 -80 29 -80c23 0 30 30 30 83zM361 845l-121 -73c-5 -3 -6 -4 -9 -2l-3 2c-3 1 -3 3 -1 9l50 125c15 39 30 59 59 59
c34 0 66 -30 66 -61c0 -23 -13 -42 -41 -59z" />
    <glyph glyph-name="aogonek" unicode="&#x105;" horiz-adv-x="491" 
d="M404 -132c-20 -40 -48 -68 -99 -68c-44 0 -78 26 -78 73c0 55 43 95 102 130c-27 17 -46 45 -51 87h-2c-19 -71 -68 -103 -130 -103c-74 0 -125 48 -125 142c0 87 48 120 148 155c101 35 101 45 101 78v34c0 87 -29 119 -78 119c-28 0 -51 -10 -69 -23
c25 -37 34 -69 34 -92c0 -32 -17 -55 -59 -55c-40 0 -64 17 -64 56c0 64 82 139 198 139c95 0 195 -38 195 -171v-273c0 -60 7 -73 21 -73c13 0 21 17 24 42c2 6 3 8 8 7l5 -1c5 -1 6 -3 5 -10c-7 -48 -36 -74 -95 -74c-19 0 -36 3 -52 9c-20 -27 -31 -63 -31 -101
c0 -33 11 -51 35 -51c19 0 34 12 44 31c3 5 4 6 7 4l5 -2c3 -2 3 -4 1 -9zM270 117v192c-19 -9 -37 -20 -54 -32c-34 -26 -45 -66 -45 -126c0 -87 18 -113 41 -113c28 0 45 34 58 79z" />
    <glyph glyph-name="ae" unicode="&#xe6;" horiz-adv-x="707" 
d="M687 168c-7 -98 -57 -181 -182 -181c-93 0 -175 36 -220 127h-2c-21 -94 -68 -127 -136 -127c-74 0 -126 48 -126 142c0 91 50 120 148 155c101 35 101 45 101 78v34c0 87 -29 119 -78 119c-26 0 -49 -9 -69 -23c25 -37 34 -69 34 -92c0 -32 -17 -55 -59 -55
c-40 0 -64 17 -64 56c0 66 85 139 198 139c46 0 94 -10 131 -37h2c36 26 81 37 122 37c108 0 201 -70 201 -223v-4c0 -23 -8 -30 -36 -30h-228v-18c0 -145 17 -247 117 -247c76 0 116 59 125 152c0 6 2 10 8 10l6 -1c6 0 7 -5 7 -11zM543 345c0 134 -14 176 -58 176
c-47 0 -61 -55 -61 -217h80c30 0 39 8 39 41zM270 136v173c-19 -9 -37 -20 -54 -32c-34 -26 -45 -66 -45 -126c0 -82 18 -113 41 -113c27 0 47 38 58 98z" />
    <glyph glyph-name="aeacute" unicode="&#x1fd;" horiz-adv-x="707" 
d="M687 168c-7 -98 -57 -181 -182 -181c-93 0 -175 36 -220 127h-2c-21 -94 -68 -127 -136 -127c-74 0 -126 48 -126 142c0 91 50 120 148 155c101 35 101 45 101 78v34c0 87 -29 119 -78 119c-26 0 -49 -9 -69 -23c25 -37 34 -69 34 -92c0 -32 -17 -55 -59 -55
c-40 0 -64 17 -64 56c0 66 85 139 198 139c46 0 94 -10 131 -37h2c36 26 81 37 122 37c108 0 201 -70 201 -223v-4c0 -23 -8 -30 -36 -30h-228v-18c0 -145 17 -247 117 -247c76 0 116 59 125 152c0 6 2 10 8 10l6 -1c6 0 7 -5 7 -11zM543 345c0 134 -14 176 -58 176
c-47 0 -61 -55 -61 -217h80c30 0 39 8 39 41zM270 136v173c-19 -9 -37 -20 -54 -32c-34 -26 -45 -66 -45 -126c0 -82 18 -113 41 -113c27 0 47 38 58 98zM478 633l-121 -73c-5 -3 -6 -4 -9 -2l-3 2c-3 1 -3 3 -1 9l50 125c15 39 30 59 59 59c34 0 66 -30 66 -61
c0 -23 -13 -42 -41 -59z" />
    <glyph glyph-name="cacute" unicode="&#x107;" horiz-adv-x="427" 
d="M410 167c-4 -100 -49 -180 -159 -180c-142 0 -236 101 -236 269c0 172 85 284 237 284c83 0 151 -55 151 -120c0 -42 -27 -63 -72 -63c-47 0 -66 27 -66 62c0 33 15 63 35 94c-9 5 -21 8 -36 8c-67 0 -81 -83 -81 -256c0 -147 16 -247 102 -247c63 0 100 61 104 152
c1 6 3 10 8 10l7 -1c5 0 7 -4 6 -12zM344 633l-121 -73c-5 -3 -6 -4 -9 -2l-3 2c-3 1 -3 3 -1 9l50 125c15 39 30 59 59 59c34 0 66 -30 66 -61c0 -23 -13 -42 -41 -59z" />
    <glyph glyph-name="ccircumflex" unicode="&#x109;" horiz-adv-x="427" 
d="M410 167c-4 -100 -49 -180 -159 -180c-142 0 -236 101 -236 269c0 172 85 284 237 284c83 0 151 -55 151 -120c0 -42 -27 -63 -72 -63c-47 0 -66 27 -66 62c0 33 15 63 35 94c-9 5 -21 8 -36 8c-67 0 -81 -83 -81 -256c0 -147 16 -247 102 -247c63 0 100 61 104 152
c1 6 3 10 8 10l7 -1c5 0 7 -4 6 -12zM334 561l-103 84h-1l-103 -84c-4 -4 -7 -5 -10 -3l-2 2c-3 2 -3 4 -1 9l58 136c14 31 28 48 58 48c31 0 45 -17 59 -48l58 -136c2 -5 1 -7 -1 -9l-3 -2c-2 -2 -5 -1 -9 3z" />
    <glyph glyph-name="ccaron" unicode="&#x10d;" horiz-adv-x="427" 
d="M410 167c-4 -100 -49 -180 -159 -180c-142 0 -236 101 -236 269c0 172 85 284 237 284c83 0 151 -55 151 -120c0 -42 -27 -63 -72 -63c-47 0 -66 27 -66 62c0 33 15 63 35 94c-9 5 -21 8 -36 8c-67 0 -81 -83 -81 -256c0 -147 16 -247 102 -247c63 0 100 61 104 152
c1 6 3 10 8 10l7 -1c5 0 7 -4 6 -12zM339 750c4 3 7 4 9 2l3 -2c3 -2 3 -4 1 -8l-58 -137c-14 -31 -28 -48 -59 -48c-30 0 -44 17 -58 48l-58 137c-2 4 -2 6 1 8l2 2c3 2 6 1 10 -2l103 -85h1z" />
    <glyph glyph-name="cdotaccent" unicode="&#x10b;" horiz-adv-x="427" 
d="M410 167c-4 -100 -49 -180 -159 -180c-142 0 -236 101 -236 269c0 172 85 284 237 284c83 0 151 -55 151 -120c0 -42 -27 -63 -72 -63c-47 0 -66 27 -66 62c0 33 15 63 35 94c-9 5 -21 8 -36 8c-67 0 -81 -83 -81 -256c0 -147 16 -247 102 -247c63 0 100 61 104 152
c1 6 3 10 8 10l7 -1c5 0 7 -4 6 -12zM320 676c0 -51 -35 -86 -85 -86c-52 0 -89 34 -89 86c0 50 35 84 87 84s87 -34 87 -84z" />
    <glyph glyph-name="ccedilla" unicode="&#xe7;" horiz-adv-x="427" 
d="M329 -120c0 -48 -36 -80 -98 -80c-45 0 -68 19 -68 47c0 13 7 23 21 23c13 0 21 -8 21 -20c0 -10 -3 -17 -7 -24c3 -4 9 -6 16 -6c18 0 31 11 31 30c0 25 -21 39 -48 47l-2 4l24 88c-124 13 -204 112 -204 267c0 172 85 284 237 284c83 0 151 -55 151 -120
c0 -42 -27 -63 -72 -63c-47 0 -66 27 -66 62c0 33 15 63 35 94c-9 5 -21 8 -36 8c-67 0 -81 -83 -81 -256c0 -147 16 -247 102 -247c63 0 100 61 104 152c1 6 3 10 8 10l7 -1c5 0 7 -4 6 -12c-4 -100 -49 -180 -159 -180h-12l-5 -17c61 -12 95 -41 95 -90z" />
    <glyph glyph-name="dcaron" unicode="&#x10f;" horiz-adv-x="523" 
d="M505 0h-181c-7 0 -9 5 -9 14v74h-2c-22 -69 -63 -101 -132 -101c-99 0 -165 104 -165 267c0 179 70 286 190 286c42 0 77 -19 100 -46h1v151c0 76 -1 79 -20 79h-28c-5 0 -8 1 -8 7v2c0 6 3 7 8 7h197c5 0 8 -3 8 -11v-637c0 -73 1 -76 18 -76h23c7 0 10 -1 10 -7v-2
c0 -6 -3 -7 -10 -7zM307 118v347c-10 19 -29 37 -55 37c-46 0 -67 -67 -67 -238c0 -165 15 -226 59 -226c34 0 50 35 63 80zM554 753c25 0 57 -18 57 -49c0 -22 -11 -39 -27 -57l-77 -85c-4 -5 -6 -5 -10 -4l-2 1c-3 1 -3 3 -3 10l11 118c4 39 16 66 51 66z" />
    <glyph glyph-name="dcroat" unicode="&#x111;" horiz-adv-x="523" 
d="M505 0h-181c-7 0 -9 5 -9 14v74h-2c-22 -69 -63 -101 -132 -101c-99 0 -165 104 -165 267c0 179 70 286 190 286c42 0 77 -19 100 -46h1v114h-134c-7 0 -10 2 -10 8v5c0 6 3 8 10 8h134v16c0 76 -1 79 -20 79h-28c-5 0 -8 1 -8 7v2c0 6 3 7 8 7h197c5 0 8 -3 8 -11v-100
h37c7 0 10 -2 10 -8v-6c0 -5 -3 -7 -10 -7h-37v-516c0 -73 1 -76 18 -76h23c7 0 10 -1 10 -7v-2c0 -6 -3 -7 -10 -7zM307 118v347c-10 19 -29 37 -55 37c-46 0 -67 -67 -67 -238c0 -165 15 -226 59 -226c34 0 50 35 63 80z" />
    <glyph glyph-name="egrave" unicode="&#xe8;" horiz-adv-x="468" 
d="M447 168c-7 -100 -57 -181 -181 -181c-154 0 -250 101 -250 269c0 172 88 284 231 284c108 0 201 -70 201 -223v-4c0 -23 -8 -30 -36 -30h-228v-18c0 -145 17 -247 116 -247c77 0 119 60 126 152c1 6 3 10 8 10l6 -1c6 0 7 -5 7 -11zM303 345c0 134 -14 176 -58 176
c-47 0 -61 -55 -61 -217h81c29 0 38 8 38 41zM122 633c-28 17 -41 36 -41 59c0 31 32 61 66 61c29 0 45 -20 59 -59l50 -125c2 -6 2 -7 -1 -9l-3 -2c-2 -2 -4 -1 -9 2z" />
    <glyph glyph-name="eacute" unicode="&#xe9;" horiz-adv-x="468" 
d="M447 168c-7 -100 -57 -181 -181 -181c-154 0 -250 101 -250 269c0 172 88 284 231 284c108 0 201 -70 201 -223v-4c0 -23 -8 -30 -36 -30h-228v-18c0 -145 17 -247 116 -247c77 0 119 60 126 152c1 6 3 10 8 10l6 -1c6 0 7 -5 7 -11zM303 345c0 134 -14 176 -58 176
c-47 0 -61 -55 -61 -217h81c29 0 38 8 38 41zM375 633l-121 -73c-5 -3 -6 -4 -9 -2l-3 2c-3 1 -3 3 -1 9l50 125c15 39 30 59 59 59c34 0 66 -30 66 -61c0 -23 -13 -42 -41 -59z" />
    <glyph glyph-name="ecircumflex" unicode="&#xea;" horiz-adv-x="468" 
d="M447 168c-7 -100 -57 -181 -181 -181c-154 0 -250 101 -250 269c0 172 88 284 231 284c108 0 201 -70 201 -223v-4c0 -23 -8 -30 -36 -30h-228v-18c0 -145 17 -247 116 -247c77 0 119 60 126 152c1 6 3 10 8 10l6 -1c6 0 7 -5 7 -11zM303 345c0 134 -14 176 -58 176
c-47 0 -61 -55 -61 -217h81c29 0 38 8 38 41zM356 561l-103 84h-1l-103 -84c-4 -4 -7 -5 -10 -3l-2 2c-3 2 -3 4 -1 9l58 136c14 31 28 48 58 48c31 0 45 -17 59 -48l58 -136c2 -5 1 -7 -1 -9l-3 -2c-2 -2 -5 -1 -9 3z" />
    <glyph glyph-name="ecaron" unicode="&#x11b;" horiz-adv-x="468" 
d="M447 168c-7 -100 -57 -181 -181 -181c-154 0 -250 101 -250 269c0 172 88 284 231 284c108 0 201 -70 201 -223v-4c0 -23 -8 -30 -36 -30h-228v-18c0 -145 17 -247 116 -247c77 0 119 60 126 152c1 6 3 10 8 10l6 -1c6 0 7 -5 7 -11zM303 345c0 134 -14 176 -58 176
c-47 0 -61 -55 -61 -217h81c29 0 38 8 38 41zM356 750c4 3 7 4 9 2l3 -2c3 -2 3 -4 1 -8l-58 -137c-14 -31 -28 -48 -59 -48c-30 0 -44 17 -58 48l-58 137c-2 4 -2 6 1 8l2 2c3 2 6 1 10 -2l103 -85h1z" />
    <glyph glyph-name="edieresis" unicode="&#xeb;" horiz-adv-x="468" 
d="M447 168c-7 -100 -57 -181 -181 -181c-154 0 -250 101 -250 269c0 172 88 284 231 284c108 0 201 -70 201 -223v-4c0 -23 -8 -30 -36 -30h-228v-18c0 -145 17 -247 116 -247c77 0 119 60 126 152c1 6 3 10 8 10l6 -1c6 0 7 -5 7 -11zM303 345c0 134 -14 176 -58 176
c-47 0 -61 -55 -61 -217h81c29 0 38 8 38 41zM411 673c0 -49 -29 -82 -71 -82h-1c-43 0 -74 32 -74 82c0 48 29 80 73 80c43 0 73 -32 73 -80zM240 673c0 -49 -29 -82 -71 -82c-44 0 -75 32 -75 82c0 48 29 80 74 80c42 0 72 -32 72 -80z" />
    <glyph glyph-name="emacron" unicode="&#x113;" horiz-adv-x="468" 
d="M447 168c-7 -100 -57 -181 -181 -181c-154 0 -250 101 -250 269c0 172 88 284 231 284c108 0 201 -70 201 -223v-4c0 -23 -8 -30 -36 -30h-228v-18c0 -145 17 -247 116 -247c77 0 119 60 126 152c1 6 3 10 8 10l6 -1c6 0 7 -5 7 -11zM303 345c0 134 -14 176 -58 176
c-47 0 -61 -55 -61 -217h81c29 0 38 8 38 41zM359 636h-213c-7 0 -8 2 -8 9v77c0 7 1 9 8 9h213c7 0 8 -2 8 -9v-77c0 -7 -1 -9 -8 -9z" />
    <glyph glyph-name="ebreve" unicode="&#x115;" horiz-adv-x="468" 
d="M447 168c-7 -100 -57 -181 -181 -181c-154 0 -250 101 -250 269c0 172 88 284 231 284c108 0 201 -70 201 -223v-4c0 -23 -8 -30 -36 -30h-228v-18c0 -145 17 -247 116 -247c77 0 119 60 126 152c1 6 3 10 8 10l6 -1c6 0 7 -5 7 -11zM303 345c0 134 -14 176 -58 176
c-47 0 -61 -55 -61 -217h81c29 0 38 8 38 41zM364 743c0 -93 -28 -174 -112 -174s-111 78 -111 174c0 7 1 11 7 11h1c6 0 7 -4 7 -11c0 -42 29 -76 96 -76s97 34 97 76c0 7 1 11 7 11h1c6 0 7 -4 7 -11z" />
    <glyph glyph-name="edotaccent" unicode="&#x117;" horiz-adv-x="468" 
d="M447 168c-7 -100 -57 -181 -181 -181c-154 0 -250 101 -250 269c0 172 88 284 231 284c108 0 201 -70 201 -223v-4c0 -23 -8 -30 -36 -30h-228v-18c0 -145 17 -247 116 -247c77 0 119 60 126 152c1 6 3 10 8 10l6 -1c6 0 7 -5 7 -11zM303 345c0 134 -14 176 -58 176
c-47 0 -61 -55 -61 -217h81c29 0 38 8 38 41zM335 676c0 -51 -35 -86 -85 -86c-52 0 -89 34 -89 86c0 50 35 84 87 84s87 -34 87 -84z" />
    <glyph glyph-name="eogonek" unicode="&#x119;" horiz-adv-x="468" 
d="M339 -200c-45 0 -79 26 -79 73c0 50 38 88 90 129v1c-25 -11 -56 -16 -84 -16c-154 0 -250 101 -250 269c0 172 88 284 231 284c108 0 201 -70 201 -223v-4c0 -23 -8 -31 -36 -31h-228v-17c0 -145 17 -247 116 -247c77 0 119 60 126 152c1 6 3 10 8 10l6 -1
c6 0 7 -5 7 -11c-3 -59 -21 -101 -52 -134c-43 -49 -50 -91 -50 -139c0 -33 11 -51 35 -51c19 0 34 12 44 31c3 5 4 6 7 4l5 -2c3 -2 3 -4 1 -9c-20 -40 -48 -68 -98 -68zM303 345c0 134 -14 176 -58 176c-47 0 -61 -55 -61 -217h81c29 0 38 8 38 41z" />
    <glyph glyph-name="gcircumflex" unicode="&#x11d;" horiz-adv-x="469" 
d="M466 -19c0 -93 -84 -181 -241 -181c-130 0 -204 47 -204 114c0 45 30 71 81 87v2c-37 20 -63 59 -63 113c0 55 21 89 54 105c-48 31 -70 77 -70 140c0 106 71 179 201 179c34 0 64 -5 89 -13h122c6 0 9 -1 9 -6v-4c0 -6 -3 -7 -9 -7l-83 -2c42 -28 65 -74 65 -134
c0 -106 -73 -180 -200 -180c-42 0 -78 6 -105 17c-23 -8 -35 -24 -35 -40c0 -24 16 -37 56 -38l177 -5c96 -3 156 -51 156 -147zM353 -82c0 54 -30 72 -83 74l-146 5c-17 -14 -27 -36 -27 -68c0 -68 49 -107 131 -107c75 0 125 33 125 96zM264 374c0 109 -9 147 -44 147
s-44 -43 -44 -159c0 -110 9 -150 44 -150s44 45 44 162zM329 561l-103 84h-1l-103 -84c-4 -4 -7 -5 -10 -3l-2 2c-3 2 -3 4 -1 9l58 136c14 31 28 48 58 48c31 0 45 -17 59 -48l58 -136c2 -5 1 -7 -1 -9l-3 -2c-2 -2 -5 -1 -9 3z" />
    <glyph glyph-name="gbreve" unicode="&#x11f;" horiz-adv-x="469" 
d="M466 -19c0 -93 -84 -181 -241 -181c-130 0 -204 47 -204 114c0 45 30 71 81 87v2c-37 20 -63 59 -63 113c0 55 21 89 54 105c-48 31 -70 77 -70 140c0 106 71 179 201 179c34 0 64 -5 89 -13h122c6 0 9 -1 9 -6v-4c0 -6 -3 -7 -9 -7l-83 -2c42 -28 65 -74 65 -134
c0 -106 -73 -180 -200 -180c-42 0 -78 6 -105 17c-23 -8 -35 -24 -35 -40c0 -24 16 -37 56 -38l177 -5c96 -3 156 -51 156 -147zM353 -82c0 54 -30 72 -83 74l-146 5c-17 -14 -27 -36 -27 -68c0 -68 49 -107 131 -107c75 0 125 33 125 96zM264 374c0 109 -9 147 -44 147
s-44 -43 -44 -159c0 -110 9 -150 44 -150s44 45 44 162zM336 743c0 -93 -28 -174 -112 -174s-111 78 -111 174c0 7 1 11 7 11h1c6 0 7 -4 7 -11c0 -42 29 -76 96 -76s97 34 97 76c0 7 1 11 7 11h1c6 0 7 -4 7 -11z" />
    <glyph glyph-name="gdotaccent" unicode="&#x121;" horiz-adv-x="469" 
d="M466 -19c0 -93 -84 -181 -241 -181c-130 0 -204 47 -204 114c0 45 30 71 81 87v2c-37 20 -63 59 -63 113c0 55 21 89 54 105c-48 31 -70 77 -70 140c0 106 71 179 201 179c34 0 64 -5 89 -13h122c6 0 9 -1 9 -6v-4c0 -6 -3 -7 -9 -7l-83 -2c42 -28 65 -74 65 -134
c0 -106 -73 -180 -200 -180c-42 0 -78 6 -105 17c-23 -8 -35 -24 -35 -40c0 -24 16 -37 56 -38l177 -5c96 -3 156 -51 156 -147zM353 -82c0 54 -30 72 -83 74l-146 5c-17 -14 -27 -36 -27 -68c0 -68 49 -107 131 -107c75 0 125 33 125 96zM264 374c0 109 -9 147 -44 147
s-44 -43 -44 -159c0 -110 9 -150 44 -150s44 45 44 162zM310 676c0 -51 -35 -86 -85 -86c-52 0 -89 34 -89 86c0 50 35 84 87 84s87 -34 87 -84z" />
    <glyph glyph-name="gcommaaccent" unicode="&#x123;" horiz-adv-x="469" 
d="M466 -19c0 -93 -84 -181 -241 -181c-130 0 -204 47 -204 114c0 45 30 71 81 87v2c-37 20 -63 59 -63 113c0 55 21 89 54 105c-48 31 -70 77 -70 140c0 106 71 179 201 179c34 0 64 -5 89 -13h122c6 0 9 -1 9 -6v-4c0 -6 -3 -7 -9 -7l-83 -2c42 -28 65 -74 65 -134
c0 -106 -73 -180 -200 -180c-42 0 -78 6 -105 17c-23 -8 -35 -24 -35 -40c0 -24 16 -37 56 -38l177 -5c96 -3 156 -51 156 -147zM353 -82c0 54 -30 72 -83 74l-146 5c-17 -14 -27 -36 -27 -68c0 -68 49 -107 131 -107c75 0 125 33 125 96zM264 374c0 109 -9 147 -44 147
s-44 -43 -44 -159c0 -110 9 -150 44 -150s44 45 44 162zM287 634c0 -37 -22 -53 -60 -53c-40 0 -65 17 -65 61c0 45 25 80 54 106c6 5 8 5 11 2l6 -5c4 -2 5 -6 0 -10c-22 -19 -42 -44 -46 -69l1 -1c10 11 26 24 48 24c26 0 51 -21 51 -55z" />
    <glyph glyph-name="hcircumflex" unicode="&#x125;" horiz-adv-x="552" 
d="M533 0h-234c-6 0 -9 1 -9 6v3c0 6 3 7 9 7h16c18 0 19 3 19 76v320c0 56 -10 86 -45 86s-52 -38 -66 -89v-317c0 -73 1 -76 19 -76h16c6 0 9 -1 9 -7v-3c0 -5 -3 -6 -9 -6h-234c-6 0 -9 1 -9 6v3c0 6 3 7 9 7h23c18 0 19 3 19 76v556c0 73 -1 76 -19 76h-23
c-6 0 -9 1 -9 7v3c0 5 3 6 9 6h190c6 0 9 -5 9 -14v-265h1c19 47 58 79 127 79c66 0 140 -38 140 -162v-286c0 -73 1 -76 19 -76h23c6 0 9 -1 9 -7v-3c0 -5 -3 -6 -9 -6zM246 781l-103 84h-1l-103 -84c-4 -4 -7 -5 -10 -3l-2 2c-3 2 -3 4 -1 9l58 136c14 31 28 48 58 48
c31 0 45 -17 59 -48l58 -136c2 -5 1 -7 -1 -9l-3 -2c-2 -2 -5 -1 -9 3z" />
    <glyph glyph-name="hbar" unicode="&#x127;" horiz-adv-x="552" 
d="M533 0h-234c-6 0 -9 1 -9 6v3c0 6 3 7 9 7h16c18 0 19 3 19 76v320c0 56 -10 86 -45 86s-52 -38 -66 -89v-317c0 -73 1 -76 19 -76h16c6 0 9 -1 9 -7v-3c0 -5 -3 -6 -9 -6h-234c-6 0 -9 1 -9 6v3c0 6 3 7 9 7h23c18 0 19 3 19 76v516h-38c-6 0 -9 2 -9 8v5c0 6 3 8 9 8
h38v19c0 73 -1 76 -19 76h-23c-6 0 -9 1 -9 7v3c0 5 3 6 9 6h190c6 0 9 -5 9 -14v-97h135c6 0 9 -2 9 -8v-6c0 -5 -3 -7 -9 -7h-135v-147h1c19 47 58 79 127 79c66 0 140 -38 140 -162v-286c0 -73 1 -76 19 -76h23c6 0 9 -1 9 -7v-3c0 -5 -3 -6 -9 -6z" />
    <glyph glyph-name="igrave" unicode="&#xec;" horiz-adv-x="289" 
d="M265 0h-241c-6 0 -9 1 -9 6v3c0 6 3 7 9 7h23c18 0 19 3 19 76v344c0 73 -1 76 -19 76h-23c-6 0 -9 1 -9 6v3c0 5 3 6 9 6h190c6 0 9 -5 9 -14v-421c0 -73 1 -76 19 -76h23c6 0 9 -1 9 -7v-3c0 -5 -3 -6 -9 -6zM22 633c-28 17 -41 36 -41 59c0 31 32 61 66 61
c29 0 45 -20 59 -59l50 -125c2 -6 2 -7 -1 -9l-3 -2c-2 -2 -4 -1 -9 2z" />
    <glyph glyph-name="iacute" unicode="&#xed;" horiz-adv-x="289" 
d="M265 0h-241c-6 0 -9 1 -9 6v3c0 6 3 7 9 7h23c18 0 19 3 19 76v344c0 73 -1 76 -19 76h-23c-6 0 -9 1 -9 6v3c0 5 3 6 9 6h190c6 0 9 -5 9 -14v-421c0 -73 1 -76 19 -76h23c6 0 9 -1 9 -7v-3c0 -5 -3 -6 -9 -6zM258 633l-121 -73c-5 -3 -6 -4 -9 -2l-3 2c-3 1 -3 3 -1 9
l50 125c15 39 30 59 59 59c34 0 66 -30 66 -61c0 -23 -13 -42 -41 -59z" />
    <glyph glyph-name="icircumflex" unicode="&#xee;" horiz-adv-x="289" 
d="M265 0h-241c-6 0 -9 1 -9 6v3c0 6 3 7 9 7h23c18 0 19 3 19 76v344c0 73 -1 76 -19 76h-23c-6 0 -9 1 -9 6v3c0 5 3 6 9 6h190c6 0 9 -5 9 -14v-421c0 -73 1 -76 19 -76h23c6 0 9 -1 9 -7v-3c0 -5 -3 -6 -9 -6zM244 561l-103 84h-1l-103 -84c-4 -4 -7 -5 -10 -3l-2 2
c-3 2 -3 4 -1 9l58 136c14 31 28 48 58 48c31 0 45 -17 59 -48l58 -136c2 -5 1 -7 -1 -9l-3 -2c-2 -2 -5 -1 -9 3z" />
    <glyph glyph-name="itilde" unicode="&#x129;" horiz-adv-x="289" 
d="M265 0h-241c-6 0 -9 1 -9 6v3c0 6 3 7 9 7h23c18 0 19 3 19 76v344c0 73 -1 76 -19 76h-23c-6 0 -9 1 -9 6v3c0 5 3 6 9 6h190c6 0 9 -5 9 -14v-421c0 -73 1 -76 19 -76h23c6 0 9 -1 9 -7v-3c0 -5 -3 -6 -9 -6zM259 768c0 -98 -13 -162 -69 -162c-37 0 -79 24 -113 24
c-27 0 -40 -23 -40 -52c0 -7 -1 -10 -6 -10h-2c-6 0 -7 3 -7 10c0 98 12 162 69 162c37 0 79 -24 113 -24c26 0 39 22 39 52c0 7 1 10 7 10h2c6 0 7 -3 7 -10z" />
    <glyph glyph-name="idieresis" unicode="&#xef;" horiz-adv-x="289" 
d="M265 0h-241c-6 0 -9 1 -9 6v3c0 6 3 7 9 7h23c18 0 19 3 19 76v344c0 73 -1 76 -19 76h-23c-6 0 -9 1 -9 6v3c0 5 3 6 9 6h190c6 0 9 -5 9 -14v-421c0 -73 1 -76 19 -76h23c6 0 9 -1 9 -7v-3c0 -5 -3 -6 -9 -6zM300 673c0 -49 -29 -82 -71 -82h-1c-43 0 -74 32 -74 82
c0 48 29 80 73 80c43 0 73 -32 73 -80zM129 673c0 -49 -29 -82 -71 -82c-44 0 -75 32 -75 82c0 48 29 80 74 80c42 0 72 -32 72 -80z" />
    <glyph glyph-name="imacron" unicode="&#x12b;" horiz-adv-x="289" 
d="M265 0h-241c-6 0 -9 1 -9 6v3c0 6 3 7 9 7h23c18 0 19 3 19 76v344c0 73 -1 76 -19 76h-23c-6 0 -9 1 -9 6v3c0 5 3 6 9 6h190c6 0 9 -5 9 -14v-421c0 -73 1 -76 19 -76h23c6 0 9 -1 9 -7v-3c0 -5 -3 -6 -9 -6zM248 636h-213c-7 0 -8 2 -8 9v77c0 7 1 9 8 9h213
c7 0 8 -2 8 -9v-77c0 -7 -1 -9 -8 -9z" />
    <glyph glyph-name="ibreve" unicode="&#x12d;" horiz-adv-x="289" 
d="M265 0h-241c-6 0 -9 1 -9 6v3c0 6 3 7 9 7h23c18 0 19 3 19 76v344c0 73 -1 76 -19 76h-23c-6 0 -9 1 -9 6v3c0 5 3 6 9 6h190c6 0 9 -5 9 -14v-421c0 -73 1 -76 19 -76h23c6 0 9 -1 9 -7v-3c0 -5 -3 -6 -9 -6zM252 743c0 -93 -28 -174 -112 -174s-111 78 -111 174
c0 7 1 11 7 11h1c6 0 7 -4 7 -11c0 -42 29 -76 96 -76s97 34 97 76c0 7 1 11 7 11h1c6 0 7 -4 7 -11z" />
    <glyph glyph-name="iogonek" unicode="&#x12f;" horiz-adv-x="289" 
d="M220 -132c-20 -40 -48 -68 -99 -68c-44 0 -78 26 -78 73c0 53 40 92 96 127h-115c-6 0 -9 1 -9 6v3c0 6 3 7 9 7h23c18 0 19 3 19 76v344c0 73 -1 76 -19 76h-23c-6 0 -9 1 -9 6v3c0 5 3 6 9 6h190c6 0 9 -5 9 -14v-421c0 -73 1 -76 19 -76h23c6 0 9 -1 9 -7v-3
c0 -5 -3 -6 -9 -6h-103c-21 -28 -34 -65 -34 -105c0 -33 11 -51 35 -51c19 0 34 12 44 31c3 5 4 6 7 4l5 -2c3 -2 3 -4 1 -9zM231 676c0 -51 -35 -86 -85 -86c-52 0 -89 34 -89 86c0 50 35 84 87 84c51 0 87 -34 87 -84z" />
    <glyph glyph-name="dotlessi" unicode="&#x131;" horiz-adv-x="289" 
d="M265 0h-241c-6 0 -9 1 -9 6v3c0 6 3 7 9 7h23c18 0 19 3 19 76v344c0 73 -1 76 -19 76h-23c-6 0 -9 1 -9 6v3c0 5 3 6 9 6h190c6 0 9 -5 9 -14v-421c0 -73 1 -76 19 -76h23c6 0 9 -1 9 -7v-3c0 -5 -3 -6 -9 -6z" />
    <glyph glyph-name="i.TRK" unicode="&#xe84b;" horiz-adv-x="289" 
d="M265 0h-241c-6 0 -9 1 -9 6v3c0 6 3 7 9 7h23c18 0 19 3 19 76v344c0 73 -1 76 -19 76h-23c-6 0 -9 1 -9 6v3c0 5 3 6 9 6h190c6 0 9 -5 9 -14v-421c0 -73 1 -76 19 -76h23c6 0 9 -1 9 -7v-3c0 -5 -3 -6 -9 -6zM231 676c0 -51 -35 -86 -85 -86c-52 0 -89 34 -89 86
c0 50 35 84 87 84c51 0 87 -34 87 -84z" />
    <glyph glyph-name="ij" unicode="&#x133;" horiz-adv-x="571" 
d="M265 0h-241c-6 0 -9 1 -9 6v3c0 6 3 7 9 7h23c18 0 19 3 19 76v344c0 73 -1 76 -19 76h-23c-6 0 -9 1 -9 6v3c0 5 3 6 9 6h190c6 0 9 -5 9 -14v-421c0 -73 1 -76 19 -76h23c6 0 9 -1 9 -7v-3c0 -5 -3 -6 -9 -6zM231 676c0 -51 -35 -86 -85 -86c-52 0 -89 34 -89 86
c0 50 35 84 87 84c51 0 87 -34 87 -84zM511 -27c0 -108 -81 -173 -202 -173c-64 0 -128 39 -128 97c0 41 25 60 67 60c43 0 60 -23 60 -56c0 -27 -10 -50 -28 -79c5 -2 15 -3 21 -3c37 0 54 30 54 88v529c0 73 -1 76 -19 76h-24c-6 0 -9 1 -9 6v3c0 5 3 6 9 6h190
c7 0 9 -5 9 -14v-540zM519 676c0 -50 -34 -86 -84 -86c-52 0 -90 34 -90 86c0 50 35 84 88 84c51 0 86 -34 86 -84z" />
    <glyph glyph-name="jcircumflex" unicode="&#x135;" horiz-adv-x="281" 
d="M222 -27c0 -108 -81 -173 -202 -173c-64 0 -128 39 -128 97c0 41 25 60 67 60c43 0 60 -23 60 -56c0 -27 -10 -50 -28 -79c5 -2 15 -3 21 -3c37 0 54 30 54 88v529c0 73 -1 76 -19 76h-24c-6 0 -9 1 -9 6v3c0 5 3 6 9 6h190c7 0 9 -5 9 -14v-540zM243 561l-103 84h-1
l-103 -84c-4 -4 -7 -5 -10 -3l-2 2c-3 2 -3 4 -1 9l58 136c14 31 28 48 58 48c31 0 45 -17 59 -48l58 -136c2 -5 1 -7 -1 -9l-3 -2c-2 -2 -5 -1 -9 3z" />
    <glyph glyph-name="kcommaaccent" unicode="&#x137;" horiz-adv-x="530" 
d="M518 0h-180c-6 0 -8 1 -10 8l-87 231c-12 -17 -18 -36 -18 -99v-48c0 -73 1 -76 19 -76h21c6 0 8 -1 8 -7v-3c0 -5 -2 -6 -8 -6h-241c-5 0 -7 1 -7 6v3c0 6 2 7 7 7h25c18 0 19 3 19 76v556c0 73 -1 76 -19 76h-25c-5 0 -7 1 -7 7v3c0 5 2 6 7 6h194c5 0 7 -5 7 -14v-481
h2c9 24 46 69 110 151c19 24 37 52 37 78s-11 38 -33 38h-30c-5 0 -7 1 -7 7v2c0 5 2 6 7 6h196c5 0 7 -1 7 -6v-2c0 -6 -2 -7 -7 -7h-10c-35 0 -61 -22 -110 -82l-32 -41l114 -297c29 -74 34 -76 45 -76h6c5 0 7 -1 7 -7v-3c0 -5 -2 -6 -7 -6zM355 -89
c0 -46 -25 -80 -54 -106c-6 -6 -8 -6 -12 -3l-5 6c-4 2 -5 5 0 9c22 19 41 44 46 70l-1 1c-10 -12 -26 -24 -48 -24c-26 0 -51 20 -51 54c0 37 22 54 60 54c40 0 65 -17 65 -61z" />
    <glyph glyph-name="lacute" unicode="&#x13a;" horiz-adv-x="289" 
d="M265 0h-241c-6 0 -9 1 -9 6v3c0 6 3 7 9 7h23c18 0 19 3 19 76v556c0 73 -1 76 -19 76h-23c-6 0 -9 1 -9 7v3c0 5 3 6 9 6h190c6 0 9 -5 9 -14v-634c0 -73 1 -76 19 -76h23c6 0 9 -1 9 -7v-3c0 -5 -3 -6 -9 -6zM263 853l-121 -73c-5 -3 -6 -4 -9 -2l-3 2c-3 1 -3 3 -1 9
l50 125c15 39 30 59 59 59c34 0 66 -30 66 -61c0 -23 -13 -42 -41 -59z" />
    <glyph glyph-name="lcaron" unicode="&#x13e;" horiz-adv-x="289" 
d="M265 0h-241c-6 0 -9 1 -9 6v3c0 6 3 7 9 7h23c18 0 19 3 19 76v556c0 73 -1 76 -19 76h-23c-6 0 -9 1 -9 7v3c0 5 3 6 9 6h190c6 0 9 -5 9 -14v-634c0 -73 1 -76 19 -76h23c6 0 9 -1 9 -7v-3c0 -5 -3 -6 -9 -6zM312 753c25 0 57 -18 57 -49c0 -22 -11 -39 -27 -57
l-77 -85c-4 -5 -6 -5 -10 -4l-2 1c-3 1 -3 3 -3 10l11 118c4 39 16 66 51 66z" />
    <glyph glyph-name="lcommaaccent" unicode="&#x13c;" horiz-adv-x="289" 
d="M265 0h-241c-6 0 -9 1 -9 6v3c0 6 3 7 9 7h23c18 0 19 3 19 76v556c0 73 -1 76 -19 76h-23c-6 0 -9 1 -9 7v3c0 5 3 6 9 6h190c6 0 9 -5 9 -14v-634c0 -73 1 -76 19 -76h23c6 0 9 -1 9 -7v-3c0 -5 -3 -6 -9 -6zM209 -89c0 -46 -25 -80 -54 -106c-6 -6 -8 -6 -12 -3l-5 6
c-4 2 -5 5 0 9c22 19 41 44 46 70l-1 1c-10 -12 -26 -24 -48 -24c-26 0 -51 20 -51 54c0 37 22 54 60 54c40 0 65 -17 65 -61z" />
    <glyph glyph-name="lslash" unicode="&#x142;" horiz-adv-x="289" 
d="M265 0h-241c-6 0 -9 1 -9 6v3c0 6 3 7 9 7h23c18 0 19 3 19 76v303l-44 -26c-6 -4 -9 -4 -12 2l-3 4c-4 6 -3 8 3 12l56 33v228c0 73 -1 76 -19 76h-23c-6 0 -9 1 -9 7v3c0 5 3 6 9 6h190c6 0 9 -5 9 -14v-214l45 27c6 4 9 4 13 -1l3 -5c3 -5 1 -9 -4 -12l-57 -34v-395
c0 -73 1 -76 19 -76h23c6 0 9 -1 9 -7v-3c0 -5 -3 -6 -9 -6z" />
    <glyph glyph-name="ldot" unicode="&#x140;" horiz-adv-x="414" 
d="M265 0h-241c-6 0 -9 1 -9 6v3c0 6 3 7 9 7h23c18 0 19 3 19 76v556c0 73 -1 76 -19 76h-23c-6 0 -9 1 -9 7v3c0 5 3 6 9 6h190c6 0 9 -5 9 -14v-634c0 -73 1 -76 19 -76h23c6 0 9 -1 9 -7v-3c0 -5 -3 -6 -9 -6zM436 290c0 -53 -35 -92 -84 -92s-84 39 -84 92s35 91 85 91
c48 0 83 -38 83 -91z" />
    <glyph glyph-name="nacute" unicode="&#x144;" horiz-adv-x="559" 
d="M542 0h-234c-6 0 -9 1 -9 6v3c0 6 3 7 9 7h16c18 0 19 3 19 76v320c0 56 -11 86 -49 86c-39 0 -56 -38 -71 -89v-317c0 -73 1 -76 19 -76h16c6 0 9 -1 9 -7v-3c0 -5 -3 -6 -9 -6h-234c-6 0 -9 1 -9 6v3c0 6 3 7 9 7h23c18 0 19 3 19 76v344c0 73 -1 76 -19 76h-23
c-6 0 -9 1 -9 6v3c0 5 3 6 9 6h182c7 0 9 -5 9 -14v-74h2c19 69 66 101 138 101c69 0 144 -38 144 -162v-286c0 -73 1 -76 19 -76h24c6 0 9 -1 9 -7v-3c0 -5 -3 -6 -9 -6zM395 633l-121 -73c-5 -3 -6 -4 -9 -2l-3 2c-3 1 -3 3 -1 9l50 125c15 39 30 59 59 59
c34 0 66 -30 66 -61c0 -23 -13 -42 -41 -59z" />
    <glyph glyph-name="ncaron" unicode="&#x148;" horiz-adv-x="559" 
d="M542 0h-234c-6 0 -9 1 -9 6v3c0 6 3 7 9 7h16c18 0 19 3 19 76v320c0 56 -11 86 -49 86c-39 0 -56 -38 -71 -89v-317c0 -73 1 -76 19 -76h16c6 0 9 -1 9 -7v-3c0 -5 -3 -6 -9 -6h-234c-6 0 -9 1 -9 6v3c0 6 3 7 9 7h23c18 0 19 3 19 76v344c0 73 -1 76 -19 76h-23
c-6 0 -9 1 -9 6v3c0 5 3 6 9 6h182c7 0 9 -5 9 -14v-74h2c19 69 66 101 138 101c69 0 144 -38 144 -162v-286c0 -73 1 -76 19 -76h24c6 0 9 -1 9 -7v-3c0 -5 -3 -6 -9 -6zM381 750c4 3 7 4 9 2l3 -2c3 -2 3 -4 1 -8l-58 -137c-14 -31 -28 -48 -59 -48c-30 0 -44 17 -58 48
l-58 137c-2 4 -2 6 1 8l2 2c3 2 6 1 10 -2l103 -85h1z" />
    <glyph glyph-name="ntilde" unicode="&#xf1;" horiz-adv-x="559" 
d="M542 0h-234c-6 0 -9 1 -9 6v3c0 6 3 7 9 7h16c18 0 19 3 19 76v320c0 56 -11 86 -49 86c-39 0 -56 -38 -71 -89v-317c0 -73 1 -76 19 -76h16c6 0 9 -1 9 -7v-3c0 -5 -3 -6 -9 -6h-234c-6 0 -9 1 -9 6v3c0 6 3 7 9 7h23c18 0 19 3 19 76v344c0 73 -1 76 -19 76h-23
c-6 0 -9 1 -9 6v3c0 5 3 6 9 6h182c7 0 9 -5 9 -14v-74h2c19 69 66 101 138 101c69 0 144 -38 144 -162v-286c0 -73 1 -76 19 -76h24c6 0 9 -1 9 -7v-3c0 -5 -3 -6 -9 -6zM397 768c0 -98 -13 -162 -69 -162c-37 0 -79 24 -113 24c-27 0 -40 -23 -40 -52c0 -7 -1 -10 -6 -10
h-2c-6 0 -7 3 -7 10c0 98 12 162 69 162c37 0 79 -24 113 -24c26 0 39 22 39 52c0 7 1 10 7 10h2c6 0 7 -3 7 -10z" />
    <glyph glyph-name="ncommaaccent" unicode="&#x146;" horiz-adv-x="559" 
d="M542 0h-234c-6 0 -9 1 -9 6v3c0 6 3 7 9 7h16c18 0 19 3 19 76v320c0 56 -11 86 -49 86c-39 0 -56 -38 -71 -89v-317c0 -73 1 -76 19 -76h16c6 0 9 -1 9 -7v-3c0 -5 -3 -6 -9 -6h-234c-6 0 -9 1 -9 6v3c0 6 3 7 9 7h23c18 0 19 3 19 76v344c0 73 -1 76 -19 76h-23
c-6 0 -9 1 -9 6v3c0 5 3 6 9 6h182c7 0 9 -5 9 -14v-74h2c19 69 66 101 138 101c69 0 144 -38 144 -162v-286c0 -73 1 -76 19 -76h24c6 0 9 -1 9 -7v-3c0 -5 -3 -6 -9 -6zM346 -89c0 -46 -25 -80 -54 -106c-6 -6 -8 -6 -12 -3l-5 6c-4 2 -5 5 0 9c22 19 41 44 46 70l-1 1
c-10 -12 -26 -24 -48 -24c-26 0 -51 20 -51 54c0 37 22 54 60 54c40 0 65 -17 65 -61z" />
    <glyph glyph-name="ograve" unicode="&#xf2;" horiz-adv-x="503" 
d="M486 275c0 -166 -82 -288 -238 -288c-153 0 -232 103 -232 267c0 167 83 286 240 286c153 0 230 -100 230 -265zM318 274c0 183 -14 244 -66 244c-51 0 -66 -67 -66 -263c0 -184 14 -246 65 -246c52 0 67 70 67 265zM133 633c-28 17 -41 36 -41 59c0 31 32 61 66 61
c29 0 45 -20 59 -59l50 -125c2 -6 2 -7 -1 -9l-3 -2c-2 -2 -4 -1 -9 2z" />
    <glyph glyph-name="oacute" unicode="&#xf3;" horiz-adv-x="503" 
d="M486 275c0 -166 -82 -288 -238 -288c-153 0 -232 103 -232 267c0 167 83 286 240 286c153 0 230 -100 230 -265zM318 274c0 183 -14 244 -66 244c-51 0 -66 -67 -66 -263c0 -184 14 -246 65 -246c52 0 67 70 67 265zM368 633l-121 -73c-5 -3 -6 -4 -9 -2l-3 2
c-3 1 -3 3 -1 9l50 125c15 39 30 59 59 59c34 0 66 -30 66 -61c0 -23 -13 -42 -41 -59z" />
    <glyph glyph-name="ocircumflex" unicode="&#xf4;" horiz-adv-x="503" 
d="M486 275c0 -166 -82 -288 -238 -288c-153 0 -232 103 -232 267c0 167 83 286 240 286c153 0 230 -100 230 -265zM318 274c0 183 -14 244 -66 244c-51 0 -66 -67 -66 -263c0 -184 14 -246 65 -246c52 0 67 70 67 265zM355 561l-103 84h-1l-103 -84c-4 -4 -7 -5 -10 -3
l-2 2c-3 2 -3 4 -1 9l58 136c14 31 28 48 58 48c31 0 45 -17 59 -48l58 -136c2 -5 1 -7 -1 -9l-3 -2c-2 -2 -5 -1 -9 3z" />
    <glyph glyph-name="otilde" unicode="&#xf5;" horiz-adv-x="503" 
d="M486 275c0 -166 -82 -288 -238 -288c-153 0 -232 103 -232 267c0 167 83 286 240 286c153 0 230 -100 230 -265zM318 274c0 183 -14 244 -66 244c-51 0 -66 -67 -66 -263c0 -184 14 -246 65 -246c52 0 67 70 67 265zM370 768c0 -98 -13 -162 -69 -162
c-37 0 -79 24 -113 24c-27 0 -40 -23 -40 -52c0 -7 -1 -10 -6 -10h-2c-6 0 -7 3 -7 10c0 98 12 162 69 162c37 0 79 -24 113 -24c26 0 39 22 39 52c0 7 1 10 7 10h2c6 0 7 -3 7 -10z" />
    <glyph glyph-name="odieresis" unicode="&#xf6;" horiz-adv-x="503" 
d="M486 275c0 -166 -82 -288 -238 -288c-153 0 -232 103 -232 267c0 167 83 286 240 286c153 0 230 -100 230 -265zM318 274c0 183 -14 244 -66 244c-51 0 -66 -67 -66 -263c0 -184 14 -246 65 -246c52 0 67 70 67 265zM411 673c0 -49 -29 -82 -71 -82h-1
c-43 0 -74 32 -74 82c0 48 29 80 73 80c43 0 73 -32 73 -80zM240 673c0 -49 -29 -82 -71 -82c-44 0 -75 32 -75 82c0 48 29 80 74 80c42 0 72 -32 72 -80z" />
    <glyph glyph-name="omacron" unicode="&#x14d;" horiz-adv-x="503" 
d="M486 275c0 -166 -82 -288 -238 -288c-153 0 -232 103 -232 267c0 167 83 286 240 286c153 0 230 -100 230 -265zM318 274c0 183 -14 244 -66 244c-51 0 -66 -67 -66 -263c0 -184 14 -246 65 -246c52 0 67 70 67 265zM358 636h-213c-7 0 -8 2 -8 9v77c0 7 1 9 8 9h213
c7 0 8 -2 8 -9v-77c0 -7 -1 -9 -8 -9z" />
    <glyph glyph-name="obreve" unicode="&#x14f;" horiz-adv-x="503" 
d="M486 275c0 -166 -82 -288 -238 -288c-153 0 -232 103 -232 267c0 167 83 286 240 286c153 0 230 -100 230 -265zM318 274c0 183 -14 244 -66 244c-51 0 -66 -67 -66 -263c0 -184 14 -246 65 -246c52 0 67 70 67 265zM365 743c0 -93 -28 -174 -112 -174s-111 78 -111 174
c0 7 1 11 7 11h1c6 0 7 -4 7 -11c0 -42 29 -76 96 -76s97 34 97 76c0 7 1 11 7 11h1c6 0 7 -4 7 -11z" />
    <glyph glyph-name="ohungarumlaut" unicode="&#x151;" horiz-adv-x="503" 
d="M486 275c0 -166 -82 -288 -238 -288c-153 0 -232 103 -232 267c0 167 83 286 240 286c153 0 230 -100 230 -265zM318 274c0 183 -14 244 -66 244c-51 0 -66 -67 -66 -263c0 -184 14 -246 65 -246c52 0 67 70 67 265zM282 633l-113 -73c-5 -3 -7 -4 -10 -2l-3 2
c-2 1 -3 2 -1 8l43 126c12 41 29 59 56 59c37 0 68 -30 68 -61c0 -23 -13 -42 -40 -59zM440 633l-114 -73c-4 -3 -6 -4 -9 -2l-3 2c-2 1 -3 2 -1 8l42 126c13 41 30 59 57 59c36 0 68 -30 68 -61c0 -23 -13 -42 -40 -59z" />
    <glyph glyph-name="oslash" unicode="&#xf8;" horiz-adv-x="503" 
d="M38 -9c-4 -4 -7 -5 -11 -1l-6 4c-5 3 -4 7 0 12l49 58c-36 46 -54 111 -54 190c0 167 83 286 240 286c70 0 125 -22 163 -61l47 56c4 5 6 5 11 1l6 -4c4 -4 4 -7 0 -12l-49 -58c35 -46 52 -109 52 -187c0 -166 -82 -288 -238 -288c-70 0 -124 21 -163 60zM186 255v-53
l130 155c-4 119 -21 161 -64 161c-51 0 -66 -67 -66 -263zM318 274v49l-131 -155c5 -117 22 -159 64 -159c52 0 67 70 67 265z" />
    <glyph glyph-name="oslashacute" unicode="&#x1ff;" horiz-adv-x="503" 
d="M38 -9c-4 -4 -7 -5 -11 -1l-6 4c-5 3 -4 7 0 12l49 58c-36 46 -54 111 -54 190c0 167 83 286 240 286c70 0 125 -22 163 -61l47 56c4 5 6 5 11 1l6 -4c4 -4 4 -7 0 -12l-49 -58c35 -46 52 -109 52 -187c0 -166 -82 -288 -238 -288c-70 0 -124 21 -163 60zM186 255v-53
l130 155c-4 119 -21 161 -64 161c-51 0 -66 -67 -66 -263zM318 274v49l-131 -155c5 -117 22 -159 64 -159c52 0 67 70 67 265zM368 633l-121 -73c-5 -3 -6 -4 -9 -2l-3 2c-3 1 -3 3 -1 9l50 125c15 39 30 59 59 59c34 0 66 -30 66 -61c0 -23 -13 -42 -41 -59z" />
    <glyph glyph-name="oe" unicode="&#x153;" horiz-adv-x="767" 
d="M747 168c-7 -100 -57 -181 -182 -181c-60 0 -119 17 -164 56h-2c-39 -37 -90 -56 -151 -56c-153 0 -232 103 -232 267c0 167 83 286 240 286c62 0 112 -18 149 -50h2c40 34 88 50 140 50c108 0 201 -70 201 -223v-4c0 -23 -8 -30 -36 -30h-228v-18
c0 -145 17 -247 117 -247c76 0 118 60 125 152c0 6 2 10 8 10l6 -1c6 0 7 -5 7 -11zM603 345c0 134 -14 176 -58 176c-47 0 -61 -55 -61 -217h80c30 0 39 8 39 41zM318 274c0 183 -14 244 -66 244c-51 0 -66 -67 -66 -263c0 -184 14 -246 65 -246c52 0 67 70 67 265z" />
    <glyph glyph-name="racute" unicode="&#x155;" horiz-adv-x="416" 
d="M287 0h-263c-6 0 -9 1 -9 6v3c0 6 3 7 9 7h23c18 0 19 3 19 76v341c0 75 -2 79 -20 79h-22c-6 0 -9 1 -9 6v3c0 5 3 6 9 6h181c7 0 9 -5 9 -14v-79h2c24 71 54 106 103 106c50 0 92 -53 92 -114c0 -43 -27 -66 -71 -66c-45 0 -66 28 -66 62c0 33 17 64 40 91
c-3 2 -7 3 -11 3c-36 0 -61 -51 -80 -110v-314c0 -73 1 -76 19 -76h45c6 0 9 -1 9 -7v-3c0 -5 -3 -6 -9 -6zM327 633l-121 -73c-5 -3 -6 -4 -9 -2l-3 2c-3 1 -3 3 -1 9l50 125c15 39 30 59 59 59c34 0 66 -30 66 -61c0 -23 -13 -42 -41 -59z" />
    <glyph glyph-name="rcaron" unicode="&#x159;" horiz-adv-x="416" 
d="M287 0h-263c-6 0 -9 1 -9 6v3c0 6 3 7 9 7h23c18 0 19 3 19 76v341c0 75 -2 79 -20 79h-22c-6 0 -9 1 -9 6v3c0 5 3 6 9 6h181c7 0 9 -5 9 -14v-79h2c24 71 54 106 103 106c50 0 92 -53 92 -114c0 -43 -27 -66 -71 -66c-45 0 -66 28 -66 62c0 33 17 64 40 91
c-3 2 -7 3 -11 3c-36 0 -61 -51 -80 -110v-314c0 -73 1 -76 19 -76h45c6 0 9 -1 9 -7v-3c0 -5 -3 -6 -9 -6zM312 750c4 3 7 4 9 2l3 -2c3 -2 3 -4 1 -8l-58 -137c-14 -31 -28 -48 -59 -48c-30 0 -44 17 -58 48l-58 137c-2 4 -2 6 1 8l2 2c3 2 6 1 10 -2l103 -85h1z" />
    <glyph glyph-name="rcommaaccent" unicode="&#x157;" horiz-adv-x="416" 
d="M287 0h-263c-6 0 -9 1 -9 6v3c0 6 3 7 9 7h23c18 0 19 3 19 76v341c0 75 -2 79 -20 79h-22c-6 0 -9 1 -9 6v3c0 5 3 6 9 6h181c7 0 9 -5 9 -14v-79h2c24 71 54 106 103 106c50 0 92 -53 92 -114c0 -43 -27 -66 -71 -66c-45 0 -66 28 -66 62c0 33 17 64 40 91
c-3 2 -7 3 -11 3c-36 0 -61 -51 -80 -110v-314c0 -73 1 -76 19 -76h45c6 0 9 -1 9 -7v-3c0 -5 -3 -6 -9 -6zM210 -89c0 -46 -25 -80 -54 -106c-6 -6 -8 -6 -12 -3l-5 6c-4 2 -5 5 0 9c22 19 41 44 46 70l-1 1c-10 -12 -26 -24 -48 -24c-26 0 -51 20 -51 54c0 37 22 54 60 54
c40 0 65 -17 65 -61z" />
    <glyph glyph-name="sacute" unicode="&#x15b;" horiz-adv-x="381" 
d="M362 158c0 -111 -90 -171 -190 -171c-40 0 -86 10 -120 32l-3 -15c-1 -7 -2 -10 -7 -10h-3c-6 0 -7 3 -7 10l-8 172c0 6 1 9 8 9h3c6 0 7 -3 7 -9l1 -17c4 -60 57 -151 127 -151c42 0 68 25 68 70c0 62 -39 94 -95 131c-59 39 -109 83 -109 169c0 90 64 162 173 162
c38 0 75 -12 103 -32l2 17c0 7 2 10 7 10h3c5 0 6 -4 6 -10v-160c0 -7 -1 -10 -7 -10h-3c-6 0 -7 3 -7 10v6c0 75 -46 149 -101 149c-37 0 -55 -26 -55 -63c0 -57 39 -89 94 -125c59 -40 113 -83 113 -174zM304 633l-121 -73c-5 -3 -6 -4 -9 -2l-3 2c-3 1 -3 3 -1 9l50 125
c15 39 30 59 59 59c34 0 66 -30 66 -61c0 -23 -13 -42 -41 -59z" />
    <glyph glyph-name="scircumflex" unicode="&#x15d;" horiz-adv-x="381" 
d="M362 158c0 -111 -90 -171 -190 -171c-40 0 -86 10 -120 32l-3 -15c-1 -7 -2 -10 -7 -10h-3c-6 0 -7 3 -7 10l-8 172c0 6 1 9 8 9h3c6 0 7 -3 7 -9l1 -17c4 -60 57 -151 127 -151c42 0 68 25 68 70c0 62 -39 94 -95 131c-59 39 -109 83 -109 169c0 90 64 162 173 162
c38 0 75 -12 103 -32l2 17c0 7 2 10 7 10h3c5 0 6 -4 6 -10v-160c0 -7 -1 -10 -7 -10h-3c-6 0 -7 3 -7 10v6c0 75 -46 149 -101 149c-37 0 -55 -26 -55 -63c0 -57 39 -89 94 -125c59 -40 113 -83 113 -174zM292 561l-103 84h-1l-103 -84c-4 -4 -7 -5 -10 -3l-2 2
c-3 2 -3 4 -1 9l58 136c14 31 28 48 58 48c31 0 45 -17 59 -48l58 -136c2 -5 1 -7 -1 -9l-3 -2c-2 -2 -5 -1 -9 3z" />
    <glyph glyph-name="scaron" unicode="&#x161;" horiz-adv-x="381" 
d="M362 158c0 -111 -90 -171 -190 -171c-40 0 -86 10 -120 32l-3 -15c-1 -7 -2 -10 -7 -10h-3c-6 0 -7 3 -7 10l-8 172c0 6 1 9 8 9h3c6 0 7 -3 7 -9l1 -17c4 -60 57 -151 127 -151c42 0 68 25 68 70c0 62 -39 94 -95 131c-59 39 -109 83 -109 169c0 90 64 162 173 162
c38 0 75 -12 103 -32l2 17c0 7 2 10 7 10h3c5 0 6 -4 6 -10v-160c0 -7 -1 -10 -7 -10h-3c-6 0 -7 3 -7 10v6c0 75 -46 149 -101 149c-37 0 -55 -26 -55 -63c0 -57 39 -89 94 -125c59 -40 113 -83 113 -174zM292 750c4 3 7 4 9 2l3 -2c3 -2 3 -4 1 -8l-58 -137
c-14 -31 -28 -48 -59 -48c-30 0 -44 17 -58 48l-58 137c-2 4 -2 6 1 8l2 2c3 2 6 1 10 -2l103 -85h1z" />
    <glyph glyph-name="scedilla" unicode="&#x15f;" horiz-adv-x="381" 
d="M281 -120c0 -48 -36 -80 -98 -80c-45 0 -68 19 -68 47c0 13 7 23 21 23c13 0 21 -8 21 -20c0 -10 -3 -17 -7 -24c3 -4 9 -6 16 -6c18 0 31 11 31 30c0 25 -21 39 -48 47l-2 4l23 86c-39 0 -85 11 -118 32l-3 -15c-1 -7 -2 -10 -7 -10h-3c-6 0 -7 3 -7 10l-8 172
c0 6 1 9 8 9h3c6 0 7 -3 7 -9l1 -17c4 -60 57 -151 127 -151c42 0 68 25 68 70c0 62 -39 94 -95 131c-59 39 -109 83 -109 169c0 90 64 162 173 162c38 0 75 -12 103 -32l2 17c0 7 2 10 7 10h3c5 0 6 -4 6 -10v-160c0 -7 -1 -10 -7 -10h-3c-6 0 -7 3 -7 10v6
c0 75 -46 149 -101 149c-37 0 -55 -26 -55 -63c0 -57 39 -89 94 -125c59 -40 113 -83 113 -174c0 -104 -79 -162 -171 -170l-5 -18c61 -12 95 -41 95 -90z" />
    <glyph glyph-name="scommaaccent" unicode="&#x219;" horiz-adv-x="381" 
d="M362 158c0 -111 -90 -171 -190 -171c-40 0 -86 10 -120 32l-3 -15c-1 -7 -2 -10 -7 -10h-3c-6 0 -7 3 -7 10l-8 172c0 6 1 9 8 9h3c6 0 7 -3 7 -9l1 -17c4 -60 57 -151 127 -151c42 0 68 25 68 70c0 62 -39 94 -95 131c-59 39 -109 83 -109 169c0 90 64 162 173 162
c38 0 75 -12 103 -32l2 17c0 7 2 10 7 10h3c5 0 6 -4 6 -10v-160c0 -7 -1 -10 -7 -10h-3c-6 0 -7 3 -7 10v6c0 75 -46 149 -101 149c-37 0 -55 -26 -55 -63c0 -57 39 -89 94 -125c59 -40 113 -83 113 -174zM253 -89c0 -46 -25 -80 -54 -106c-6 -6 -8 -6 -12 -3l-5 6
c-4 2 -5 5 0 9c22 19 41 44 46 70l-1 1c-10 -12 -26 -24 -48 -24c-26 0 -51 20 -51 54c0 37 22 54 60 54c40 0 65 -17 65 -61z" />
    <glyph glyph-name="germandbls" unicode="&#xdf;" horiz-adv-x="586" 
d="M571 157c0 -109 -90 -170 -190 -170c-70 0 -142 33 -142 94c0 33 19 51 51 51c34 0 47 -23 47 -49c0 -22 -10 -44 -20 -60c17 -9 36 -15 58 -15c43 0 73 25 73 68c0 61 -44 95 -93 131c-52 38 -95 79 -95 147c0 123 146 102 146 235c0 79 -36 132 -91 132
c-73 0 -93 -79 -93 -185v-528c0 -7 -2 -8 -8 -8h-191c-6 0 -9 1 -9 6v3c0 6 3 7 9 7h24c18 0 19 3 19 76v442c0 117 93 206 262 206c120 0 219 -43 219 -122c0 -106 -182 -98 -182 -176c0 -42 45 -76 96 -113c56 -39 110 -83 110 -172z" />
    <glyph glyph-name="tcaron" unicode="&#x165;" horiz-adv-x="316" 
d="M311 86c-4 -72 -36 -99 -102 -99c-80 0 -149 46 -149 166v354h-43c-6 0 -9 1 -9 6v5c0 6 3 7 9 7l43 2v101c0 6 2 9 7 11c39 13 99 38 129 61c6 5 8 6 13 6h1c6 0 7 -1 7 -7v-172h77c6 0 9 -1 9 -7v-7c0 -5 -3 -6 -9 -6h-77v-411c0 -53 4 -80 33 -80c25 0 39 25 41 71
c1 6 2 10 8 9h5c6 -1 7 -4 7 -10zM307 753c25 0 57 -18 57 -49c0 -22 -11 -39 -27 -57l-77 -85c-4 -5 -6 -5 -10 -4l-2 1c-3 1 -3 3 -3 10l11 118c4 39 16 66 51 66z" />
    <glyph glyph-name="tcommaaccent" unicode="&#x163;" horiz-adv-x="316" 
d="M311 86c-4 -72 -36 -99 -102 -99c-80 0 -149 46 -149 166v354h-43c-6 0 -9 1 -9 6v5c0 6 3 7 9 7l43 2v101c0 6 2 9 7 11c39 13 99 38 129 61c6 5 8 6 13 6h1c6 0 7 -1 7 -7v-172h77c6 0 9 -1 9 -7v-7c0 -5 -3 -6 -9 -6h-77v-411c0 -53 4 -80 33 -80c25 0 39 25 41 71
c1 6 2 10 8 9h5c6 -1 7 -4 7 -10zM242 -89c0 -46 -25 -80 -54 -106c-6 -6 -8 -6 -12 -3l-5 6c-4 2 -5 5 0 9c22 19 41 44 46 70l-1 1c-10 -12 -26 -24 -48 -24c-26 0 -51 20 -51 54c0 37 22 54 60 54c40 0 65 -17 65 -61z" />
    <glyph glyph-name="tcommaaccent" unicode="&#x21b;" horiz-adv-x="316" 
d="M311 86c-4 -72 -36 -99 -102 -99c-80 0 -149 46 -149 166v354h-43c-6 0 -9 1 -9 6v5c0 6 3 7 9 7l43 2v101c0 6 2 9 7 11c39 13 99 38 129 61c6 5 8 6 13 6h1c6 0 7 -1 7 -7v-172h77c6 0 9 -1 9 -7v-7c0 -5 -3 -6 -9 -6h-77v-411c0 -53 4 -80 33 -80c25 0 39 25 41 71
c1 6 2 10 8 9h5c6 -1 7 -4 7 -10zM242 -89c0 -46 -25 -80 -54 -106c-6 -6 -8 -6 -12 -3l-5 6c-4 2 -5 5 0 9c22 19 41 44 46 70l-1 1c-10 -12 -26 -24 -48 -24c-26 0 -51 20 -51 54c0 37 22 54 60 54c40 0 65 -17 65 -61z" />
    <glyph glyph-name="tbar" unicode="&#x167;" horiz-adv-x="316" 
d="M311 86c-4 -72 -36 -99 -102 -99c-80 0 -149 46 -149 166v158h-32c-6 0 -9 2 -9 8v5c0 6 3 9 9 9h32v174h-43c-6 0 -9 1 -9 6v5c0 6 3 7 9 7l43 2v101c0 6 2 9 7 11c39 13 99 38 129 61c6 5 8 6 13 6h1c6 0 7 -1 7 -7v-172h77c6 0 9 -1 9 -7v-7c0 -5 -3 -6 -9 -6h-77
v-174h62c7 0 10 -3 10 -9v-6c0 -5 -3 -7 -10 -7h-62v-215c0 -53 4 -80 33 -80c25 0 39 25 41 71c1 6 2 10 8 9h5c6 -1 7 -4 7 -10z" />
    <glyph glyph-name="ugrave" unicode="&#xf9;" horiz-adv-x="550" 
d="M527 0h-183c-6 0 -9 5 -9 14v74h-1c-19 -70 -65 -101 -134 -101c-67 0 -140 38 -140 162v287c0 73 -1 76 -19 76h-24c-6 0 -9 1 -9 7v2c0 5 3 6 9 6h190c7 0 9 -5 9 -14v-398c0 -56 10 -85 46 -85c35 0 51 37 66 88v318c0 73 -1 76 -19 76h-18c-6 0 -9 1 -9 7v2
c0 5 3 6 9 6h185c6 0 9 -5 9 -14v-421c0 -73 1 -76 19 -76h23c6 0 9 -1 9 -7v-3c0 -5 -3 -6 -9 -6zM148 633c-28 17 -41 36 -41 59c0 31 32 61 66 61c29 0 45 -20 59 -59l50 -125c2 -6 2 -7 -1 -9l-3 -2c-2 -2 -4 -1 -9 2z" />
    <glyph glyph-name="uacute" unicode="&#xfa;" horiz-adv-x="550" 
d="M527 0h-183c-6 0 -9 5 -9 14v74h-1c-19 -70 -65 -101 -134 -101c-67 0 -140 38 -140 162v287c0 73 -1 76 -19 76h-24c-6 0 -9 1 -9 7v2c0 5 3 6 9 6h190c7 0 9 -5 9 -14v-398c0 -56 10 -85 46 -85c35 0 51 37 66 88v318c0 73 -1 76 -19 76h-18c-6 0 -9 1 -9 7v2
c0 5 3 6 9 6h185c6 0 9 -5 9 -14v-421c0 -73 1 -76 19 -76h23c6 0 9 -1 9 -7v-3c0 -5 -3 -6 -9 -6zM383 633l-121 -73c-5 -3 -6 -4 -9 -2l-3 2c-3 1 -3 3 -1 9l50 125c15 39 30 59 59 59c34 0 66 -30 66 -61c0 -23 -13 -42 -41 -59z" />
    <glyph glyph-name="ucircumflex" unicode="&#xfb;" horiz-adv-x="550" 
d="M527 0h-183c-6 0 -9 5 -9 14v74h-1c-19 -70 -65 -101 -134 -101c-67 0 -140 38 -140 162v287c0 73 -1 76 -19 76h-24c-6 0 -9 1 -9 7v2c0 5 3 6 9 6h190c7 0 9 -5 9 -14v-398c0 -56 10 -85 46 -85c35 0 51 37 66 88v318c0 73 -1 76 -19 76h-18c-6 0 -9 1 -9 7v2
c0 5 3 6 9 6h185c6 0 9 -5 9 -14v-421c0 -73 1 -76 19 -76h23c6 0 9 -1 9 -7v-3c0 -5 -3 -6 -9 -6zM370 561l-103 84h-1l-103 -84c-4 -4 -7 -5 -10 -3l-2 2c-3 2 -3 4 -1 9l58 136c14 31 28 48 58 48c31 0 45 -17 59 -48l58 -136c2 -5 1 -7 -1 -9l-3 -2c-2 -2 -5 -1 -9 3z
" />
    <glyph glyph-name="utilde" unicode="&#x169;" horiz-adv-x="550" 
d="M527 0h-183c-6 0 -9 5 -9 14v74h-1c-19 -70 -65 -101 -134 -101c-67 0 -140 38 -140 162v287c0 73 -1 76 -19 76h-24c-6 0 -9 1 -9 7v2c0 5 3 6 9 6h190c7 0 9 -5 9 -14v-398c0 -56 10 -85 46 -85c35 0 51 37 66 88v318c0 73 -1 76 -19 76h-18c-6 0 -9 1 -9 7v2
c0 5 3 6 9 6h185c6 0 9 -5 9 -14v-421c0 -73 1 -76 19 -76h23c6 0 9 -1 9 -7v-3c0 -5 -3 -6 -9 -6zM385 768c0 -98 -13 -162 -69 -162c-37 0 -79 24 -113 24c-27 0 -40 -23 -40 -52c0 -7 -1 -10 -6 -10h-2c-6 0 -7 3 -7 10c0 98 12 162 69 162c37 0 79 -24 113 -24
c26 0 39 22 39 52c0 7 1 10 7 10h2c6 0 7 -3 7 -10z" />
    <glyph glyph-name="udieresis" unicode="&#xfc;" horiz-adv-x="550" 
d="M527 0h-183c-6 0 -9 5 -9 14v74h-1c-19 -70 -65 -101 -134 -101c-67 0 -140 38 -140 162v287c0 73 -1 76 -19 76h-24c-6 0 -9 1 -9 7v2c0 5 3 6 9 6h190c7 0 9 -5 9 -14v-398c0 -56 10 -85 46 -85c35 0 51 37 66 88v318c0 73 -1 76 -19 76h-18c-6 0 -9 1 -9 7v2
c0 5 3 6 9 6h185c6 0 9 -5 9 -14v-421c0 -73 1 -76 19 -76h23c6 0 9 -1 9 -7v-3c0 -5 -3 -6 -9 -6zM425 673c0 -49 -29 -82 -71 -82h-1c-43 0 -74 32 -74 82c0 48 29 80 73 80c43 0 73 -32 73 -80zM254 673c0 -49 -29 -82 -71 -82c-44 0 -75 32 -75 82c0 48 29 80 74 80
c42 0 72 -32 72 -80z" />
    <glyph glyph-name="umacron" unicode="&#x16b;" horiz-adv-x="550" 
d="M527 0h-183c-6 0 -9 5 -9 14v74h-1c-19 -70 -65 -101 -134 -101c-67 0 -140 38 -140 162v287c0 73 -1 76 -19 76h-24c-6 0 -9 1 -9 7v2c0 5 3 6 9 6h190c7 0 9 -5 9 -14v-398c0 -56 10 -85 46 -85c35 0 51 37 66 88v318c0 73 -1 76 -19 76h-18c-6 0 -9 1 -9 7v2
c0 5 3 6 9 6h185c6 0 9 -5 9 -14v-421c0 -73 1 -76 19 -76h23c6 0 9 -1 9 -7v-3c0 -5 -3 -6 -9 -6zM374 636h-213c-7 0 -8 2 -8 9v77c0 7 1 9 8 9h213c7 0 8 -2 8 -9v-77c0 -7 -1 -9 -8 -9z" />
    <glyph glyph-name="ubreve" unicode="&#x16d;" horiz-adv-x="550" 
d="M527 0h-183c-6 0 -9 5 -9 14v74h-1c-19 -70 -65 -101 -134 -101c-67 0 -140 38 -140 162v287c0 73 -1 76 -19 76h-24c-6 0 -9 1 -9 7v2c0 5 3 6 9 6h190c7 0 9 -5 9 -14v-398c0 -56 10 -85 46 -85c35 0 51 37 66 88v318c0 73 -1 76 -19 76h-18c-6 0 -9 1 -9 7v2
c0 5 3 6 9 6h185c6 0 9 -5 9 -14v-421c0 -73 1 -76 19 -76h23c6 0 9 -1 9 -7v-3c0 -5 -3 -6 -9 -6zM378 743c0 -93 -28 -174 -112 -174s-111 78 -111 174c0 7 1 11 7 11h1c6 0 7 -4 7 -11c0 -42 29 -76 96 -76s97 34 97 76c0 7 1 11 7 11h1c6 0 7 -4 7 -11z" />
    <glyph glyph-name="uring" unicode="&#x16f;" horiz-adv-x="550" 
d="M527 0h-183c-6 0 -9 5 -9 14v74h-1c-19 -70 -65 -101 -134 -101c-67 0 -140 38 -140 162v287c0 73 -1 76 -19 76h-24c-6 0 -9 1 -9 7v2c0 5 3 6 9 6h190c7 0 9 -5 9 -14v-398c0 -56 10 -85 46 -85c35 0 51 37 66 88v318c0 73 -1 76 -19 76h-18c-6 0 -9 1 -9 7v2
c0 5 3 6 9 6h185c6 0 9 -5 9 -14v-421c0 -73 1 -76 19 -76h23c6 0 9 -1 9 -7v-3c0 -5 -3 -6 -9 -6zM375 663c0 -54 -36 -100 -110 -100c-71 0 -107 38 -107 92c0 55 36 98 109 98c71 0 108 -37 108 -90zM296 660c0 52 -7 79 -30 79c-22 0 -29 -28 -29 -82
c0 -51 7 -80 29 -80c23 0 30 30 30 83z" />
    <glyph glyph-name="uhungarumlaut" unicode="&#x171;" horiz-adv-x="550" 
d="M527 0h-183c-6 0 -9 5 -9 14v74h-1c-19 -70 -65 -101 -134 -101c-67 0 -140 38 -140 162v287c0 73 -1 76 -19 76h-24c-6 0 -9 1 -9 7v2c0 5 3 6 9 6h190c7 0 9 -5 9 -14v-398c0 -56 10 -85 46 -85c35 0 51 37 66 88v318c0 73 -1 76 -19 76h-18c-6 0 -9 1 -9 7v2
c0 5 3 6 9 6h185c6 0 9 -5 9 -14v-421c0 -73 1 -76 19 -76h23c6 0 9 -1 9 -7v-3c0 -5 -3 -6 -9 -6zM281 633l-113 -73c-5 -3 -7 -4 -10 -2l-3 2c-2 1 -3 2 -1 8l43 126c12 41 29 59 56 59c37 0 68 -30 68 -61c0 -23 -13 -42 -40 -59zM439 633l-114 -73c-4 -3 -6 -4 -9 -2
l-3 2c-2 1 -3 2 -1 8l42 126c13 41 30 59 57 59c36 0 68 -30 68 -61c0 -23 -13 -42 -40 -59z" />
    <glyph glyph-name="uogonek" unicode="&#x173;" horiz-adv-x="550" 
d="M413 -132c-20 -40 -48 -68 -99 -68c-44 0 -78 26 -78 73c0 55 43 95 101 130c-1 2 -2 6 -2 11v74h-1c-19 -70 -65 -101 -134 -101c-67 0 -140 38 -140 162v287c0 73 -1 76 -19 76h-24c-6 0 -9 1 -9 7v2c0 5 3 6 9 6h190c7 0 9 -5 9 -14v-398c0 -56 10 -85 46 -85
c35 0 51 37 66 88v318c0 73 -1 76 -19 76h-18c-6 0 -9 1 -9 7v2c0 5 3 6 9 6h185c6 0 9 -5 9 -14v-421c0 -73 1 -76 19 -76h23c6 0 9 -1 9 -7v-3c0 -5 -3 -6 -9 -6h-172c-21 -28 -34 -65 -34 -105c0 -33 11 -51 35 -51c19 0 34 12 44 31c3 5 4 6 7 4l5 -2c3 -2 3 -4 1 -9z
" />
    <glyph glyph-name="wgrave" unicode="&#x1e81;" horiz-adv-x="713" 
d="M699 512h-5c-17 0 -21 -11 -39 -67c-5 -18 -16 -59 -26 -100l-87 -351c-2 -5 -3 -7 -8 -7h-68c-5 0 -6 1 -8 7l-94 371h-2l-105 -371c-1 -5 -2 -7 -8 -7h-67c-5 0 -7 1 -8 7l-108 431c-22 86 -23 87 -43 87h-9c-6 0 -9 1 -9 7v2c0 5 3 6 9 6h236c6 0 9 -1 9 -6v-2
c0 -6 -3 -7 -9 -7h-8c-13 0 -19 -1 -19 -18c0 -12 4 -33 11 -69l52 -252h1l46 168c9 30 18 72 18 104c0 46 -13 67 -36 67h-8c-6 0 -9 1 -9 7v2c0 5 3 6 9 6h208c6 0 9 -1 9 -6v-2c0 -6 -3 -7 -9 -7h-8c-11 0 -17 -2 -17 -16c0 -12 4 -33 13 -71l62 -252h1l38 164
c8 35 16 81 16 116c0 40 -14 59 -37 59h-8c-6 0 -9 1 -9 7v2c0 5 3 6 9 6h124c6 0 9 -1 9 -6v-2c0 -6 -3 -7 -9 -7zM282 633c-28 17 -41 36 -41 59c0 31 32 61 66 61c29 0 45 -20 59 -59l50 -125c2 -6 2 -7 -1 -9l-3 -2c-2 -2 -4 -1 -9 2z" />
    <glyph glyph-name="wacute" unicode="&#x1e83;" horiz-adv-x="713" 
d="M699 512h-5c-17 0 -21 -11 -39 -67c-5 -18 -16 -59 -26 -100l-87 -351c-2 -5 -3 -7 -8 -7h-68c-5 0 -6 1 -8 7l-94 371h-2l-105 -371c-1 -5 -2 -7 -8 -7h-67c-5 0 -7 1 -8 7l-108 431c-22 86 -23 87 -43 87h-9c-6 0 -9 1 -9 7v2c0 5 3 6 9 6h236c6 0 9 -1 9 -6v-2
c0 -6 -3 -7 -9 -7h-8c-13 0 -19 -1 -19 -18c0 -12 4 -33 11 -69l52 -252h1l46 168c9 30 18 72 18 104c0 46 -13 67 -36 67h-8c-6 0 -9 1 -9 7v2c0 5 3 6 9 6h208c6 0 9 -1 9 -6v-2c0 -6 -3 -7 -9 -7h-8c-11 0 -17 -2 -17 -16c0 -12 4 -33 13 -71l62 -252h1l38 164
c8 35 16 81 16 116c0 40 -14 59 -37 59h-8c-6 0 -9 1 -9 7v2c0 5 3 6 9 6h124c6 0 9 -1 9 -6v-2c0 -6 -3 -7 -9 -7zM518 633l-121 -73c-5 -3 -6 -4 -9 -2l-3 2c-3 1 -3 3 -1 9l50 125c15 39 30 59 59 59c34 0 66 -30 66 -61c0 -23 -13 -42 -41 -59z" />
    <glyph glyph-name="wcircumflex" unicode="&#x175;" horiz-adv-x="713" 
d="M699 512h-5c-17 0 -21 -11 -39 -67c-5 -18 -16 -59 -26 -100l-87 -351c-2 -5 -3 -7 -8 -7h-68c-5 0 -6 1 -8 7l-94 371h-2l-105 -371c-1 -5 -2 -7 -8 -7h-67c-5 0 -7 1 -8 7l-108 431c-22 86 -23 87 -43 87h-9c-6 0 -9 1 -9 7v2c0 5 3 6 9 6h236c6 0 9 -1 9 -6v-2
c0 -6 -3 -7 -9 -7h-8c-13 0 -19 -1 -19 -18c0 -12 4 -33 11 -69l52 -252h1l46 168c9 30 18 72 18 104c0 46 -13 67 -36 67h-8c-6 0 -9 1 -9 7v2c0 5 3 6 9 6h208c6 0 9 -1 9 -6v-2c0 -6 -3 -7 -9 -7h-8c-11 0 -17 -2 -17 -16c0 -12 4 -33 13 -71l62 -252h1l38 164
c8 35 16 81 16 116c0 40 -14 59 -37 59h-8c-6 0 -9 1 -9 7v2c0 5 3 6 9 6h124c6 0 9 -1 9 -6v-2c0 -6 -3 -7 -9 -7zM510 561l-103 84h-1l-103 -84c-4 -4 -7 -5 -10 -3l-2 2c-3 2 -3 4 -1 9l58 136c14 31 28 48 58 48c31 0 45 -17 59 -48l58 -136c2 -5 1 -7 -1 -9l-3 -2
c-2 -2 -5 -1 -9 3z" />
    <glyph glyph-name="wdieresis" unicode="&#x1e85;" horiz-adv-x="713" 
d="M699 512h-5c-17 0 -21 -11 -39 -67c-5 -18 -16 -59 -26 -100l-87 -351c-2 -5 -3 -7 -8 -7h-68c-5 0 -6 1 -8 7l-94 371h-2l-105 -371c-1 -5 -2 -7 -8 -7h-67c-5 0 -7 1 -8 7l-108 431c-22 86 -23 87 -43 87h-9c-6 0 -9 1 -9 7v2c0 5 3 6 9 6h236c6 0 9 -1 9 -6v-2
c0 -6 -3 -7 -9 -7h-8c-13 0 -19 -1 -19 -18c0 -12 4 -33 11 -69l52 -252h1l46 168c9 30 18 72 18 104c0 46 -13 67 -36 67h-8c-6 0 -9 1 -9 7v2c0 5 3 6 9 6h208c6 0 9 -1 9 -6v-2c0 -6 -3 -7 -9 -7h-8c-11 0 -17 -2 -17 -16c0 -12 4 -33 13 -71l62 -252h1l38 164
c8 35 16 81 16 116c0 40 -14 59 -37 59h-8c-6 0 -9 1 -9 7v2c0 5 3 6 9 6h124c6 0 9 -1 9 -6v-2c0 -6 -3 -7 -9 -7zM569 673c0 -49 -29 -82 -71 -82h-1c-43 0 -74 32 -74 82c0 48 29 80 73 80c43 0 73 -32 73 -80zM398 673c0 -49 -29 -82 -71 -82c-44 0 -75 32 -75 82
c0 48 29 80 74 80c42 0 72 -32 72 -80z" />
    <glyph glyph-name="ygrave" unicode="&#x1ef3;" horiz-adv-x="461" 
d="M448 512h-4c-18 0 -22 -11 -40 -67c-6 -19 -18 -60 -29 -100l-103 -396c-11 -40 -16 -69 -16 -92c0 -28 9 -41 31 -41h20c5 0 7 -1 7 -7v-3c0 -5 -2 -6 -7 -6h-158c-5 0 -8 1 -8 6v3c0 6 3 7 8 7h22c39 0 54 41 79 134l9 34c2 7 0 10 -5 10h-37c-4 0 -6 1 -9 7l-142 424
c-28 85 -32 87 -49 87h-5c-4 0 -7 1 -7 7v2c0 5 3 6 7 6h237c5 0 7 -1 7 -6v-2c0 -6 -2 -7 -7 -7h-11c-11 0 -17 -2 -17 -16c0 -12 5 -33 17 -71l74 -238h1l37 150c9 34 19 81 19 116c0 40 -14 59 -38 59h-18c-5 0 -8 1 -8 7v2c0 5 3 6 8 6h135c5 0 8 -1 8 -6v-2
c0 -6 -3 -7 -8 -7zM152 633c-28 17 -41 36 -41 59c0 31 32 61 66 61c29 0 45 -20 59 -59l50 -125c2 -6 2 -7 -1 -9l-3 -2c-2 -2 -4 -1 -9 2z" />
    <glyph glyph-name="yacute" unicode="&#xfd;" horiz-adv-x="461" 
d="M448 512h-4c-18 0 -22 -11 -40 -67c-6 -19 -18 -60 -29 -100l-103 -396c-11 -40 -16 -69 -16 -92c0 -28 9 -41 31 -41h20c5 0 7 -1 7 -7v-3c0 -5 -2 -6 -7 -6h-158c-5 0 -8 1 -8 6v3c0 6 3 7 8 7h22c39 0 54 41 79 134l9 34c2 7 0 10 -5 10h-37c-4 0 -6 1 -9 7l-142 424
c-28 85 -32 87 -49 87h-5c-4 0 -7 1 -7 7v2c0 5 3 6 7 6h237c5 0 7 -1 7 -6v-2c0 -6 -2 -7 -7 -7h-11c-11 0 -17 -2 -17 -16c0 -12 5 -33 17 -71l74 -238h1l37 150c9 34 19 81 19 116c0 40 -14 59 -38 59h-18c-5 0 -8 1 -8 7v2c0 5 3 6 8 6h135c5 0 8 -1 8 -6v-2
c0 -6 -3 -7 -8 -7zM387 633l-121 -73c-5 -3 -6 -4 -9 -2l-3 2c-3 1 -3 3 -1 9l50 125c15 39 30 59 59 59c34 0 66 -30 66 -61c0 -23 -13 -42 -41 -59z" />
    <glyph glyph-name="ycircumflex" unicode="&#x177;" horiz-adv-x="461" 
d="M448 512h-4c-18 0 -22 -11 -40 -67c-6 -19 -18 -60 -29 -100l-103 -396c-11 -40 -16 -69 -16 -92c0 -28 9 -41 31 -41h20c5 0 7 -1 7 -7v-3c0 -5 -2 -6 -7 -6h-158c-5 0 -8 1 -8 6v3c0 6 3 7 8 7h22c39 0 54 41 79 134l9 34c2 7 0 10 -5 10h-37c-4 0 -6 1 -9 7l-142 424
c-28 85 -32 87 -49 87h-5c-4 0 -7 1 -7 7v2c0 5 3 6 7 6h237c5 0 7 -1 7 -6v-2c0 -6 -2 -7 -7 -7h-11c-11 0 -17 -2 -17 -16c0 -12 5 -33 17 -71l74 -238h1l37 150c9 34 19 81 19 116c0 40 -14 59 -38 59h-18c-5 0 -8 1 -8 7v2c0 5 3 6 8 6h135c5 0 8 -1 8 -6v-2
c0 -6 -3 -7 -8 -7zM376 561l-103 84h-1l-103 -84c-4 -4 -7 -5 -10 -3l-2 2c-3 2 -3 4 -1 9l58 136c14 31 28 48 58 48c31 0 45 -17 59 -48l58 -136c2 -5 1 -7 -1 -9l-3 -2c-2 -2 -5 -1 -9 3z" />
    <glyph glyph-name="ydieresis" unicode="&#xff;" horiz-adv-x="461" 
d="M448 512h-4c-18 0 -22 -11 -40 -67c-6 -19 -18 -60 -29 -100l-103 -396c-11 -40 -16 -69 -16 -92c0 -28 9 -41 31 -41h20c5 0 7 -1 7 -7v-3c0 -5 -2 -6 -7 -6h-158c-5 0 -8 1 -8 6v3c0 6 3 7 8 7h22c39 0 54 41 79 134l9 34c2 7 0 10 -5 10h-37c-4 0 -6 1 -9 7l-142 424
c-28 85 -32 87 -49 87h-5c-4 0 -7 1 -7 7v2c0 5 3 6 7 6h237c5 0 7 -1 7 -6v-2c0 -6 -2 -7 -7 -7h-11c-11 0 -17 -2 -17 -16c0 -12 5 -33 17 -71l74 -238h1l37 150c9 34 19 81 19 116c0 40 -14 59 -38 59h-18c-5 0 -8 1 -8 7v2c0 5 3 6 8 6h135c5 0 8 -1 8 -6v-2
c0 -6 -3 -7 -8 -7zM422 673c0 -49 -29 -82 -71 -82h-1c-43 0 -74 32 -74 82c0 48 29 80 73 80c43 0 73 -32 73 -80zM251 673c0 -49 -29 -82 -71 -82c-44 0 -75 32 -75 82c0 48 29 80 74 80c42 0 72 -32 72 -80z" />
    <glyph glyph-name="zacute" unicode="&#x17a;" horiz-adv-x="406" 
d="M377 0h-351c-5 0 -7 1 -7 7v1c0 4 2 10 4 17l182 487h-58c-55 0 -89 -59 -89 -144v-23c0 -7 -2 -10 -7 -10h-3c-7 0 -8 3 -8 10v172c0 6 1 10 6 10h327c6 0 7 -1 7 -7v-1c0 -4 -1 -10 -4 -16l-183 -488h67c67 0 106 80 110 148l2 45c0 6 1 9 7 9h3c7 0 8 -2 8 -9l-7 -198
c0 -7 -1 -10 -6 -10zM324 633l-121 -73c-5 -3 -6 -4 -9 -2l-3 2c-3 1 -3 3 -1 9l50 125c15 39 30 59 59 59c34 0 66 -30 66 -61c0 -23 -13 -42 -41 -59z" />
    <glyph glyph-name="zcaron" unicode="&#x17e;" horiz-adv-x="406" 
d="M377 0h-351c-5 0 -7 1 -7 7v1c0 4 2 10 4 17l182 487h-58c-55 0 -89 -59 -89 -144v-23c0 -7 -2 -10 -7 -10h-3c-7 0 -8 3 -8 10v172c0 6 1 10 6 10h327c6 0 7 -1 7 -7v-1c0 -4 -1 -10 -4 -16l-183 -488h67c67 0 106 80 110 148l2 45c0 6 1 9 7 9h3c7 0 8 -2 8 -9l-7 -198
c0 -7 -1 -10 -6 -10zM323 750c4 3 7 4 9 2l3 -2c3 -2 3 -4 1 -8l-58 -137c-14 -31 -28 -48 -59 -48c-30 0 -44 17 -58 48l-58 137c-2 4 -2 6 1 8l2 2c3 2 6 1 10 -2l103 -85h1z" />
    <glyph glyph-name="zdotaccent" unicode="&#x17c;" horiz-adv-x="406" 
d="M377 0h-351c-5 0 -7 1 -7 7v1c0 4 2 10 4 17l182 487h-58c-55 0 -89 -59 -89 -144v-23c0 -7 -2 -10 -7 -10h-3c-7 0 -8 3 -8 10v172c0 6 1 10 6 10h327c6 0 7 -1 7 -7v-1c0 -4 -1 -10 -4 -16l-183 -488h67c67 0 106 80 110 148l2 45c0 6 1 9 7 9h3c7 0 8 -2 8 -9l-7 -198
c0 -7 -1 -10 -6 -10zM303 676c0 -51 -35 -86 -85 -86c-52 0 -89 34 -89 86c0 50 35 84 87 84s87 -34 87 -84z" />
    <glyph glyph-name="eng" unicode="&#x14b;" horiz-adv-x="559" 
d="M499 378v-405c0 -115 -80 -173 -193 -173c-69 0 -129 38 -129 98c0 39 24 58 64 58s57 -23 57 -55c0 -26 -9 -49 -27 -78c5 -2 15 -4 22 -4c35 0 50 29 50 88v505c0 56 -11 86 -49 86c-39 0 -56 -38 -71 -89v-317c0 -73 1 -76 19 -76h16c6 0 9 -1 9 -7v-3
c0 -5 -3 -6 -9 -6h-234c-6 0 -9 1 -9 6v3c0 6 3 7 9 7h23c18 0 19 3 19 76v344c0 73 -1 76 -19 76h-23c-6 0 -9 1 -9 6v3c0 5 3 6 9 6h182c7 0 9 -5 9 -14v-74h2c19 69 66 101 138 101c69 0 144 -38 144 -162z" />
    <glyph glyph-name="eth" unicode="&#xf0;" horiz-adv-x="503" 
d="M410 695l-74 -40c92 -78 150 -208 150 -384c0 -163 -85 -284 -237 -284c-155 0 -233 104 -233 264c0 169 80 260 176 260c44 0 81 -17 108 -41h2c-10 50 -26 98 -50 139l-85 -46c-7 -4 -9 -3 -12 2l-3 4c-3 6 -3 8 4 12l85 46c-35 54 -84 90 -148 94c-5 0 -6 2 -6 8v4
c0 4 1 7 7 7c84 0 161 -25 224 -71l81 44c6 3 9 4 12 -2l3 -5c3 -5 2 -8 -4 -11zM318 257c0 68 -4 134 -12 179c-18 21 -36 32 -55 32c-49 0 -65 -98 -65 -225c0 -147 11 -234 65 -234s67 85 67 248z" />
    <glyph glyph-name="thorn" unicode="&#xfe;" horiz-adv-x="523" 
d="M506 273c0 -180 -69 -286 -189 -286c-42 0 -77 19 -100 46h-2v-137c0 -76 1 -80 21 -80h38c6 0 9 -1 9 -7v-3c0 -5 -3 -6 -9 -6h-257c-6 0 -9 1 -9 6v3c0 6 3 7 9 7h22c19 0 20 4 20 80v753c0 73 -1 75 -19 75h-23c-6 0 -9 1 -9 7v3c0 5 3 6 9 6h190c6 0 9 -5 9 -14v-266
h1c23 54 69 80 125 80c99 0 164 -104 164 -267zM338 263c0 164 -15 226 -59 226c-34 0 -50 -35 -63 -80v-347c10 -20 29 -37 55 -37c46 0 67 67 67 238z" />
    <glyph glyph-name="A.small" unicode="&#xe0c3;" horiz-adv-x="517" 
d="M503 0h-248c-6 0 -9 1 -9 6v4c0 5 3 6 9 6h16c12 0 18 2 18 17c0 14 -6 41 -18 89l-24 94h-120l-2 -7c-10 -40 -19 -80 -19 -120c0 -48 18 -73 46 -73h21c6 0 8 -1 8 -6v-4c0 -5 -2 -6 -8 -6h-159c-6 0 -9 1 -9 6v4c0 5 3 6 9 6h6c20 0 27 18 47 83c10 32 24 76 36 118
l108 387c1 6 3 8 9 8h80c6 0 8 -1 10 -8l129 -482c26 -97 31 -106 54 -106h10c6 0 9 -1 9 -6v-4c0 -5 -3 -6 -9 -6zM241 237l-52 203h-1l-56 -203h109z" />
    <glyph glyph-name="B.small" unicode="&#xe0c4;" horiz-adv-x="520" 
d="M309 0h-283c-7 0 -9 1 -9 6v3c0 6 2 7 9 7h25c17 0 18 3 18 72v424c0 69 -1 72 -18 72h-26c-6 0 -8 1 -8 7v3c0 5 2 6 8 6h292c86 0 157 -38 157 -140c0 -78 -58 -130 -153 -140v-4c106 -4 180 -39 180 -146c0 -137 -103 -170 -192 -170zM257 325c40 0 60 34 60 128
c0 104 -20 126 -64 126h-27v-254h31zM271 20c42 0 62 40 62 144c0 115 -31 142 -77 142h-30v-286h45z" />
    <glyph glyph-name="C.small" unicode="&#xe0c5;" horiz-adv-x="443" 
d="M409 -5h-3c-5 0 -6 3 -7 9l-2 15c-33 -16 -90 -32 -137 -32c-158 0 -242 132 -242 310c0 195 92 316 244 316c50 0 95 -18 117 -31l2 16c1 6 2 8 7 8h3c5 0 6 -2 6 -8v-200c0 -6 -1 -8 -6 -8h-6c-4 0 -5 2 -5 8v8c0 86 -51 188 -116 188c-50 0 -77 -45 -77 -295
c0 -214 23 -292 84 -292c69 0 129 94 133 193l1 21c0 5 1 7 6 7h5c5 0 6 -2 6 -8l-8 -217c0 -5 -1 -8 -5 -8z" />
    <glyph glyph-name="D.small" unicode="&#xe0c6;" horiz-adv-x="556" 
d="M538 307c0 -199 -98 -307 -232 -307h-280c-7 0 -9 1 -9 6v3c0 6 2 7 9 7h25c17 0 18 3 18 72v424c0 69 -1 72 -18 72h-26c-6 0 -8 1 -8 7v3c0 5 2 6 8 6h268c154 0 245 -96 245 -293zM368 300c0 212 -30 279 -105 279h-37v-559h46c69 0 96 81 96 280z" />
    <glyph glyph-name="E.small" unicode="&#xe0c7;" horiz-adv-x="458" 
d="M415 0h-389c-7 0 -9 1 -9 6v3c0 6 2 7 9 7h25c17 0 18 3 18 72v424c0 69 -1 72 -18 72h-26c-6 0 -8 1 -8 7v3c0 5 2 6 8 6h364c5 0 5 -3 5 -8v-200c0 -5 -1 -8 -6 -8h-6c-5 0 -5 3 -5 8v15c0 87 -39 172 -107 172h-44v-253h27c34 0 57 39 57 91v7c0 6 1 8 5 8h6
c5 0 6 -2 6 -8v-222c0 -6 -1 -8 -6 -8h-6c-4 0 -5 2 -5 8v11c0 52 -23 92 -57 92h-27v-285h70c71 0 111 104 114 176l1 14c0 5 1 7 6 7h5c6 0 6 -3 6 -8l-7 -201c0 -5 -1 -8 -6 -8z" />
    <glyph glyph-name="F.small" unicode="&#xe0c8;" horiz-adv-x="423" 
d="M291 0h-265c-7 0 -9 1 -9 6v3c0 6 2 7 9 7h25c17 0 18 3 18 72v424c0 69 -1 72 -18 72h-26c-6 0 -8 1 -8 7v3c0 5 2 6 8 6h364c5 0 5 -3 5 -8v-207c0 -6 -1 -9 -6 -9h-6c-5 0 -5 3 -5 9v22c0 86 -39 172 -107 172h-44v-271h27c34 0 57 39 57 90v7c0 6 1 9 5 9h6
c5 0 6 -3 6 -9v-229c0 -5 -1 -8 -6 -8h-6c-4 0 -5 3 -5 8v21c0 51 -23 90 -57 90h-27v-199c0 -69 1 -72 18 -72h47c5 0 8 -1 8 -7v-3c0 -5 -3 -6 -8 -6z" />
    <glyph glyph-name="G.small" unicode="&#xe0c9;" horiz-adv-x="505" 
d="M267 -13c-164 0 -249 113 -249 310c0 200 92 316 260 316c56 0 102 -15 129 -32l2 17c1 6 2 8 7 8h4c4 0 5 -2 5 -8v-198c0 -6 -1 -8 -6 -8h-6c-4 0 -5 2 -5 8v5c0 83 -53 189 -126 189c-67 0 -95 -69 -95 -295c0 -234 13 -293 73 -293c16 0 30 3 44 9v137
c1 69 0 73 -17 73h-36c-5 0 -9 1 -9 6v4c0 4 4 5 9 5h237c5 0 8 -1 8 -5v-4c0 -5 -3 -6 -8 -6h-18c-17 0 -18 -4 -18 -73v-149c0 -6 0 -8 -5 -8h-4c-6 0 -7 1 -8 8v16h-2c-32 -13 -101 -32 -166 -32z" />
    <glyph glyph-name="H.small" unicode="&#xe0ca;" horiz-adv-x="575" 
d="M549 0h-242c-7 0 -9 1 -9 6v3c0 6 2 7 9 7h24c16 0 17 3 17 72v222h-122v-222c0 -69 1 -72 18 -72h24c6 0 9 -1 9 -7v-3c0 -5 -3 -6 -9 -6h-242c-7 0 -9 1 -9 6v3c0 6 2 7 9 7h25c17 0 18 3 18 72v424c0 69 -1 72 -18 72h-26c-6 0 -8 1 -8 7v3c0 5 2 6 8 6h243
c6 0 9 -1 9 -6v-3c0 -6 -3 -7 -9 -7h-24c-17 0 -18 -3 -18 -72v-181h122v181c0 69 -1 72 -17 72h-25c-6 0 -8 1 -8 7v3c0 5 2 6 8 6h243c6 0 9 -1 9 -6v-3c0 -6 -3 -7 -9 -7h-25c-17 0 -18 -3 -18 -72v-424c0 -69 1 -72 18 -72h25c6 0 9 -1 9 -7v-3c0 -5 -3 -6 -9 -6z" />
    <glyph glyph-name="I.small" unicode="&#xe0cb;" horiz-adv-x="296" 
d="M271 0h-245c-6 0 -9 1 -9 6v3c0 6 3 7 9 7h26c16 0 17 3 17 72v424c0 69 -1 72 -17 72h-26c-6 0 -9 1 -9 7v3c0 5 3 6 9 6h244c6 0 9 -1 9 -6v-3c0 -6 -3 -7 -9 -7h-25c-17 0 -18 -3 -18 -72v-424c0 -69 1 -72 18 -72h26c5 0 8 -1 8 -7v-3c0 -5 -3 -6 -8 -6z" />
    <glyph glyph-name="J.small" unicode="&#xe0cc;" horiz-adv-x="388" 
d="M131 -13c-67 0 -121 41 -121 96c0 38 23 58 62 58c41 0 57 -26 57 -57c0 -24 -10 -48 -27 -73c3 -2 11 -4 17 -4c32 0 48 27 48 79v426c0 69 -1 72 -17 72h-41c-6 0 -9 1 -9 7v3c0 5 3 6 9 6h259c5 0 8 -1 8 -6v-3c0 -6 -3 -7 -8 -7h-25c-17 0 -18 -3 -18 -72v-361
c0 -106 -73 -164 -194 -164z" />
    <glyph glyph-name="K.small" unicode="&#xe0cd;" horiz-adv-x="549" 
d="M536 0h-183c-8 0 -10 1 -13 11l-96 259c-12 -17 -18 -41 -18 -76v-106c0 -69 1 -72 18 -72h26c6 0 8 -1 8 -7v-3c0 -5 -2 -6 -8 -6h-244c-7 0 -9 1 -9 6v3c0 6 2 7 9 7h24c18 0 19 3 19 72v424c0 69 -1 72 -19 72h-25c-6 0 -8 1 -8 7v3c0 5 2 6 8 6h244c6 0 9 -1 9 -6v-3
c0 -6 -3 -7 -9 -7h-25c-17 0 -18 -3 -18 -72v-234h2c9 26 50 88 113 166c29 44 47 73 47 102c0 26 -14 38 -34 38h-25c-6 0 -9 1 -9 6v4c0 5 3 6 9 6h196c5 0 8 -1 8 -6v-3c0 -6 -3 -7 -8 -7h-10c-38 0 -68 -24 -122 -100l-38 -54l121 -316c34 -90 42 -98 52 -98h8
c5 0 8 -1 8 -6v-4c0 -5 -3 -6 -8 -6z" />
    <glyph glyph-name="L.small" unicode="&#xe0ce;" horiz-adv-x="434" 
d="M410 0h-384c-7 0 -9 1 -9 6v3c0 6 2 7 9 7h24c18 0 19 3 19 72v424c0 69 -1 72 -19 72h-24c-7 0 -9 1 -9 7v3c0 5 2 6 9 6h256c6 0 9 -1 9 -5v-4c0 -6 -3 -7 -9 -7h-38c-17 0 -17 -3 -17 -72v-492h58c67 0 119 82 122 214c0 7 2 8 7 8h4c5 0 6 -2 6 -8l-8 -226
c0 -5 -1 -8 -6 -8z" />
    <glyph glyph-name="M.small" unicode="&#xe0cf;" horiz-adv-x="641" 
d="M619 0h-244c-6 0 -9 1 -9 6v3c0 6 3 7 9 7h25c17 0 18 3 18 72v362h-2l-119 -456c-2 -5 -4 -7 -9 -7h-67c-5 0 -7 2 -8 7l-119 456h-2v-231c0 -160 15 -203 58 -203h17c6 0 9 -1 9 -6v-4c0 -5 -3 -6 -9 -6h-151c-6 0 -9 1 -9 6v4c0 5 3 6 9 6h10c30 0 43 43 43 203v287
c0 73 -4 78 -21 78h-27c-5 0 -8 1 -8 6v4c0 5 3 6 8 6h187c5 0 8 -1 10 -7l103 -412h2l108 412c1 6 5 7 9 7h183c6 0 9 -1 9 -6v-3c0 -6 -3 -7 -9 -7h-26c-18 0 -21 -5 -21 -77v-419c0 -69 1 -72 17 -72h26c6 0 9 -1 9 -7v-3c0 -5 -3 -6 -9 -6z" />
    <glyph glyph-name="N.small" unicode="&#xe0d0;" horiz-adv-x="494" 
d="M424 -6c0 -5 -2 -7 -7 -7h-74c-6 0 -7 2 -10 7l-238 457h-2v-232c0 -161 25 -203 67 -203h27c5 0 8 -1 8 -6v-4c0 -5 -3 -6 -8 -6h-172c-5 0 -8 1 -8 6v4c0 5 3 6 8 6h10c30 0 45 43 45 203v288c0 72 -4 77 -21 77h-26c-6 0 -9 1 -9 6v4c0 5 3 6 9 6h173c6 0 8 -2 11 -7
l193 -376h2v164c0 161 -25 203 -68 203h-25c-6 0 -9 1 -9 6v4c0 5 3 6 9 6h170c6 0 9 -1 9 -6v-4c0 -5 -3 -6 -9 -6h-9c-30 0 -46 -43 -46 -203v-387z" />
    <glyph glyph-name="O.small" unicode="&#xe0d1;" horiz-adv-x="527" 
d="M509 311c0 -189 -98 -324 -249 -324c-149 0 -242 116 -242 302c0 189 98 323 248 323s243 -115 243 -301zM339 310c0 188 -12 282 -76 282c-61 0 -76 -98 -76 -302c0 -188 13 -280 76 -280c65 0 76 96 76 300z" />
    <glyph glyph-name="P.small" unicode="&#xe0d2;" horiz-adv-x="501" 
d="M481 424c0 -125 -75 -180 -174 -180h-81v-156c0 -69 1 -72 18 -72h47c6 0 9 -1 9 -7v-3c0 -5 -3 -6 -9 -6h-265c-7 0 -9 1 -9 6v3c0 6 2 7 9 7h25c17 0 18 3 18 72v424c0 69 -1 72 -18 72h-26c-6 0 -8 1 -8 7v3c0 5 2 6 8 6h297c79 0 159 -41 159 -176zM318 424
c0 128 -25 155 -64 155h-28v-314h29c43 0 63 43 63 159z" />
    <glyph glyph-name="Q.small" unicode="&#xe0d3;" horiz-adv-x="526" 
d="M339 310c0 188 -12 282 -76 282c-61 0 -76 -98 -76 -302c0 -187 13 -279 76 -279c65 0 76 96 76 299zM508 311c0 -178 -86 -308 -223 -321v-2c69 -16 88 -38 103 -90c12 -42 20 -62 38 -62c15 0 24 16 28 43c2 6 3 8 8 7l5 -1c5 -1 6 -3 4 -10c-7 -52 -40 -74 -91 -74
c-77 0 -105 47 -119 103c-13 59 -17 78 -26 86c-135 12 -217 123 -217 299c0 189 98 323 248 323c149 0 242 -115 242 -301z" />
    <glyph glyph-name="R.small" unicode="&#xe0d4;" horiz-adv-x="536" 
d="M481 454c0 -79 -55 -135 -168 -138v-3c101 -14 155 -57 155 -180c0 -98 9 -111 26 -111c15 0 23 18 26 43c1 6 3 8 8 7l4 -1c5 -1 6 -3 4 -10c-8 -52 -38 -74 -96 -74c-82 0 -132 52 -132 146c-1 131 -9 172 -57 172h-25v-217c0 -69 1 -72 18 -72h27c6 0 8 -3 8 -7v-3
c0 -5 -2 -6 -8 -6h-245c-7 0 -9 1 -9 6v3c0 6 2 7 9 7h25c17 0 18 3 18 72v424c0 69 -1 72 -18 72h-26c-6 0 -8 1 -8 7v3c0 5 2 6 8 6h296c78 0 160 -34 160 -146zM318 453c0 105 -23 126 -66 126h-26v-254h29c43 0 63 34 63 128z" />
    <glyph glyph-name="S.small" unicode="&#xe0d5;" horiz-adv-x="405" 
d="M379 174c0 -110 -81 -187 -197 -187c-47 0 -95 12 -131 31l-1 -14c-1 -6 -2 -8 -7 -8h-4c-4 0 -5 2 -5 8l-8 196c0 5 1 8 7 8h5c5 0 6 -2 6 -7l1 -21c3 -73 60 -175 135 -175c42 0 73 27 73 83c0 74 -43 113 -109 160c-58 43 -108 91 -108 185c0 95 58 179 177 179
c40 0 82 -11 115 -30l1 16c1 6 2 8 8 8h4c4 0 5 -2 5 -8v-190c0 -6 -1 -8 -6 -8h-7c-4 0 -5 2 -5 8v14c0 91 -57 173 -114 173c-37 0 -59 -28 -59 -77c0 -63 43 -105 106 -150s118 -95 118 -194z" />
    <glyph glyph-name="T.small" unicode="&#xe0d6;" horiz-adv-x="461" 
d="M352 0h-244c-6 0 -8 1 -8 6v3c0 6 2 7 8 7h25c17 0 18 3 18 72v491h-10c-67 0 -105 -87 -105 -174v-22c0 -6 -1 -9 -6 -9h-6c-5 0 -6 3 -6 9v209c0 5 1 8 5 8h414c5 0 6 -3 6 -8v-209c0 -6 -1 -9 -6 -9h-6c-5 0 -5 3 -5 9v22c0 87 -38 174 -106 174h-11v-491
c0 -69 1 -72 18 -72h25c6 0 9 -1 9 -7v-3c0 -5 -3 -6 -9 -6z" />
    <glyph glyph-name="U.small" unicode="&#xe0d7;" horiz-adv-x="480" 
d="M468 584h-6c-28 0 -43 -44 -43 -203v-169c0 -157 -50 -225 -174 -225c-127 0 -184 81 -184 198v327c0 69 -1 72 -18 72h-25c-6 0 -9 1 -9 7v3c0 5 3 6 9 6h243c6 0 9 -1 9 -6v-3c0 -6 -3 -7 -9 -7h-25c-17 0 -18 -3 -18 -72v-301c0 -119 22 -176 88 -176
c59 0 90 49 90 185v161c0 160 -21 203 -64 203h-23c-6 0 -8 1 -8 7v3c0 5 2 6 8 6h159c6 0 9 -1 9 -6v-3c0 -6 -3 -7 -9 -7z" />
    <glyph glyph-name="V.small" unicode="&#xe0d8;" horiz-adv-x="505" 
d="M491 584h-8c-19 0 -25 -15 -46 -83c-10 -31 -21 -75 -32 -118l-105 -388c-2 -5 -2 -8 -9 -8h-80c-7 0 -8 1 -10 8l-123 484c-26 103 -29 105 -53 105h-11c-6 0 -9 1 -9 6v4c0 5 3 6 9 6h250c6 0 8 -1 8 -6v-4c0 -5 -2 -6 -8 -6h-16c-12 0 -18 -3 -18 -19
c0 -14 5 -40 15 -86l77 -325h1l55 219c9 43 19 97 19 138c0 48 -18 73 -45 73h-25c-6 0 -9 1 -9 6v4c0 5 3 6 9 6h164c6 0 9 -1 9 -6v-4c0 -5 -3 -6 -9 -6z" />
    <glyph glyph-name="W.small" unicode="&#xe0d9;" horiz-adv-x="771" 
d="M757 584h-6c-21 0 -28 -12 -46 -83c-9 -32 -19 -74 -29 -118l-90 -388c-2 -5 -4 -8 -10 -8h-81c-5 0 -7 1 -8 8l-97 420h-2l-109 -420c-1 -5 -2 -8 -9 -8h-81c-6 0 -7 1 -9 8l-108 483c-23 105 -25 106 -49 106h-9c-6 0 -9 1 -9 6v4c0 5 3 6 9 6h250c5 0 8 -1 8 -6v-4
c0 -5 -3 -6 -8 -6h-19c-12 0 -18 -3 -18 -20c0 -15 4 -41 12 -86l61 -319h1l54 215c9 41 19 94 19 135c0 51 -16 75 -45 75h-16c-6 0 -9 1 -9 6v4c0 5 3 6 9 6h236c5 0 9 -1 9 -6v-4c0 -5 -4 -6 -9 -6h-13c-12 0 -18 -3 -18 -18s5 -41 15 -88l67 -320h1l48 215
c10 45 16 94 16 137c0 49 -17 74 -46 74h-19c-6 0 -9 1 -9 6v4c0 5 3 6 9 6h157c6 0 9 -1 9 -6v-4c0 -5 -3 -5 -9 -6z" />
    <glyph glyph-name="X.small" unicode="&#xe0da;" horiz-adv-x="510" 
d="M499 0h-260c-5 0 -7 1 -7 6v4c0 5 2 6 7 6h13c13 0 20 3 20 15c0 15 -9 41 -29 91l-54 126h-1l-33 -76c-17 -41 -30 -80 -30 -107c0 -31 11 -49 35 -49h20c4 0 7 -1 7 -6v-4c0 -5 -3 -6 -7 -6h-166c-5 0 -7 1 -7 5v4c0 5 2 6 7 6h6c16 0 29 4 55 46c12 20 26 49 45 91
l59 122l-87 204c-43 102 -46 106 -67 106h-12c-5 0 -7 1 -7 6v4c0 5 2 6 7 6h260c4 0 6 -1 6 -6v-4c0 -5 -2 -6 -6 -6h-14c-13 0 -19 -3 -19 -14c0 -15 9 -42 29 -92l49 -115h1l28 64c17 41 29 81 29 108c0 31 -10 49 -35 49h-19c-4 0 -7 1 -7 6v4c0 5 3 6 7 6h165
c4 0 7 -1 7 -6v-3c0 -5 -3 -6 -7 -6h-5c-18 0 -31 -5 -57 -49c-12 -20 -27 -48 -45 -89l-52 -108l92 -217c43 -103 46 -106 67 -106h12c5 0 6 -1 6 -6v-4c0 -5 -1 -6 -6 -6z" />
    <glyph glyph-name="Y.small" unicode="&#xe0db;" horiz-adv-x="502" 
d="M372 0h-244c-6 0 -8 1 -8 6v3c0 6 2 7 8 7h25c18 0 19 3 19 72v190l-84 199c-41 102 -45 107 -67 107h-7c-6 0 -9 1 -9 6v4c0 5 3 6 9 6h254c6 0 9 -1 9 -6v-4c0 -5 -3 -6 -9 -6h-12c-13 0 -19 -3 -19 -15c0 -15 9 -43 29 -92l56 -136h1l35 86c16 41 25 81 25 108
c0 31 -10 49 -36 49h-17c-5 0 -8 1 -8 6v4c0 5 3 6 8 6h158c5 0 8 -1 8 -6v-3c0 -5 -3 -6 -8 -6h-5c-17 -1 -27 -5 -50 -48c-11 -20 -24 -48 -41 -89l-63 -146v-214c0 -69 1 -72 18 -72h25c7 0 9 -1 9 -7v-3c0 -5 -2 -6 -9 -6z" />
    <glyph glyph-name="Z.small" unicode="&#xe0dc;" horiz-adv-x="469" 
d="M428 0h-386c-5 0 -6 3 -6 9v21c0 5 0 7 3 13l210 536h-76c-67 0 -105 -87 -106 -174v-22c0 -6 -1 -9 -5 -9h-6c-6 0 -7 3 -7 9v209c0 5 1 8 7 8h359c4 0 6 -3 6 -9v-22c0 -4 -1 -6 -3 -12l-212 -537h98c70 0 112 99 118 187l3 27c0 7 1 8 6 8h5c5 0 6 -2 6 -8l-9 -226
c0 -5 0 -8 -5 -8z" />
    <glyph glyph-name="Agrave.small" unicode="&#xe0dd;" horiz-adv-x="517" 
d="M503 0h-248c-6 0 -9 1 -9 6v4c0 5 3 6 9 6h16c12 0 18 2 18 17c0 14 -6 41 -18 89l-24 94h-120l-2 -7c-10 -40 -19 -80 -19 -120c0 -48 18 -73 46 -73h21c6 0 8 -1 8 -6v-4c0 -5 -2 -6 -8 -6h-159c-6 0 -9 1 -9 6v4c0 5 3 6 9 6h6c20 0 27 18 47 83c10 32 24 76 36 118
l108 387c1 6 3 8 9 8h80c6 0 8 -1 10 -8l129 -482c26 -97 31 -106 54 -106h10c6 0 9 -1 9 -6v-4c0 -5 -3 -6 -9 -6zM241 237l-52 203h-1l-56 -203h109zM224 775l43 -140c2 -6 2 -7 -1 -9l-3 -2c-2 -2 -4 -1 -9 2l-116 87c-24 18 -38 34 -38 58c0 30 31 61 69 61
c26 0 44 -19 55 -57z" />
    <glyph glyph-name="Aacute.small" unicode="&#xe0de;" horiz-adv-x="517" 
d="M503 0h-248c-6 0 -9 1 -9 6v4c0 5 3 6 9 6h16c12 0 18 2 18 17c0 14 -6 41 -18 89l-24 94h-120l-2 -7c-10 -40 -19 -80 -19 -120c0 -48 18 -73 46 -73h21c6 0 8 -1 8 -6v-4c0 -5 -2 -6 -8 -6h-159c-6 0 -9 1 -9 6v4c0 5 3 6 9 6h6c20 0 27 18 47 83c10 32 24 76 36 118
l108 387c1 6 3 8 9 8h80c6 0 8 -1 10 -8l129 -482c26 -97 31 -106 54 -106h10c6 0 9 -1 9 -6v-4c0 -5 -3 -6 -9 -6zM241 237l-52 203h-1l-56 -203h109zM380 713l-116 -87c-5 -3 -6 -4 -9 -2l-3 2c-3 1 -3 2 -2 8l44 141c11 38 29 57 55 57c38 0 69 -31 69 -61
c0 -24 -14 -40 -38 -58z" />
    <glyph glyph-name="Acircumflex.small" unicode="&#xe0df;" horiz-adv-x="517" 
d="M503 0h-248c-6 0 -9 1 -9 6v4c0 5 3 6 9 6h16c12 0 18 2 18 17c0 14 -6 41 -18 89l-24 94h-120l-2 -7c-10 -40 -19 -80 -19 -120c0 -48 18 -73 46 -73h21c6 0 8 -1 8 -6v-4c0 -5 -2 -6 -8 -6h-159c-6 0 -9 1 -9 6v4c0 5 3 6 9 6h6c20 0 27 18 47 83c10 32 24 76 36 118
l108 387c1 6 3 8 9 8h80c6 0 8 -1 10 -8l129 -482c26 -97 31 -106 54 -106h10c6 0 9 -1 9 -6v-4c0 -5 -3 -6 -9 -6zM241 237l-52 203h-1l-56 -203h109zM320 785l59 -151c2 -4 2 -7 -1 -8l-3 -2c-2 -2 -5 -1 -9 2l-104 94h-1l-104 -94c-5 -3 -8 -4 -10 -2l-2 2
c-3 2 -3 4 -2 8l60 151c13 30 28 47 59 47c30 0 45 -16 58 -47z" />
    <glyph glyph-name="Atilde.small" unicode="&#xe0e0;" horiz-adv-x="517" 
d="M503 0h-248c-6 0 -9 1 -9 6v4c0 5 3 6 9 6h16c12 0 18 2 18 17c0 14 -6 41 -18 89l-24 94h-120l-2 -7c-10 -40 -19 -80 -19 -120c0 -48 18 -73 46 -73h21c6 0 8 -1 8 -6v-4c0 -5 -2 -6 -8 -6h-159c-6 0 -9 1 -9 6v4c0 5 3 6 9 6h6c20 0 27 18 47 83c10 32 24 76 36 118
l108 387c1 6 3 8 9 8h80c6 0 8 -1 10 -8l129 -482c26 -97 31 -106 54 -106h10c6 0 9 -1 9 -6v-4c0 -5 -3 -6 -9 -6zM241 237l-52 203h-1l-56 -203h109zM379 829c0 -98 -13 -162 -69 -162c-37 0 -79 23 -113 23c-27 0 -40 -22 -40 -51c0 -7 -1 -10 -6 -10h-2c-6 0 -7 3 -7 10
c0 98 12 162 69 162c37 0 79 -24 113 -24c26 0 39 22 39 52c0 7 1 10 7 10h2c6 0 7 -3 7 -10z" />
    <glyph glyph-name="Adieresis.small" unicode="&#xe0e1;" horiz-adv-x="517" 
d="M503 0h-248c-6 0 -9 1 -9 6v4c0 5 3 6 9 6h16c12 0 18 2 18 17c0 14 -6 41 -18 89l-24 94h-120l-2 -7c-10 -40 -19 -80 -19 -120c0 -48 18 -73 46 -73h21c6 0 8 -1 8 -6v-4c0 -5 -2 -6 -8 -6h-159c-6 0 -9 1 -9 6v4c0 5 3 6 9 6h6c20 0 27 18 47 83c10 32 24 76 36 118
l108 387c1 6 3 8 9 8h80c6 0 8 -1 10 -8l129 -482c26 -97 31 -106 54 -106h10c6 0 9 -1 9 -6v-4c0 -5 -3 -6 -9 -6zM241 237l-52 203h-1l-56 -203h109zM419 736c0 -48 -29 -82 -71 -82h-1c-43 0 -74 33 -74 82c0 48 29 81 73 81c43 0 73 -33 73 -81zM248 736
c0 -48 -29 -82 -71 -82c-44 0 -75 33 -75 82c0 48 29 81 74 81c42 0 72 -33 72 -81z" />
    <glyph glyph-name="Amacron.small" unicode="&#xe0e2;" horiz-adv-x="517" 
d="M503 0h-248c-6 0 -9 1 -9 6v4c0 5 3 6 9 6h16c12 0 18 2 18 17c0 14 -6 41 -18 89l-24 94h-120l-2 -7c-10 -40 -19 -80 -19 -120c0 -48 18 -73 46 -73h21c6 0 8 -1 8 -6v-4c0 -5 -2 -6 -8 -6h-159c-6 0 -9 1 -9 6v4c0 5 3 6 9 6h6c20 0 27 18 47 83c10 32 24 76 36 118
l108 387c1 6 3 8 9 8h80c6 0 8 -1 10 -8l129 -482c26 -97 31 -106 54 -106h10c6 0 9 -1 9 -6v-4c0 -5 -3 -6 -9 -6zM241 237l-52 203h-1l-56 -203h109zM367 688h-213c-7 0 -8 2 -8 9v77c0 7 1 9 8 9h213c7 0 8 -2 8 -9v-77c0 -7 -1 -9 -8 -9z" />
    <glyph glyph-name="Abreve.small" unicode="&#xe0e3;" horiz-adv-x="517" 
d="M503 0h-248c-6 0 -9 1 -9 6v4c0 5 3 6 9 6h16c12 0 18 2 18 17c0 14 -6 41 -18 89l-24 94h-120l-2 -7c-10 -40 -19 -80 -19 -120c0 -48 18 -73 46 -73h21c6 0 8 -1 8 -6v-4c0 -5 -2 -6 -8 -6h-159c-6 0 -9 1 -9 6v4c0 5 3 6 9 6h6c20 0 27 18 47 83c10 32 24 76 36 118
l108 387c1 6 3 8 9 8h80c6 0 8 -1 10 -8l129 -482c26 -97 31 -106 54 -106h10c6 0 9 -1 9 -6v-4c0 -5 -3 -6 -9 -6zM241 237l-52 203h-1l-56 -203h109zM372 820c0 -92 -28 -173 -112 -173s-111 78 -111 173c0 9 1 12 7 12h1c6 0 7 -3 7 -12c0 -41 29 -74 96 -74s97 33 97 74
c0 9 1 12 7 12h1c6 0 7 -3 7 -12z" />
    <glyph glyph-name="Aring.small" unicode="&#xe0e4;" horiz-adv-x="517" 
d="M503 0h-248c-6 0 -9 1 -9 6v4c0 5 3 6 9 6h16c12 0 18 2 18 17c0 14 -6 41 -18 89l-24 94h-120l-2 -7c-10 -40 -19 -80 -19 -120c0 -48 18 -73 46 -73h21c6 0 8 -1 8 -6v-4c0 -5 -2 -6 -8 -6h-159c-6 0 -9 1 -9 6v4c0 5 3 6 9 6h6c20 0 27 18 47 83c10 32 24 76 36 118
l108 387c1 6 3 8 9 8h80c6 0 8 -1 10 -8l129 -482c26 -97 31 -106 54 -106h10c6 0 9 -1 9 -6v-4c0 -5 -3 -6 -9 -6zM241 237l-52 203h-1l-56 -203h109zM369 742c0 -55 -36 -101 -110 -101c-71 0 -107 39 -107 93s36 98 109 98c71 0 108 -37 108 -90zM290 739
c0 52 -7 79 -30 79c-22 0 -29 -29 -29 -82c0 -52 7 -81 29 -81c23 0 30 30 30 84z" />
    <glyph glyph-name="Aringacute.small" unicode="&#xe0e5;" horiz-adv-x="517" 
d="M503 0h-248c-6 0 -9 1 -9 6v4c0 5 3 6 9 6h16c12 0 18 2 18 17c0 14 -6 41 -18 89l-24 94h-120l-2 -7c-10 -40 -19 -80 -19 -120c0 -48 18 -73 46 -73h21c6 0 8 -1 8 -6v-4c0 -5 -2 -6 -8 -6h-159c-6 0 -9 1 -9 6v4c0 5 3 6 9 6h6c20 0 27 18 47 83c10 32 24 76 36 118
l108 387c1 6 3 8 9 8h80c6 0 8 -1 10 -8l129 -482c26 -97 31 -106 54 -106h10c6 0 9 -1 9 -6v-4c0 -5 -3 -6 -9 -6zM241 237l-52 203h-1l-56 -203h109zM373 742c0 -55 -36 -101 -110 -101c-71 0 -107 39 -107 93s36 98 109 98c71 0 108 -37 108 -90zM294 739
c0 52 -7 79 -30 79c-22 0 -29 -29 -29 -82c0 -52 7 -81 29 -81c23 0 30 30 30 84zM377 936l-116 -87c-5 -3 -6 -4 -9 -2l-3 2c-3 1 -3 2 -2 8l44 141c11 38 29 57 55 57c38 0 69 -31 69 -61c0 -24 -14 -40 -38 -58z" />
    <glyph glyph-name="Aogonek.small" unicode="&#xe0e6;" horiz-adv-x="517" 
d="M375 -132c-20 -40 -48 -68 -99 -68c-44 0 -78 26 -78 73c0 53 40 92 96 127h-39c-6 0 -9 1 -9 6v4c0 5 3 6 9 6h16c12 0 18 2 18 17c0 14 -6 41 -18 89l-24 94h-120l-2 -7c-10 -40 -19 -80 -19 -120c0 -48 18 -73 46 -73h21c6 0 8 -1 8 -6v-4c0 -5 -2 -6 -8 -6h-159
c-6 0 -9 1 -9 6v4c0 5 3 6 9 6h6c20 0 27 18 47 83c10 32 24 76 36 118l108 387c1 6 3 8 9 8h80c6 0 8 -1 10 -8l129 -482c26 -97 31 -106 54 -106h10c6 0 9 -1 9 -6v-4c0 -5 -3 -6 -9 -6h-186c-21 -28 -34 -65 -34 -105c0 -33 11 -51 35 -51c19 0 34 12 44 31c3 5 4 6 7 4
l5 -2c3 -2 3 -4 1 -9zM241 237l-52 203h-1l-56 -203h109z" />
    <glyph glyph-name="AE.small" unicode="&#xe0e7;" horiz-adv-x="686" 
d="M642 0h-385c-5 0 -7 1 -7 5v4c0 5 2 6 7 6h22c16 0 17 3 17 68v190h-125l-21 -48c-19 -48 -37 -100 -37 -140c0 -46 12 -69 43 -69h12c6 0 9 -1 9 -6v-4c0 -5 -3 -6 -9 -6h-154c-6 0 -9 2 -9 6v4c0 5 3 6 9 6h3c19 0 27 19 57 84c14 31 33 78 50 120l84 205
c21 52 41 100 40 130c0 18 -8 29 -29 29h-10c-6 0 -9 1 -9 6v4c0 5 3 6 9 6h407c5 0 6 -3 6 -8v-199c0 -5 -1 -8 -6 -8h-6c-5 0 -6 3 -6 8v14c0 87 -39 172 -106 172h-45v-286h27c35 0 57 39 57 90v9c0 6 1 9 6 9h4c6 0 7 -3 7 -9v-222c0 -5 -1 -8 -6 -8h-5c-5 0 -6 3 -6 8
v13c0 51 -22 90 -57 90h-27v-253h70c70 0 112 101 115 172v16c0 6 1 9 6 9h7c4 0 5 -3 5 -9l-8 -200c0 -5 -1 -8 -6 -8zM296 293v286h-3l-115 -286h118z" />
    <glyph glyph-name="AEacute.small" unicode="&#xe0e8;" horiz-adv-x="686" 
d="M642 0h-385c-5 0 -7 1 -7 5v4c0 5 2 6 7 6h22c16 0 17 3 17 68v190h-125l-21 -48c-19 -48 -37 -100 -37 -140c0 -46 12 -69 43 -69h12c6 0 9 -1 9 -6v-4c0 -5 -3 -6 -9 -6h-154c-6 0 -9 2 -9 6v4c0 5 3 6 9 6h3c19 0 27 19 57 84c14 31 33 78 50 120l84 205
c21 52 41 100 40 130c0 18 -8 29 -29 29h-10c-6 0 -9 1 -9 6v4c0 5 3 6 9 6h407c5 0 6 -3 6 -8v-199c0 -5 -1 -8 -6 -8h-6c-5 0 -6 3 -6 8v14c0 87 -39 172 -106 172h-45v-286h27c35 0 57 39 57 90v9c0 6 1 9 6 9h4c6 0 7 -3 7 -9v-222c0 -5 -1 -8 -6 -8h-5c-5 0 -6 3 -6 8
v13c0 51 -22 90 -57 90h-27v-253h70c70 0 112 101 115 172v16c0 6 1 9 6 9h7c4 0 5 -3 5 -9l-8 -200c0 -5 -1 -8 -6 -8zM296 293v286h-3l-115 -286h118zM491 713l-116 -87c-5 -3 -6 -4 -9 -2l-3 2c-3 1 -3 2 -2 8l44 141c11 38 29 57 55 57c38 0 69 -31 69 -61
c0 -24 -14 -40 -38 -58z" />
    <glyph glyph-name="Cacute.small" unicode="&#xe0e9;" horiz-adv-x="443" 
d="M409 -5h-3c-5 0 -6 3 -7 9l-2 15c-33 -16 -90 -32 -137 -32c-158 0 -242 132 -242 310c0 195 92 316 244 316c50 0 95 -18 117 -31l2 16c1 6 2 8 7 8h3c5 0 6 -2 6 -8v-200c0 -6 -1 -8 -6 -8h-6c-4 0 -5 2 -5 8v8c0 86 -51 188 -116 188c-50 0 -77 -45 -77 -295
c0 -214 23 -292 84 -292c69 0 129 94 133 193l1 21c0 5 1 7 6 7h5c5 0 6 -2 6 -8l-8 -217c0 -5 -1 -8 -5 -8zM377 713l-116 -87c-5 -3 -6 -4 -9 -2l-3 2c-3 1 -3 2 -2 8l44 141c11 38 29 57 55 57c38 0 69 -31 69 -61c0 -24 -14 -40 -38 -58z" />
    <glyph glyph-name="Ccircumflex.small" unicode="&#xe0ea;" horiz-adv-x="443" 
d="M409 -5h-3c-5 0 -6 3 -7 9l-2 15c-33 -16 -90 -32 -137 -32c-158 0 -242 132 -242 310c0 195 92 316 244 316c50 0 95 -18 117 -31l2 16c1 6 2 8 7 8h3c5 0 6 -2 6 -8v-200c0 -6 -1 -8 -6 -8h-6c-4 0 -5 2 -5 8v8c0 86 -51 188 -116 188c-50 0 -77 -45 -77 -295
c0 -214 23 -292 84 -292c69 0 129 94 133 193l1 21c0 5 1 7 6 7h5c5 0 6 -2 6 -8l-8 -217c0 -5 -1 -8 -5 -8zM320 785l59 -151c2 -4 2 -7 -1 -8l-3 -2c-2 -2 -5 -1 -9 2l-104 94h-1l-104 -94c-5 -3 -8 -4 -10 -2l-2 2c-3 2 -3 4 -2 8l60 151c13 30 28 47 59 47
c30 0 45 -16 58 -47z" />
    <glyph glyph-name="Ccaron.small" unicode="&#xe0eb;" horiz-adv-x="443" 
d="M409 -5h-3c-5 0 -6 3 -7 9l-2 15c-33 -16 -90 -32 -137 -32c-158 0 -242 132 -242 310c0 195 92 316 244 316c50 0 95 -18 117 -31l2 16c1 6 2 8 7 8h3c5 0 6 -2 6 -8v-200c0 -6 -1 -8 -6 -8h-6c-4 0 -5 2 -5 8v8c0 86 -51 188 -116 188c-50 0 -77 -45 -77 -295
c0 -214 23 -292 84 -292c69 0 129 94 133 193l1 21c0 5 1 7 6 7h5c5 0 6 -2 6 -8l-8 -217c0 -5 -1 -8 -5 -8zM319 670c-13 -31 -28 -47 -58 -47c-31 0 -46 17 -59 47l-60 151c-1 4 -1 7 2 8l2 2c3 2 5 1 10 -2l104 -94h1l104 94c4 3 7 4 9 2l3 -2c3 -1 3 -4 1 -8z" />
    <glyph glyph-name="Cdotaccent.small" unicode="&#xe0ec;" horiz-adv-x="443" 
d="M409 -5h-3c-5 0 -6 3 -7 9l-2 15c-33 -16 -90 -32 -137 -32c-158 0 -242 132 -242 310c0 195 92 316 244 316c50 0 95 -18 117 -31l2 16c1 6 2 8 7 8h3c5 0 6 -2 6 -8v-200c0 -6 -1 -8 -6 -8h-6c-4 0 -5 2 -5 8v8c0 86 -51 188 -116 188c-50 0 -77 -45 -77 -295
c0 -214 23 -292 84 -292c69 0 129 94 133 193l1 21c0 5 1 7 6 7h5c5 0 6 -2 6 -8l-8 -217c0 -5 -1 -8 -5 -8zM348 730c0 -50 -35 -86 -87 -86c-51 0 -87 34 -87 86c0 49 35 84 87 84s87 -35 87 -84z" />
    <glyph glyph-name="Ccedilla.small" unicode="&#xe0ed;" horiz-adv-x="443" 
d="M347 -120c0 -48 -36 -80 -98 -80c-45 0 -68 19 -68 47c0 13 7 23 21 23c13 0 21 -8 21 -20c0 -10 -3 -17 -7 -24c3 -4 9 -6 16 -6c18 0 31 11 31 30c0 25 -21 39 -48 47l-2 4l23 87c-142 12 -218 140 -218 309c0 195 92 316 244 316c50 0 95 -18 117 -31l2 16
c1 6 2 8 7 8h3c5 0 6 -2 6 -8v-200c0 -6 -1 -8 -6 -8h-6c-4 0 -5 2 -5 8v8c0 86 -51 188 -116 188c-50 0 -77 -45 -77 -295c0 -214 23 -292 84 -292c69 0 129 94 133 193l1 21c0 5 1 7 6 7h5c5 0 6 -2 6 -8l-8 -217c0 -5 -1 -8 -5 -8h-3c-5 0 -6 3 -7 9l-2 15
c-33 -16 -90 -32 -137 -32h-3l-5 -17c61 -12 95 -41 95 -90z" />
    <glyph glyph-name="Dcaron.small" unicode="&#xe0ef;" horiz-adv-x="556" 
d="M538 307c0 -199 -98 -307 -232 -307h-280c-7 0 -9 1 -9 6v3c0 6 2 7 9 7h25c17 0 18 3 18 72v424c0 69 -1 72 -18 72h-26c-6 0 -8 1 -8 7v3c0 5 2 6 8 6h268c154 0 245 -96 245 -293zM368 300c0 212 -30 279 -105 279h-37v-559h46c69 0 96 81 96 280zM330 670
c-13 -31 -28 -47 -58 -47c-31 0 -46 17 -59 47l-60 151c-1 4 -1 7 2 8l2 2c3 2 5 1 10 -2l104 -94h1l104 94c4 3 7 4 9 2l3 -2c3 -1 3 -4 1 -8z" />
    <glyph glyph-name="Dcroat.small" unicode="&#xe0f0;" horiz-adv-x="556" 
d="M538 307c0 -199 -98 -307 -232 -307h-280c-7 0 -9 1 -9 6v3c0 6 2 7 9 7h25c17 0 18 3 18 72v220h-40c-6 0 -8 3 -8 8v6c0 5 2 8 8 8h40v182c0 69 -1 72 -18 72h-26c-6 0 -8 1 -8 7v3c0 5 2 6 8 6h268c154 0 245 -96 245 -293zM368 300c0 212 -30 279 -105 279h-37v-249
h67c5 0 8 -3 8 -8v-7c0 -4 -3 -7 -8 -7h-67v-288h46c69 0 96 81 96 280z" />
    <glyph glyph-name="Egrave.small" unicode="&#xe0f1;" horiz-adv-x="458" 
d="M415 0h-389c-7 0 -9 1 -9 6v3c0 6 2 7 9 7h25c17 0 18 3 18 72v424c0 69 -1 72 -18 72h-26c-6 0 -8 1 -8 7v3c0 5 2 6 8 6h364c5 0 5 -3 5 -8v-200c0 -5 -1 -8 -6 -8h-6c-5 0 -5 3 -5 8v15c0 87 -39 172 -107 172h-44v-253h27c34 0 57 39 57 91v7c0 6 1 8 5 8h6
c5 0 6 -2 6 -8v-222c0 -6 -1 -8 -6 -8h-6c-4 0 -5 2 -5 8v11c0 52 -23 92 -57 92h-27v-285h70c71 0 111 104 114 176l1 14c0 5 1 7 6 7h5c6 0 6 -3 6 -8l-7 -201c0 -5 -1 -8 -6 -8zM199 775l43 -140c2 -6 2 -7 -1 -9l-3 -2c-2 -2 -4 -1 -9 2l-116 87c-24 18 -38 34 -38 58
c0 30 31 61 69 61c26 0 44 -19 55 -57z" />
    <glyph glyph-name="Eacute.small" unicode="&#xe0f2;" horiz-adv-x="458" 
d="M415 0h-389c-7 0 -9 1 -9 6v3c0 6 2 7 9 7h25c17 0 18 3 18 72v424c0 69 -1 72 -18 72h-26c-6 0 -8 1 -8 7v3c0 5 2 6 8 6h364c5 0 5 -3 5 -8v-200c0 -5 -1 -8 -6 -8h-6c-5 0 -5 3 -5 8v15c0 87 -39 172 -107 172h-44v-253h27c34 0 57 39 57 91v7c0 6 1 8 5 8h6
c5 0 6 -2 6 -8v-222c0 -6 -1 -8 -6 -8h-6c-4 0 -5 2 -5 8v11c0 52 -23 92 -57 92h-27v-285h70c71 0 111 104 114 176l1 14c0 5 1 7 6 7h5c6 0 6 -3 6 -8l-7 -201c0 -5 -1 -8 -6 -8zM336 713l-116 -87c-5 -3 -6 -4 -9 -2l-3 2c-3 1 -3 2 -2 8l44 141c11 38 29 57 55 57
c38 0 69 -31 69 -61c0 -24 -14 -40 -38 -58z" />
    <glyph glyph-name="Ecircumflex.small" unicode="&#xe0f3;" horiz-adv-x="458" 
d="M415 0h-389c-7 0 -9 1 -9 6v3c0 6 2 7 9 7h25c17 0 18 3 18 72v424c0 69 -1 72 -18 72h-26c-6 0 -8 1 -8 7v3c0 5 2 6 8 6h364c5 0 5 -3 5 -8v-200c0 -5 -1 -8 -6 -8h-6c-5 0 -5 3 -5 8v15c0 87 -39 172 -107 172h-44v-253h27c34 0 57 39 57 91v7c0 6 1 8 5 8h6
c5 0 6 -2 6 -8v-222c0 -6 -1 -8 -6 -8h-6c-4 0 -5 2 -5 8v11c0 52 -23 92 -57 92h-27v-285h70c71 0 111 104 114 176l1 14c0 5 1 7 6 7h5c6 0 6 -3 6 -8l-7 -201c0 -5 -1 -8 -6 -8zM283 785l59 -151c2 -4 2 -7 -1 -8l-3 -2c-2 -2 -5 -1 -9 2l-104 94h-1l-104 -94
c-5 -3 -8 -4 -10 -2l-2 2c-3 2 -3 4 -2 8l60 151c13 30 28 47 59 47c30 0 45 -16 58 -47z" />
    <glyph glyph-name="Ecaron.small" unicode="&#xe0f4;" horiz-adv-x="458" 
d="M415 0h-389c-7 0 -9 1 -9 6v3c0 6 2 7 9 7h25c17 0 18 3 18 72v424c0 69 -1 72 -18 72h-26c-6 0 -8 1 -8 7v3c0 5 2 6 8 6h364c5 0 5 -3 5 -8v-200c0 -5 -1 -8 -6 -8h-6c-5 0 -5 3 -5 8v15c0 87 -39 172 -107 172h-44v-253h27c34 0 57 39 57 91v7c0 6 1 8 5 8h6
c5 0 6 -2 6 -8v-222c0 -6 -1 -8 -6 -8h-6c-4 0 -5 2 -5 8v11c0 52 -23 92 -57 92h-27v-285h70c71 0 111 104 114 176l1 14c0 5 1 7 6 7h5c6 0 6 -3 6 -8l-7 -201c0 -5 -1 -8 -6 -8zM283 670c-13 -31 -28 -47 -58 -47c-31 0 -46 17 -59 47l-60 151c-1 4 -1 7 2 8l2 2
c3 2 5 1 10 -2l104 -94h1l104 94c4 3 7 4 9 2l3 -2c3 -1 3 -4 1 -8z" />
    <glyph glyph-name="Edieresis.small" unicode="&#xe0f5;" horiz-adv-x="458" 
d="M415 0h-389c-7 0 -9 1 -9 6v3c0 6 2 7 9 7h25c17 0 18 3 18 72v424c0 69 -1 72 -18 72h-26c-6 0 -8 1 -8 7v3c0 5 2 6 8 6h364c5 0 5 -3 5 -8v-200c0 -5 -1 -8 -6 -8h-6c-5 0 -5 3 -5 8v15c0 87 -39 172 -107 172h-44v-253h27c34 0 57 39 57 91v7c0 6 1 8 5 8h6
c5 0 6 -2 6 -8v-222c0 -6 -1 -8 -6 -8h-6c-4 0 -5 2 -5 8v11c0 52 -23 92 -57 92h-27v-285h70c71 0 111 104 114 176l1 14c0 5 1 7 6 7h5c6 0 6 -3 6 -8l-7 -201c0 -5 -1 -8 -6 -8zM383 736c0 -48 -29 -82 -71 -82h-1c-43 0 -74 33 -74 82c0 48 29 81 73 81
c43 0 73 -33 73 -81zM212 736c0 -48 -29 -82 -71 -82c-44 0 -75 33 -75 82c0 48 29 81 74 81c42 0 72 -33 72 -81z" />
    <glyph glyph-name="Emacron.small" unicode="&#xe0f6;" horiz-adv-x="458" 
d="M415 0h-389c-7 0 -9 1 -9 6v3c0 6 2 7 9 7h25c17 0 18 3 18 72v424c0 69 -1 72 -18 72h-26c-6 0 -8 1 -8 7v3c0 5 2 6 8 6h364c5 0 5 -3 5 -8v-200c0 -5 -1 -8 -6 -8h-6c-5 0 -5 3 -5 8v15c0 87 -39 172 -107 172h-44v-253h27c34 0 57 39 57 91v7c0 6 1 8 5 8h6
c5 0 6 -2 6 -8v-222c0 -6 -1 -8 -6 -8h-6c-4 0 -5 2 -5 8v11c0 52 -23 92 -57 92h-27v-285h70c71 0 111 104 114 176l1 14c0 5 1 7 6 7h5c6 0 6 -3 6 -8l-7 -201c0 -5 -1 -8 -6 -8zM331 688h-213c-7 0 -8 2 -8 9v77c0 7 1 9 8 9h213c7 0 8 -2 8 -9v-77c0 -7 -1 -9 -8 -9z
" />
    <glyph glyph-name="Ebreve.small" unicode="&#xe0f7;" horiz-adv-x="458" 
d="M415 0h-389c-7 0 -9 1 -9 6v3c0 6 2 7 9 7h25c17 0 18 3 18 72v424c0 69 -1 72 -18 72h-26c-6 0 -8 1 -8 7v3c0 5 2 6 8 6h364c5 0 5 -3 5 -8v-200c0 -5 -1 -8 -6 -8h-6c-5 0 -5 3 -5 8v15c0 87 -39 172 -107 172h-44v-253h27c34 0 57 39 57 91v7c0 6 1 8 5 8h6
c5 0 6 -2 6 -8v-222c0 -6 -1 -8 -6 -8h-6c-4 0 -5 2 -5 8v11c0 52 -23 92 -57 92h-27v-285h70c71 0 111 104 114 176l1 14c0 5 1 7 6 7h5c6 0 6 -3 6 -8l-7 -201c0 -5 -1 -8 -6 -8zM336 820c0 -92 -28 -173 -112 -173s-111 78 -111 173c0 9 1 12 7 12h1c6 0 7 -3 7 -12
c0 -41 29 -74 96 -74s97 33 97 74c0 9 1 12 7 12h1c6 0 7 -3 7 -12z" />
    <glyph glyph-name="Edotaccent.small" unicode="&#xe0f8;" horiz-adv-x="458" 
d="M415 0h-389c-7 0 -9 1 -9 6v3c0 6 2 7 9 7h25c17 0 18 3 18 72v424c0 69 -1 72 -18 72h-26c-6 0 -8 1 -8 7v3c0 5 2 6 8 6h364c5 0 5 -3 5 -8v-200c0 -5 -1 -8 -6 -8h-6c-5 0 -5 3 -5 8v15c0 87 -39 172 -107 172h-44v-253h27c34 0 57 39 57 91v7c0 6 1 8 5 8h6
c5 0 6 -2 6 -8v-222c0 -6 -1 -8 -6 -8h-6c-4 0 -5 2 -5 8v11c0 52 -23 92 -57 92h-27v-285h70c71 0 111 104 114 176l1 14c0 5 1 7 6 7h5c6 0 6 -3 6 -8l-7 -201c0 -5 -1 -8 -6 -8zM311 730c0 -50 -35 -86 -87 -86c-51 0 -87 34 -87 86c0 49 35 84 87 84s87 -35 87 -84z" />
    <glyph glyph-name="Eogonek.small" unicode="&#xe0f9;" horiz-adv-x="458" 
d="M419 -131c-20 -40 -48 -68 -99 -68c-44 0 -78 26 -78 73c0 53 40 92 95 126h-311c-7 0 -9 1 -9 6v3c0 6 2 7 9 7h25c17 0 18 3 18 72v424c0 69 -1 72 -18 72h-26c-6 0 -8 1 -8 7v3c0 5 2 6 8 6h364c5 0 5 -3 5 -8v-200c0 -5 -1 -8 -6 -8h-6c-5 0 -5 3 -5 8v15
c0 87 -39 172 -107 172h-44v-253h27c34 0 57 39 57 91v7c0 6 1 8 5 8h6c5 0 6 -2 6 -8v-222c0 -6 -1 -8 -6 -8h-6c-4 0 -5 2 -5 8v11c0 52 -23 92 -57 92h-27v-285h70c71 0 111 104 114 176l1 14c0 5 1 7 6 7h5c6 0 6 -3 6 -8l-7 -201c0 -5 -1 -8 -6 -8h-55
c-21 -28 -33 -65 -33 -104c0 -33 11 -51 35 -51c19 0 34 12 44 31c3 5 4 6 7 4l5 -2c3 -2 3 -4 1 -9z" />
    <glyph glyph-name="fi.small" unicode="&#xe0fa;" horiz-adv-x="721" 
d="M291 0h-265c-7 0 -9 1 -9 6v3c0 6 2 7 9 7h25c17 0 18 3 18 72v424c0 69 -1 72 -18 72h-26c-6 0 -8 1 -8 7v3c0 5 2 6 8 6h364c5 0 5 -3 5 -8v-207c0 -6 -1 -9 -6 -9h-6c-5 0 -5 3 -5 9v22c0 86 -39 172 -107 172h-44v-271h27c34 0 57 39 57 90v7c0 6 1 9 5 9h6
c5 0 6 -3 6 -9v-229c0 -5 -1 -8 -6 -8h-6c-4 0 -5 3 -5 8v21c0 51 -23 90 -57 90h-27v-199c0 -69 1 -72 18 -72h47c5 0 8 -1 8 -7v-3c0 -5 -3 -6 -8 -6zM694 0h-245c-6 0 -9 1 -9 6v3c0 6 3 7 9 7h26c16 0 17 3 17 72v424c0 69 -1 72 -17 72h-26c-6 0 -9 1 -9 7v3
c0 5 3 6 9 6h244c6 0 9 -1 9 -6v-3c0 -6 -3 -7 -9 -7h-25c-17 0 -18 -3 -18 -72v-424c0 -69 1 -72 18 -72h26c5 0 8 -1 8 -7v-3c0 -5 -3 -6 -8 -6z" />
    <glyph glyph-name="fl.small" unicode="&#xe0fb;" horiz-adv-x="856" 
d="M291 0h-265c-7 0 -9 1 -9 6v3c0 6 2 7 9 7h25c17 0 18 3 18 72v424c0 69 -1 72 -18 72h-26c-6 0 -8 1 -8 7v3c0 5 2 6 8 6h364c5 0 5 -3 5 -8v-207c0 -6 -1 -9 -6 -9h-6c-5 0 -5 3 -5 9v22c0 86 -39 172 -107 172h-44v-271h27c34 0 57 39 57 90v7c0 6 1 9 5 9h6
c5 0 6 -3 6 -9v-229c0 -5 -1 -8 -6 -8h-6c-4 0 -5 3 -5 8v21c0 51 -23 90 -57 90h-27v-199c0 -69 1 -72 18 -72h47c5 0 8 -1 8 -7v-3c0 -5 -3 -6 -8 -6zM833 0h-384c-7 0 -9 1 -9 6v3c0 6 2 7 9 7h24c18 0 19 3 19 72v424c0 69 -1 72 -19 72h-24c-7 0 -9 1 -9 7v3
c0 5 2 6 9 6h256c6 0 9 -1 9 -5v-4c0 -6 -3 -7 -9 -7h-38c-17 0 -17 -3 -17 -72v-492h58c67 0 119 82 122 214c0 7 2 8 7 8h4c5 0 6 -2 6 -8l-8 -226c0 -5 -1 -8 -6 -8z" />
    <glyph glyph-name="Gcircumflex.small" unicode="&#xe0fc;" horiz-adv-x="505" 
d="M267 -13c-164 0 -249 113 -249 310c0 200 92 316 260 316c56 0 102 -15 129 -32l2 17c1 6 2 8 7 8h4c4 0 5 -2 5 -8v-198c0 -6 -1 -8 -6 -8h-6c-4 0 -5 2 -5 8v5c0 83 -53 189 -126 189c-67 0 -95 -69 -95 -295c0 -234 13 -293 73 -293c16 0 30 3 44 9v137
c1 69 0 73 -17 73h-36c-5 0 -9 1 -9 6v4c0 4 4 5 9 5h237c5 0 8 -1 8 -5v-4c0 -5 -3 -6 -8 -6h-18c-17 0 -18 -4 -18 -73v-149c0 -6 0 -8 -5 -8h-4c-6 0 -7 1 -8 8v16h-2c-32 -13 -101 -32 -166 -32zM334 785l59 -151c2 -4 2 -7 -1 -8l-3 -2c-2 -2 -5 -1 -9 2l-104 94h-1
l-104 -94c-5 -3 -8 -4 -10 -2l-2 2c-3 2 -3 4 -2 8l60 151c13 30 28 47 59 47c30 0 45 -16 58 -47z" />
    <glyph glyph-name="Gbreve.small" unicode="&#xe0fd;" horiz-adv-x="505" 
d="M267 -13c-164 0 -249 113 -249 310c0 200 92 316 260 316c56 0 102 -15 129 -32l2 17c1 6 2 8 7 8h4c4 0 5 -2 5 -8v-198c0 -6 -1 -8 -6 -8h-6c-4 0 -5 2 -5 8v5c0 83 -53 189 -126 189c-67 0 -95 -69 -95 -295c0 -234 13 -293 73 -293c16 0 30 3 44 9v137
c1 69 0 73 -17 73h-36c-5 0 -9 1 -9 6v4c0 4 4 5 9 5h237c5 0 8 -1 8 -5v-4c0 -5 -3 -6 -8 -6h-18c-17 0 -18 -4 -18 -73v-149c0 -6 0 -8 -5 -8h-4c-6 0 -7 1 -8 8v16h-2c-32 -13 -101 -32 -166 -32zM390 820c0 -92 -28 -173 -112 -173s-111 78 -111 173c0 9 1 12 7 12h1
c6 0 7 -3 7 -12c0 -41 29 -74 96 -74s97 33 97 74c0 9 1 12 7 12h1c6 0 7 -3 7 -12z" />
    <glyph glyph-name="Gdotaccent.small" unicode="&#xe0fe;" horiz-adv-x="505" 
d="M267 -13c-164 0 -249 113 -249 310c0 200 92 316 260 316c56 0 102 -15 129 -32l2 17c1 6 2 8 7 8h4c4 0 5 -2 5 -8v-198c0 -6 -1 -8 -6 -8h-6c-4 0 -5 2 -5 8v5c0 83 -53 189 -126 189c-67 0 -95 -69 -95 -295c0 -234 13 -293 73 -293c16 0 30 3 44 9v137
c1 69 0 73 -17 73h-36c-5 0 -9 1 -9 6v4c0 4 4 5 9 5h237c5 0 8 -1 8 -5v-4c0 -5 -3 -6 -8 -6h-18c-17 0 -18 -4 -18 -73v-149c0 -6 0 -8 -5 -8h-4c-6 0 -7 1 -8 8v16h-2c-32 -13 -101 -32 -166 -32zM366 730c0 -50 -35 -86 -87 -86c-51 0 -87 34 -87 86c0 49 35 84 87 84
s87 -35 87 -84z" />
    <glyph glyph-name="Gcommaaccent.small" unicode="&#xe0ff;" horiz-adv-x="505" 
d="M267 -13c-164 0 -249 113 -249 310c0 200 92 316 260 316c56 0 102 -15 129 -32l2 17c1 6 2 8 7 8h4c4 0 5 -2 5 -8v-198c0 -6 -1 -8 -6 -8h-6c-4 0 -5 2 -5 8v5c0 83 -53 189 -126 189c-67 0 -95 -69 -95 -295c0 -234 13 -293 73 -293c16 0 30 3 44 9v137
c1 69 0 73 -17 73h-36c-5 0 -9 1 -9 6v4c0 4 4 5 9 5h237c5 0 8 -1 8 -5v-4c0 -5 -3 -6 -8 -6h-18c-17 0 -18 -4 -18 -73v-149c0 -6 0 -8 -5 -8h-4c-6 0 -7 1 -8 8v16h-2c-32 -13 -101 -32 -166 -32zM336 -89c0 -46 -25 -80 -54 -106c-6 -6 -8 -6 -12 -3l-5 6c-4 2 -5 5 0 9
c22 19 41 44 46 70l-1 1c-10 -12 -26 -24 -48 -24c-26 0 -51 20 -51 54c0 37 22 54 60 54c40 0 65 -17 65 -61z" />
    <glyph glyph-name="Hcircumflex.small" unicode="&#xe100;" horiz-adv-x="575" 
d="M549 0h-242c-7 0 -9 1 -9 6v3c0 6 2 7 9 7h24c16 0 17 3 17 72v222h-122v-222c0 -69 1 -72 18 -72h24c6 0 9 -1 9 -7v-3c0 -5 -3 -6 -9 -6h-242c-7 0 -9 1 -9 6v3c0 6 2 7 9 7h25c17 0 18 3 18 72v424c0 69 -1 72 -18 72h-26c-6 0 -8 1 -8 7v3c0 5 2 6 8 6h243
c6 0 9 -1 9 -6v-3c0 -6 -3 -7 -9 -7h-24c-17 0 -18 -3 -18 -72v-181h122v181c0 69 -1 72 -17 72h-25c-6 0 -8 1 -8 7v3c0 5 2 6 8 6h243c6 0 9 -1 9 -6v-3c0 -6 -3 -7 -9 -7h-25c-17 0 -18 -3 -18 -72v-424c0 -69 1 -72 18 -72h25c6 0 9 -1 9 -7v-3c0 -5 -3 -6 -9 -6z
M345 785l59 -151c2 -4 2 -7 -1 -8l-3 -2c-2 -2 -5 -1 -9 2l-104 94h-1l-104 -94c-5 -3 -8 -4 -10 -2l-2 2c-3 2 -3 4 -2 8l60 151c13 30 28 47 59 47c30 0 45 -16 58 -47z" />
    <glyph glyph-name="Hbar.small" unicode="&#xe101;" horiz-adv-x="575" 
d="M549 0h-242c-7 0 -9 1 -9 6v3c0 6 2 7 9 7h24c16 0 17 3 17 72v222h-122v-222c0 -69 1 -72 18 -72h24c6 0 9 -1 9 -7v-3c0 -5 -3 -6 -9 -6h-242c-7 0 -9 1 -9 6v3c0 6 2 7 9 7h25c17 0 18 3 18 72v358h-37c-6 0 -8 2 -8 7v6c0 5 2 8 8 8h37v45c0 69 -1 72 -18 72h-26
c-6 0 -8 1 -8 7v3c0 5 2 6 8 6h243c6 0 9 -1 9 -6v-3c0 -6 -3 -7 -9 -7h-24c-17 0 -18 -3 -18 -72v-45h122v45c0 69 -1 72 -17 72h-25c-6 0 -8 1 -8 7v3c0 5 2 6 8 6h243c6 0 9 -1 9 -6v-3c0 -6 -3 -7 -9 -7h-25c-17 0 -18 -3 -18 -72v-45h35c7 0 9 -3 9 -8v-6
c0 -5 -2 -7 -9 -7h-35v-358c0 -69 1 -72 18 -72h25c6 0 9 -1 9 -7v-3c0 -5 -3 -6 -9 -6zM226 331h122v115h-122v-115z" />
    <glyph glyph-name="Igrave.small" unicode="&#xe102;" horiz-adv-x="296" 
d="M271 0h-245c-6 0 -9 1 -9 6v3c0 6 3 7 9 7h26c16 0 17 3 17 72v424c0 69 -1 72 -17 72h-26c-6 0 -9 1 -9 7v3c0 5 3 6 9 6h244c6 0 9 -1 9 -6v-3c0 -6 -3 -7 -9 -7h-25c-17 0 -18 -3 -18 -72v-424c0 -69 1 -72 18 -72h26c5 0 8 -1 8 -7v-3c0 -5 -3 -6 -8 -6zM121 775
l43 -140c2 -6 2 -7 -1 -9l-3 -2c-2 -2 -4 -1 -9 2l-116 87c-24 18 -38 34 -38 58c0 30 31 61 69 61c26 0 44 -19 55 -57z" />
    <glyph glyph-name="Iacute.small" unicode="&#xe103;" horiz-adv-x="296" 
d="M271 0h-245c-6 0 -9 1 -9 6v3c0 6 3 7 9 7h26c16 0 17 3 17 72v424c0 69 -1 72 -17 72h-26c-6 0 -9 1 -9 7v3c0 5 3 6 9 6h244c6 0 9 -1 9 -6v-3c0 -6 -3 -7 -9 -7h-25c-17 0 -18 -3 -18 -72v-424c0 -69 1 -72 18 -72h26c5 0 8 -1 8 -7v-3c0 -5 -3 -6 -8 -6zM262 713
l-116 -87c-5 -3 -6 -4 -9 -2l-3 2c-3 1 -3 2 -2 8l44 141c11 38 29 57 55 57c38 0 69 -31 69 -61c0 -24 -14 -40 -38 -58z" />
    <glyph glyph-name="Icircumflex.small" unicode="&#xe104;" horiz-adv-x="296" 
d="M271 0h-245c-6 0 -9 1 -9 6v3c0 6 3 7 9 7h26c16 0 17 3 17 72v424c0 69 -1 72 -17 72h-26c-6 0 -9 1 -9 7v3c0 5 3 6 9 6h244c6 0 9 -1 9 -6v-3c0 -6 -3 -7 -9 -7h-25c-17 0 -18 -3 -18 -72v-424c0 -69 1 -72 18 -72h26c5 0 8 -1 8 -7v-3c0 -5 -3 -6 -8 -6zM209 785
l59 -151c2 -4 2 -7 -1 -8l-3 -2c-2 -2 -5 -1 -9 2l-104 94h-1l-104 -94c-5 -3 -8 -4 -10 -2l-2 2c-3 2 -3 4 -2 8l60 151c13 30 28 47 59 47c30 0 45 -16 58 -47z" />
    <glyph glyph-name="Itilde.small" unicode="&#xe105;" horiz-adv-x="296" 
d="M271 0h-245c-6 0 -9 1 -9 6v3c0 6 3 7 9 7h26c16 0 17 3 17 72v424c0 69 -1 72 -17 72h-26c-6 0 -9 1 -9 7v3c0 5 3 6 9 6h244c6 0 9 -1 9 -6v-3c0 -6 -3 -7 -9 -7h-25c-17 0 -18 -3 -18 -72v-424c0 -69 1 -72 18 -72h26c5 0 8 -1 8 -7v-3c0 -5 -3 -6 -8 -6zM269 829
c0 -98 -13 -162 -69 -162c-37 0 -79 23 -113 23c-27 0 -40 -22 -40 -51c0 -7 -1 -10 -6 -10h-2c-6 0 -7 3 -7 10c0 98 12 162 69 162c37 0 79 -24 113 -24c26 0 39 22 39 52c0 7 1 10 7 10h2c6 0 7 -3 7 -10z" />
    <glyph glyph-name="Idieresis.small" unicode="&#xe106;" horiz-adv-x="296" 
d="M271 0h-245c-6 0 -9 1 -9 6v3c0 6 3 7 9 7h26c16 0 17 3 17 72v424c0 69 -1 72 -17 72h-26c-6 0 -9 1 -9 7v3c0 5 3 6 9 6h244c6 0 9 -1 9 -6v-3c0 -6 -3 -7 -9 -7h-25c-17 0 -18 -3 -18 -72v-424c0 -69 1 -72 18 -72h26c5 0 8 -1 8 -7v-3c0 -5 -3 -6 -8 -6zM309 736
c0 -48 -29 -82 -71 -82h-1c-43 0 -74 33 -74 82c0 48 29 81 73 81c43 0 73 -33 73 -81zM138 736c0 -48 -29 -82 -71 -82c-44 0 -75 33 -75 82c0 48 29 81 74 81c42 0 72 -33 72 -81z" />
    <glyph glyph-name="Imacron.small" unicode="&#xe107;" horiz-adv-x="296" 
d="M271 0h-245c-6 0 -9 1 -9 6v3c0 6 3 7 9 7h26c16 0 17 3 17 72v424c0 69 -1 72 -17 72h-26c-6 0 -9 1 -9 7v3c0 5 3 6 9 6h244c6 0 9 -1 9 -6v-3c0 -6 -3 -7 -9 -7h-25c-17 0 -18 -3 -18 -72v-424c0 -69 1 -72 18 -72h26c5 0 8 -1 8 -7v-3c0 -5 -3 -6 -8 -6zM257 688
h-213c-7 0 -8 2 -8 9v77c0 7 1 9 8 9h213c7 0 8 -2 8 -9v-77c0 -7 -1 -9 -8 -9z" />
    <glyph glyph-name="Ibreve.small" unicode="&#xe108;" horiz-adv-x="296" 
d="M271 0h-245c-6 0 -9 1 -9 6v3c0 6 3 7 9 7h26c16 0 17 3 17 72v424c0 69 -1 72 -17 72h-26c-6 0 -9 1 -9 7v3c0 5 3 6 9 6h244c6 0 9 -1 9 -6v-3c0 -6 -3 -7 -9 -7h-25c-17 0 -18 -3 -18 -72v-424c0 -69 1 -72 18 -72h26c5 0 8 -1 8 -7v-3c0 -5 -3 -6 -8 -6zM262 820
c0 -92 -28 -173 -112 -173s-111 78 -111 173c0 9 1 12 7 12h1c6 0 7 -3 7 -12c0 -41 29 -74 96 -74s97 33 97 74c0 9 1 12 7 12h1c6 0 7 -3 7 -12z" />
    <glyph glyph-name="Idotaccent.small" unicode="&#xe109;" horiz-adv-x="296" 
d="M271 0h-245c-6 0 -9 1 -9 6v3c0 6 3 7 9 7h26c16 0 17 3 17 72v424c0 69 -1 72 -17 72h-26c-6 0 -9 1 -9 7v3c0 5 3 6 9 6h244c6 0 9 -1 9 -6v-3c0 -6 -3 -7 -9 -7h-25c-17 0 -18 -3 -18 -72v-424c0 -69 1 -72 18 -72h26c5 0 8 -1 8 -7v-3c0 -5 -3 -6 -8 -6zM237 730
c0 -50 -35 -86 -87 -86c-51 0 -87 34 -87 86c0 49 35 84 87 84s87 -35 87 -84z" />
    <glyph glyph-name="Iogonek.small" unicode="&#xe10a;" horiz-adv-x="296" 
d="M223 -132c-20 -40 -48 -68 -99 -68c-44 0 -78 26 -78 73c0 53 40 92 96 127h-116c-6 0 -9 1 -9 6v3c0 6 3 7 9 7h26c16 0 17 3 17 72v424c0 69 -1 72 -17 72h-26c-6 0 -9 1 -9 7v3c0 5 3 6 9 6h244c6 0 9 -1 9 -6v-3c0 -6 -3 -7 -9 -7h-25c-17 0 -18 -3 -18 -72v-424
c0 -69 1 -72 18 -72h26c5 0 8 -1 8 -7v-3c0 -5 -3 -6 -8 -6h-106c-21 -28 -34 -65 -34 -105c0 -33 11 -51 35 -51c19 0 34 12 44 31c3 5 4 6 7 4l5 -2c3 -2 3 -4 1 -9z" />
    <glyph glyph-name="IJ.small" unicode="&#xe10b;" horiz-adv-x="686" 
d="M271 0h-245c-6 0 -9 1 -9 6v3c0 6 3 7 9 7h26c16 0 17 3 17 72v424c0 69 -1 72 -17 72h-26c-6 0 -9 1 -9 7v3c0 5 3 6 9 6h244c6 0 9 -1 9 -6v-3c0 -6 -3 -7 -9 -7h-25c-17 0 -18 -3 -18 -72v-424c0 -69 1 -72 18 -72h26c5 0 8 -1 8 -7v-3c0 -5 -3 -6 -8 -6zM429 -13
c-67 0 -121 41 -121 96c0 38 23 58 62 58c41 0 57 -26 57 -57c0 -24 -10 -48 -27 -73c3 -2 11 -4 17 -4c32 0 48 27 48 79v426c0 69 -1 72 -17 72h-41c-6 0 -9 1 -9 7v3c0 5 3 6 9 6h259c5 0 8 -1 8 -6v-3c0 -6 -3 -7 -8 -7h-25c-17 0 -18 -3 -18 -72v-361
c0 -106 -73 -164 -194 -164z" />
    <glyph glyph-name="Jcircumflex.small" unicode="&#xe10c;" horiz-adv-x="388" 
d="M131 -13c-67 0 -121 41 -121 96c0 38 23 58 62 58c41 0 57 -26 57 -57c0 -24 -10 -48 -27 -73c3 -2 11 -4 17 -4c32 0 48 27 48 79v426c0 69 -1 72 -17 72h-41c-6 0 -9 1 -9 7v3c0 5 3 6 9 6h259c5 0 8 -1 8 -6v-3c0 -6 -3 -7 -8 -7h-25c-17 0 -18 -3 -18 -72v-361
c0 -106 -73 -164 -194 -164zM305 785l59 -151c2 -4 2 -7 -1 -8l-3 -2c-2 -2 -5 -1 -9 2l-104 94h-1l-104 -94c-5 -3 -8 -4 -10 -2l-2 2c-3 2 -3 4 -2 8l60 151c13 30 28 47 59 47c30 0 45 -16 58 -47z" />
    <glyph glyph-name="Kcommaaccent.small" unicode="&#xe10d;" horiz-adv-x="549" 
d="M536 0h-183c-8 0 -10 1 -13 11l-96 259c-12 -17 -18 -41 -18 -76v-106c0 -69 1 -72 18 -72h26c6 0 8 -1 8 -7v-3c0 -5 -2 -6 -8 -6h-244c-7 0 -9 1 -9 6v3c0 6 2 7 9 7h24c18 0 19 3 19 72v424c0 69 -1 72 -19 72h-25c-6 0 -8 1 -8 7v3c0 5 2 6 8 6h244c6 0 9 -1 9 -6v-3
c0 -6 -3 -7 -9 -7h-25c-17 0 -18 -3 -18 -72v-234h2c9 26 50 88 113 166c29 44 47 73 47 102c0 26 -14 38 -34 38h-25c-6 0 -9 1 -9 6v4c0 5 3 6 9 6h196c5 0 8 -1 8 -6v-3c0 -6 -3 -7 -8 -7h-10c-38 0 -68 -24 -122 -100l-38 -54l121 -316c34 -90 42 -98 52 -98h8
c5 0 8 -1 8 -6v-4c0 -5 -3 -6 -8 -6zM362 -89c0 -46 -25 -80 -54 -106c-6 -6 -8 -6 -12 -3l-5 6c-4 2 -5 5 0 9c22 19 41 44 46 70l-1 1c-10 -12 -26 -24 -48 -24c-26 0 -51 20 -51 54c0 37 22 54 60 54c40 0 65 -17 65 -61z" />
    <glyph glyph-name="Lacute.small" unicode="&#xe10e;" horiz-adv-x="434" 
d="M410 0h-384c-7 0 -9 1 -9 6v3c0 6 2 7 9 7h24c18 0 19 3 19 72v424c0 69 -1 72 -19 72h-24c-7 0 -9 1 -9 7v3c0 5 2 6 9 6h256c6 0 9 -1 9 -5v-4c0 -6 -3 -7 -9 -7h-38c-17 0 -17 -3 -17 -72v-492h58c67 0 119 82 122 214c0 7 2 8 7 8h4c5 0 6 -2 6 -8l-8 -226
c0 -5 -1 -8 -6 -8zM261 713l-116 -87c-5 -3 -6 -4 -9 -2l-3 2c-3 1 -3 2 -2 8l44 141c11 38 29 57 55 57c38 0 69 -31 69 -61c0 -24 -14 -40 -38 -58z" />
    <glyph glyph-name="Lcaron.small" unicode="&#xe10f;" horiz-adv-x="434" 
d="M410 0h-384c-7 0 -9 1 -9 6v3c0 6 2 7 9 7h24c18 0 19 3 19 72v424c0 69 -1 72 -19 72h-24c-7 0 -9 1 -9 7v3c0 5 2 6 9 6h256c6 0 9 -1 9 -5v-4c0 -6 -3 -7 -9 -7h-38c-17 0 -17 -3 -17 -72v-492h58c67 0 119 82 122 214c0 7 2 8 7 8h4c5 0 6 -2 6 -8l-8 -226
c0 -5 -1 -8 -6 -8zM382 678c25 0 57 -18 57 -49c0 -22 -11 -39 -27 -57l-77 -85c-4 -5 -6 -5 -10 -4l-2 1c-3 1 -3 3 -3 10l11 118c4 39 16 66 51 66z" />
    </font>
</defs>
</svg>
